<svg width="1440" height="600" viewBox="0 0 1440 600" fill="none" xmlns="http://www.w3.org/2000/svg">
<rect width="1440" height="600" fill="white"/>
<rect width="1440" height="600" fill="url(#paint0_linear)"/>
<path d="M432.048 193.1C429.298 196.3 425.148 198.95 419.598 201.1L422.198 205.3C425.248 203.9 427.998 202.3 430.398 200.5H436.898C433.748 204.15 428.848 207.15 422.198 209.55L425.248 213.25C432.948 210.15 438.498 205.9 441.998 200.5H447.398C443.598 207.6 437.498 212.5 429.148 215.1L431.848 219.05C441.148 216.05 447.948 209.85 452.248 200.5H456.148C455.948 206.3 455.448 210.05 454.748 211.85C454.048 213.55 452.548 214.4 450.298 214.4C448.398 214.4 446.448 214.3 444.398 214.2L445.648 218.65H452.598C454.998 218.55 456.698 217.85 457.748 216.55C458.798 215.25 459.548 212.9 460.048 209.6C460.498 206.2 460.798 201.8 460.948 196.3H435.048C435.948 195.3 436.798 194.2 437.548 193.1H457.198V174.6H425.848V193.1H432.048ZM452.548 189.1H430.498V185.7H452.548V189.1ZM430.498 181.95V178.65H452.548V181.95H430.498ZM484.498 191.65H503.198V196.05H484.498V191.65ZM503.198 200.2V204.5H484.498V200.2H503.198ZM503.198 208.6V213.15C503.198 214.25 502.548 214.8 501.348 214.8C499.698 214.8 497.948 214.7 496.098 214.55L497.248 218.85H502.848C506.048 218.75 507.648 217.35 507.648 214.6V187.55H484.848C485.798 186 486.698 184.4 487.498 182.75H513.698V178.15H489.548C490.148 176.6 490.698 174.95 491.198 173.25L486.348 172.7C485.748 174.5 485.098 176.35 484.348 178.15H469.698V182.75H482.048C478.748 188.65 474.148 193.95 468.348 198.55L471.398 202.55C474.598 199.95 477.448 197.15 480.048 194.1V219.05H484.498V208.6H503.198ZM523.698 175.55V180.15H559.598V175.55H523.698ZM518.898 189.35V194.1H535.048C530.098 204 526.098 210.1 523.048 212.4C522.798 212.55 522.398 212.7 521.898 212.85L523.148 217.7C534.948 216.9 545.848 215.8 555.898 214.4C556.798 216.1 557.598 217.8 558.398 219.5L562.648 216.55C560.148 211.55 556.648 205.65 552.098 198.9L548.298 201.25C550.198 204.25 551.948 207.2 553.548 210.05C545.448 211.2 537.248 212.05 529.048 212.55C532.298 208.85 536.048 202.7 540.348 194.1H564.048V189.35H518.898ZM574.648 179.95C573.498 186.75 571.248 192.85 567.848 198.25L570.348 202.2C571.198 200.95 571.998 199.65 572.798 198.3V217.4H577.198V213.65H585.798V190.15H576.548C577.648 186.95 578.548 183.55 579.148 179.95H586.198V175.45H569.648V179.95H574.648ZM593.498 194.75H598.498V199.1H593.498V194.75ZM602.848 194.75H607.948V199.1H602.848V194.75ZM607.948 190.95H602.848V186.6H607.948V190.95ZM598.498 190.95H593.498V186.6H598.498V190.95ZM587.748 174.7V178.95H598.498V182.6H589.198V203.05H598.248C597.898 205 597.348 206.75 596.548 208.3C594.998 207.05 593.598 205.65 592.348 204.05L589.048 206.35C590.548 208.25 592.148 209.95 593.898 211.45C591.898 212.95 588.998 214.3 585.098 215.45L587.498 219.25C591.798 218 595.098 216.3 597.498 214.15C602.148 217.15 607.548 218.85 613.748 219.25L614.898 214.95C609.298 214.65 604.398 213.3 600.198 210.85C601.448 208.65 602.248 206.05 602.648 203.05H612.248V182.6H602.848V178.95H613.648V174.7H587.748ZM577.198 209.6V194.35H581.448V209.6H577.198ZM628.948 172.6C626.548 180.3 622.848 187.05 617.848 192.85L619.398 197.9C620.948 196.25 622.448 194.55 623.848 192.75V219.15H628.498V185.85C630.498 182.35 632.148 178.6 633.398 174.65L628.948 172.6ZM637.348 176.2C636.348 182.6 634.348 188.05 631.448 192.5L634.498 196.45C636.298 193.85 637.798 191 639.048 187.85H646.598V198.6H632.398V203.2H646.598V218.95H651.348V203.2H664.248V198.6H651.348V187.85H662.398V183.2H651.348V173.2H646.598V183.2H640.598C641.148 181.2 641.598 179.05 641.998 176.8L637.348 176.2ZM719.898 178.3V214H746.398V209.35H725.348V198H744.348V193.35H725.348V182.95H745.548V178.3H719.898ZM763.08 187.45C759.88 187.45 757.28 188 755.38 189.2C753.18 190.5 751.78 192.6 751.23 195.4L756.48 195.85C756.78 194.4 757.53 193.35 758.73 192.65C759.73 192.05 761.08 191.75 762.73 191.75C766.63 191.75 768.58 193.55 768.58 197.15V198.2L762.78 198.35C758.98 198.45 755.98 199.2 753.88 200.7C751.58 202.25 750.43 204.5 750.43 207.4C750.43 209.55 751.23 211.3 752.88 212.65C754.38 214 756.48 214.7 759.18 214.7C761.48 214.7 763.48 214.25 765.18 213.45C766.68 212.7 767.93 211.65 768.93 210.35V214H773.83V197.5C773.83 194.35 773.03 191.95 771.48 190.3C769.68 188.4 766.88 187.45 763.08 187.45ZM768.58 202.05V203.55C768.58 205.55 767.73 207.25 766.13 208.6C764.53 209.95 762.63 210.65 760.38 210.65C759.03 210.65 757.93 210.3 757.13 209.65C756.28 209 755.88 208.2 755.88 207.2C755.88 204 758.28 202.3 763.13 202.2L768.58 202.05ZM789.546 187.45C786.446 187.45 783.896 188.1 781.946 189.45C779.996 190.75 779.046 192.6 779.046 194.95C779.046 197.15 780.046 198.9 782.046 200.15C783.246 200.95 785.396 201.7 788.446 202.4C791.096 203 792.846 203.5 793.646 203.9C795.146 204.6 795.946 205.6 795.946 206.85C795.946 209.15 793.846 210.35 789.746 210.35C787.746 210.35 786.346 210 785.446 209.35C784.546 208.65 783.896 207.4 783.596 205.65H778.396C778.996 211.65 782.796 214.7 789.896 214.7C797.546 214.7 801.396 211.95 801.396 206.5C801.396 204.2 800.346 202.4 798.296 201.1C796.896 200.2 794.696 199.35 791.746 198.65C789.146 198 787.446 197.5 786.546 197.1C785.146 196.45 784.446 195.7 784.446 194.8C784.446 193.8 784.896 193 785.846 192.5C786.646 192 787.846 191.8 789.446 191.8C791.246 191.8 792.646 192.1 793.546 192.7C794.396 193.25 794.996 194.2 795.396 195.6H800.546C799.946 190.15 796.246 187.45 789.546 187.45ZM816.823 187.45C813.023 187.45 809.973 188.75 807.773 191.4C805.473 194 804.373 197.2 804.373 201.05C804.373 205.3 805.573 208.65 807.973 211.15C810.173 213.5 813.223 214.7 817.023 214.7C820.473 214.7 823.323 213.7 825.573 211.75C827.373 210.15 828.523 208.1 829.123 205.7H823.823C823.123 207.2 822.373 208.35 821.473 209.05C820.323 209.9 818.823 210.35 816.973 210.35C814.873 210.35 813.223 209.65 812.023 208.35C810.823 207 810.173 205.05 809.973 202.55H829.573C829.523 197.95 828.473 194.35 826.473 191.75C824.273 188.85 821.023 187.45 816.823 187.45ZM816.973 191.8C821.173 191.8 823.523 194.05 824.023 198.55H810.073C810.373 196.35 811.123 194.7 812.223 193.55C813.423 192.35 814.973 191.8 816.973 191.8ZM834.596 178.3V214H840.046V200.1H849.296C857.846 200.1 862.146 196.45 862.146 189.15C862.146 181.9 857.896 178.3 849.396 178.3H834.596ZM840.046 182.95H848.946C851.596 182.95 853.546 183.45 854.796 184.45C856.046 185.35 856.696 186.95 856.696 189.15C856.696 191.35 856.046 192.95 854.846 193.95C853.596 194.95 851.646 195.45 848.946 195.45H840.046V182.95ZM870.463 177.8C869.413 177.8 868.563 178.1 867.863 178.8C867.163 179.45 866.813 180.3 866.813 181.35C866.813 182.35 867.163 183.25 867.863 183.95C868.563 184.6 869.413 184.95 870.463 184.95C871.463 184.95 872.363 184.6 873.063 183.95C873.763 183.25 874.163 182.4 874.163 181.35C874.163 180.3 873.813 179.45 873.113 178.8C872.413 178.1 871.513 177.8 870.463 177.8ZM867.813 188.15V214H873.113V188.15H867.813ZM907.688 178.3L893.938 214H899.738L903.088 204.8H918.438L921.788 214H927.638L913.888 178.3H907.688ZM904.738 200.3L910.688 184.15H910.888L916.788 200.3H904.738ZM931.129 178.3V214H936.579V199.25H946.229C948.279 199.25 949.829 199.65 950.929 200.55C951.979 201.45 952.629 202.85 952.829 204.85L953.279 209.3C953.479 211.3 953.979 212.9 954.829 214H960.729C959.529 212.7 958.829 210.95 958.629 208.75L958.029 203.05C957.629 199.55 955.879 197.45 952.679 196.75V196.65C954.629 196.15 956.179 195.1 957.329 193.5C958.329 192.05 958.829 190.4 958.829 188.5C958.829 185.1 957.729 182.55 955.529 180.75C953.429 179.1 950.529 178.3 946.929 178.3H931.129ZM936.579 182.95H946.179C948.679 182.95 950.479 183.4 951.679 184.35C952.779 185.25 953.379 186.7 953.379 188.7C953.379 190.6 952.779 192.05 951.629 193.05C950.429 194.05 948.629 194.6 946.229 194.6H936.579V182.95ZM978.248 177.6C974.448 177.6 971.298 178.45 968.798 180.15C966.148 181.95 964.848 184.4 964.848 187.55C964.848 190.65 966.198 193.05 968.948 194.7C970.048 195.3 972.748 196.25 977.148 197.65C981.098 198.85 983.448 199.65 984.248 200.05C986.498 201.2 987.648 202.75 987.648 204.75C987.648 206.35 986.848 207.6 985.248 208.5C983.648 209.4 981.498 209.9 978.798 209.9C975.798 209.9 973.598 209.35 972.148 208.25C970.548 207.05 969.548 205 969.148 202.2H963.748C964.048 206.7 965.648 210 968.598 212.1C971.048 213.8 974.448 214.7 978.798 214.7C983.298 214.7 986.798 213.8 989.298 212C991.798 210.15 993.048 207.65 993.048 204.45C993.048 201.15 991.498 198.6 988.448 196.75C987.048 195.9 983.898 194.75 979.098 193.25C975.748 192.25 973.698 191.5 972.898 191.05C971.098 190.1 970.248 188.85 970.248 187.25C970.248 185.45 970.998 184.15 972.548 183.35C973.798 182.65 975.598 182.3 977.948 182.3C980.648 182.3 982.648 182.8 984.048 183.85C985.448 184.85 986.348 186.55 986.848 188.85H992.248C991.898 184.95 990.498 182.1 987.998 180.25C985.648 178.45 982.398 177.6 978.248 177.6ZM1010.17 177.6C1006.37 177.6 1003.27 178.85 1000.97 181.45C998.721 183.85 997.571 187.05 997.521 191.05H1002.97C1003.07 188.15 1003.67 186 1004.87 184.5C1006.02 182.95 1007.72 182.2 1009.97 182.2C1012.07 182.2 1013.72 182.7 1014.82 183.7C1015.92 184.7 1016.47 186.2 1016.47 188.2C1016.47 190.3 1015.62 192.25 1014.02 194.05C1013.02 195.1 1011.32 196.45 1008.92 198.15C1004.87 200.95 1002.17 203.1 1000.87 204.65C998.471 207.35 997.321 210.45 997.321 214H1021.92V209.2H1004.07C1004.82 207.25 1007.12 205 1010.97 202.45C1014.52 200.05 1016.97 198.15 1018.37 196.7C1020.67 194.15 1021.87 191.35 1021.87 188.25C1021.87 185.1 1020.77 182.55 1018.62 180.55C1016.42 178.55 1013.57 177.6 1010.17 177.6Z" fill="white"/>
<path d="M689.198 171V221H693.598V171H689.198Z" fill="white" fill-opacity="0.3"/>
<path d="M358.877 269V254.684H369.229V256.373H360.771V260.758H368.691V262.438H360.771V267.311H369.561V269H358.877ZM378.721 267.721C378.07 268.274 377.441 268.665 376.836 268.893C376.237 269.12 375.592 269.234 374.902 269.234C373.763 269.234 372.887 268.958 372.275 268.404C371.663 267.844 371.357 267.132 371.357 266.266C371.357 265.758 371.471 265.296 371.699 264.879C371.934 264.456 372.236 264.117 372.607 263.863C372.985 263.609 373.408 263.417 373.877 263.287C374.222 263.196 374.743 263.108 375.439 263.023C376.859 262.854 377.904 262.652 378.574 262.418C378.581 262.177 378.584 262.024 378.584 261.959C378.584 261.243 378.418 260.738 378.086 260.445C377.637 260.048 376.969 259.85 376.084 259.85C375.257 259.85 374.645 259.996 374.248 260.289C373.857 260.576 373.568 261.087 373.379 261.822L371.66 261.588C371.816 260.852 372.074 260.26 372.432 259.811C372.79 259.355 373.307 259.007 373.984 258.766C374.661 258.518 375.446 258.395 376.338 258.395C377.223 258.395 377.943 258.499 378.496 258.707C379.049 258.915 379.456 259.179 379.717 259.498C379.977 259.811 380.16 260.208 380.264 260.689C380.322 260.989 380.352 261.529 380.352 262.311V264.654C380.352 266.288 380.387 267.324 380.459 267.76C380.537 268.189 380.687 268.603 380.908 269H379.072C378.89 268.635 378.773 268.209 378.721 267.721ZM378.574 263.795C377.936 264.055 376.979 264.277 375.703 264.459C374.98 264.563 374.469 264.68 374.17 264.811C373.87 264.941 373.639 265.133 373.477 265.387C373.314 265.634 373.232 265.911 373.232 266.217C373.232 266.686 373.408 267.076 373.76 267.389C374.118 267.701 374.639 267.857 375.322 267.857C375.999 267.857 376.602 267.711 377.129 267.418C377.656 267.118 378.044 266.712 378.291 266.197C378.48 265.8 378.574 265.214 378.574 264.439V263.795ZM382.383 265.904L384.121 265.631C384.219 266.327 384.489 266.861 384.932 267.232C385.381 267.604 386.006 267.789 386.807 267.789C387.614 267.789 388.213 267.626 388.604 267.301C388.994 266.969 389.189 266.581 389.189 266.139C389.189 265.742 389.017 265.429 388.672 265.201C388.431 265.045 387.832 264.846 386.875 264.605C385.586 264.28 384.691 264 384.189 263.766C383.695 263.525 383.317 263.196 383.057 262.779C382.803 262.356 382.676 261.891 382.676 261.383C382.676 260.921 382.78 260.494 382.988 260.104C383.203 259.706 383.493 259.378 383.857 259.117C384.131 258.915 384.502 258.746 384.971 258.609C385.446 258.466 385.954 258.395 386.494 258.395C387.308 258.395 388.021 258.512 388.633 258.746C389.251 258.98 389.707 259.299 390 259.703C390.293 260.1 390.495 260.634 390.605 261.305L388.887 261.539C388.809 261.005 388.581 260.589 388.203 260.289C387.832 259.99 387.305 259.84 386.621 259.84C385.814 259.84 385.238 259.973 384.893 260.24C384.548 260.507 384.375 260.82 384.375 261.178C384.375 261.406 384.447 261.611 384.59 261.793C384.733 261.982 384.958 262.138 385.264 262.262C385.439 262.327 385.957 262.477 386.816 262.711C388.06 263.043 388.926 263.316 389.414 263.531C389.909 263.74 390.296 264.046 390.576 264.449C390.856 264.853 390.996 265.354 390.996 265.953C390.996 266.539 390.824 267.092 390.479 267.613C390.14 268.128 389.648 268.528 389.004 268.814C388.359 269.094 387.63 269.234 386.816 269.234C385.469 269.234 384.44 268.954 383.73 268.395C383.027 267.835 382.578 267.005 382.383 265.904ZM400.186 265.66L402.002 265.885C401.715 266.946 401.185 267.77 400.41 268.355C399.635 268.941 398.646 269.234 397.441 269.234C395.924 269.234 394.72 268.769 393.828 267.838C392.943 266.9 392.5 265.589 392.5 263.902C392.5 262.158 392.949 260.803 393.848 259.84C394.746 258.876 395.911 258.395 397.344 258.395C398.73 258.395 399.863 258.867 400.742 259.811C401.621 260.755 402.061 262.083 402.061 263.795C402.061 263.899 402.057 264.055 402.051 264.264H394.316C394.382 265.403 394.704 266.275 395.283 266.881C395.863 267.486 396.585 267.789 397.451 267.789C398.096 267.789 398.646 267.62 399.102 267.281C399.557 266.943 399.919 266.402 400.186 265.66ZM394.414 262.818H400.205C400.127 261.946 399.906 261.292 399.541 260.855C398.981 260.178 398.255 259.84 397.363 259.84C396.556 259.84 395.876 260.11 395.322 260.65C394.775 261.191 394.473 261.913 394.414 262.818ZM404.443 269V254.684H409.844C410.794 254.684 411.52 254.729 412.021 254.82C412.725 254.938 413.314 255.162 413.789 255.494C414.264 255.82 414.645 256.279 414.932 256.871C415.225 257.464 415.371 258.115 415.371 258.824C415.371 260.042 414.984 261.074 414.209 261.92C413.434 262.76 412.035 263.18 410.01 263.18H406.338V269H404.443ZM406.338 261.49H410.039C411.263 261.49 412.132 261.262 412.646 260.807C413.161 260.351 413.418 259.71 413.418 258.883C413.418 258.284 413.265 257.773 412.959 257.35C412.66 256.92 412.262 256.637 411.768 256.5C411.449 256.415 410.859 256.373 410 256.373H406.338V261.49ZM417.568 256.705V254.684H419.326V256.705H417.568ZM417.568 269V258.629H419.326V269H417.568ZM425.117 269L430.615 254.684H432.656L438.516 269H436.357L434.688 264.664H428.701L427.129 269H425.117ZM429.248 263.121H434.102L432.607 259.156C432.152 257.952 431.813 256.962 431.592 256.188C431.41 257.105 431.152 258.017 430.82 258.922L429.248 263.121ZM440.059 269V254.684H446.406C447.682 254.684 448.652 254.814 449.316 255.074C449.98 255.328 450.511 255.781 450.908 256.432C451.305 257.083 451.504 257.802 451.504 258.59C451.504 259.605 451.175 260.462 450.518 261.158C449.86 261.855 448.844 262.298 447.471 262.486C447.972 262.727 448.353 262.965 448.613 263.199C449.167 263.707 449.691 264.342 450.186 265.104L452.676 269H450.293L448.398 266.021C447.845 265.162 447.389 264.505 447.031 264.049C446.673 263.593 446.351 263.274 446.064 263.092C445.785 262.91 445.498 262.783 445.205 262.711C444.99 262.665 444.639 262.643 444.15 262.643H441.953V269H440.059ZM441.953 261.002H446.025C446.891 261.002 447.568 260.914 448.057 260.738C448.545 260.556 448.916 260.27 449.17 259.879C449.424 259.482 449.551 259.052 449.551 258.59C449.551 257.913 449.303 257.356 448.809 256.92C448.32 256.484 447.546 256.266 446.484 256.266H441.953V261.002ZM453.838 264.4L455.625 264.244C455.71 264.96 455.905 265.549 456.211 266.012C456.523 266.467 457.005 266.839 457.656 267.125C458.307 267.405 459.04 267.545 459.854 267.545C460.576 267.545 461.214 267.438 461.768 267.223C462.321 267.008 462.731 266.715 462.998 266.344C463.271 265.966 463.408 265.556 463.408 265.113C463.408 264.664 463.278 264.273 463.018 263.941C462.757 263.603 462.327 263.32 461.729 263.092C461.344 262.942 460.495 262.711 459.18 262.398C457.865 262.079 456.943 261.78 456.416 261.5C455.732 261.142 455.221 260.699 454.883 260.172C454.551 259.638 454.385 259.042 454.385 258.385C454.385 257.662 454.59 256.988 455 256.363C455.41 255.732 456.009 255.253 456.797 254.928C457.585 254.602 458.46 254.439 459.424 254.439C460.485 254.439 461.419 254.612 462.227 254.957C463.04 255.296 463.665 255.797 464.102 256.461C464.538 257.125 464.772 257.877 464.805 258.717L462.988 258.854C462.891 257.949 462.559 257.265 461.992 256.803C461.432 256.34 460.602 256.109 459.502 256.109C458.356 256.109 457.52 256.321 456.992 256.744C456.471 257.161 456.211 257.665 456.211 258.258C456.211 258.772 456.396 259.195 456.768 259.527C457.132 259.859 458.083 260.201 459.619 260.553C461.162 260.898 462.22 261.201 462.793 261.461C463.626 261.845 464.242 262.333 464.639 262.926C465.036 263.512 465.234 264.189 465.234 264.957C465.234 265.719 465.016 266.438 464.58 267.115C464.144 267.786 463.516 268.31 462.695 268.688C461.882 269.059 460.964 269.244 459.941 269.244C458.646 269.244 457.559 269.055 456.68 268.678C455.807 268.3 455.12 267.734 454.619 266.979C454.124 266.217 453.864 265.357 453.838 264.4ZM476.348 267.311V269H466.885C466.872 268.577 466.94 268.17 467.09 267.779C467.331 267.135 467.715 266.5 468.242 265.875C468.776 265.25 469.544 264.527 470.547 263.707C472.103 262.431 473.154 261.422 473.701 260.68C474.248 259.931 474.521 259.225 474.521 258.561C474.521 257.864 474.271 257.278 473.77 256.803C473.275 256.321 472.627 256.08 471.826 256.08C470.98 256.08 470.303 256.334 469.795 256.842C469.287 257.35 469.03 258.053 469.023 258.951L467.217 258.766C467.34 257.418 467.806 256.393 468.613 255.689C469.421 254.98 470.505 254.625 471.865 254.625C473.239 254.625 474.326 255.006 475.127 255.768C475.928 256.529 476.328 257.473 476.328 258.6C476.328 259.173 476.211 259.736 475.977 260.289C475.742 260.842 475.352 261.425 474.805 262.037C474.264 262.649 473.363 263.489 472.1 264.557C471.045 265.442 470.368 266.044 470.068 266.363C469.769 266.676 469.521 266.992 469.326 267.311H476.348ZM480.552 271.14C482.652 270.4 484.012 268.76 484.012 266.6C484.012 265.2 483.412 264.3 482.312 264.3C481.492 264.3 480.792 264.8 480.792 265.74C480.792 266.68 481.472 267.16 482.292 267.16C482.412 267.16 482.512 267.16 482.632 267.14C482.532 268.5 481.652 269.44 480.112 270.08L480.552 271.14ZM512.532 255.84H502.192V254.22H512.532V255.84ZM512.532 258.54H502.192V256.92H512.532V258.54ZM514.012 253.08H500.732V259.68H514.012V253.08ZM508.312 265.9H514.912V264.58H508.312V262.36H516.212V261.02H498.652V262.36H506.852V268.38C505.132 267.92 503.852 267 503.072 265.2C503.272 264.56 503.452 263.9 503.592 263.2L502.092 263C501.552 265.92 500.292 268.16 498.212 269.5C498.532 269.74 499.112 270.3 499.312 270.56C500.612 269.6 501.652 268.36 502.432 266.8C504.052 269.5 506.592 270.14 510.612 270.14H516.052C516.132 269.7 516.372 269.06 516.572 268.72C515.552 268.74 511.412 268.74 510.672 268.74C509.832 268.74 509.032 268.7 508.312 268.62V265.9ZM522.632 257.58H532.452V259.56H522.632V257.58ZM522.632 254.42H532.452V256.4H522.632V254.42ZM523.892 262.5C524.312 261.96 524.752 261.4 525.092 260.82H533.952V253.18H521.172V260.82H523.372C522.112 262.66 520.192 264.3 518.252 265.4C518.612 265.64 519.172 266.16 519.412 266.44C520.512 265.76 521.632 264.86 522.652 263.84H525.432C524.112 265.98 522.072 267.86 519.932 269.06C520.272 269.32 520.832 269.86 521.072 270.12C523.352 268.66 525.612 266.42 527.072 263.84H529.772C528.812 266.22 527.292 268.34 525.452 269.72C525.812 269.92 526.392 270.4 526.652 270.64C528.552 269.06 530.232 266.64 531.292 263.84H533.732C533.412 267.28 533.072 268.7 532.632 269.1C532.452 269.3 532.252 269.32 531.912 269.32C531.552 269.32 530.632 269.32 529.672 269.22C529.892 269.58 530.052 270.12 530.072 270.52C531.072 270.58 532.032 270.58 532.532 270.54C533.112 270.52 533.492 270.38 533.872 269.98C534.472 269.36 534.872 267.64 535.252 263.18C535.292 262.96 535.312 262.5 535.312 262.5H523.892ZM552.352 261.92H544.012V259.9H552.352V261.92ZM544.012 265.3V263.2H552.352V265.3H544.012ZM556.152 256.24V254.84H545.972C546.272 254.12 546.512 253.36 546.752 252.62L545.272 252.26C545.032 253.12 544.732 253.98 544.392 254.84H538.752V256.24H543.772C542.492 258.88 540.672 261.28 538.272 262.9C538.572 263.18 539.032 263.72 539.232 264.04C540.492 263.16 541.592 262.08 542.552 260.9V270.52H544.012V266.58H552.352V268.66C552.352 268.96 552.232 269.06 551.892 269.08C551.532 269.08 550.332 269.1 549.012 269.04C549.212 269.46 549.432 270.06 549.492 270.5C551.192 270.5 552.312 270.48 552.972 270.24C553.612 270 553.812 269.56 553.812 268.66V258.56H544.172C544.612 257.82 545.012 257.02 545.392 256.24H556.152ZM574.192 253.78H560.772V255.28H574.192V253.78ZM576.252 261.26V259.74H558.612V261.26H564.692C563.992 263.38 562.912 266.06 561.932 267.88L558.792 267.96L558.932 269.5C562.712 269.36 568.412 269.14 573.812 268.88C574.192 269.48 574.512 270.06 574.752 270.56L576.232 269.72C575.312 267.88 573.312 265.14 571.372 263.12L569.992 263.8C570.972 264.88 572.012 266.2 572.892 267.48C569.712 267.62 566.452 267.72 563.592 267.82C564.612 265.94 565.732 263.4 566.592 261.26H576.252ZM592.932 257.88H589.852V255.36H588.412V257.88H581.992V259.22H587.932C586.312 261.4 583.912 263.38 581.692 264.58C582.032 264.84 582.452 265.3 582.652 265.58C584.632 264.46 586.752 262.8 588.412 260.9V265.54C588.412 265.78 588.332 265.86 588.072 265.86C587.832 265.88 586.972 265.88 586.072 265.86C586.272 266.24 586.492 266.8 586.552 267.2C587.852 267.2 588.652 267.16 589.152 266.92C589.692 266.7 589.852 266.32 589.852 265.54V259.22H592.932V257.88ZM580.672 268.36V254.52H594.092V268.36H580.672ZM579.172 253.14V270.54H580.672V269.72H594.092V270.54H595.652V253.14H579.172ZM604.932 253.02L604.692 253.08H599.492V270.5H600.912V254.44H604.072C603.632 255.78 602.992 257.52 602.372 258.96C603.912 260.52 604.332 261.88 604.332 262.96C604.332 263.56 604.212 264.08 603.892 264.3C603.692 264.42 603.472 264.48 603.212 264.48C602.892 264.5 602.472 264.5 601.992 264.46C602.232 264.86 602.372 265.46 602.392 265.86C602.872 265.88 603.392 265.88 603.832 265.84C604.232 265.78 604.612 265.66 604.912 265.44C605.512 265.04 605.752 264.16 605.752 263.08C605.752 261.86 605.392 260.4 603.852 258.76C604.552 257.2 605.332 255.28 605.972 253.66L604.932 253.02ZM609.832 252.28C609.812 259.08 609.912 266.06 604.272 269.48C604.692 269.76 605.172 270.22 605.412 270.58C608.432 268.64 609.912 265.74 610.632 262.36C611.372 265.18 612.812 268.62 615.712 270.54C615.932 270.16 616.392 269.72 616.792 269.42C612.352 266.62 611.452 260.24 611.152 258.38C611.312 256.4 611.312 254.32 611.332 252.28H609.832ZM624.412 261.02L622.492 261.58V257.64H624.432V256.28H622.492V252.28H621.052V256.28H618.372V257.64H621.052V262C619.912 262.34 618.852 262.64 618.032 262.84L618.372 264.28L621.052 263.46V268.72C621.052 269.02 620.972 269.1 620.712 269.1C620.452 269.12 619.632 269.12 618.732 269.08C618.932 269.48 619.112 270.14 619.172 270.5C620.492 270.52 621.292 270.48 621.812 270.24C622.312 269.98 622.492 269.56 622.492 268.72V263.02L624.592 262.36L624.412 261.02ZM627.512 265.34H630.772V268.12H627.512V265.34ZM630.772 260.04H627.512V257.36H630.772V260.04ZM630.772 264.04H627.512V261.32H630.772V264.04ZM636.552 268.12H632.132V265.34H635.732V264.04H632.132V261.32H635.732V260.04H632.132V257.36H636.212V256.02H632.232C632.712 255 633.252 253.78 633.692 252.68L632.132 252.32C631.832 253.4 631.292 254.88 630.772 256.02H627.712C628.212 254.92 628.632 253.78 628.992 252.6L627.572 252.24C626.752 255.12 625.352 257.86 623.612 259.62C623.912 259.92 624.412 260.56 624.612 260.86C625.132 260.3 625.632 259.66 626.092 258.96V270.5H627.512V269.48H636.552V268.12ZM653.692 262.28V267.82H648.072V261H654.412V254.16H652.872V259.56H648.072V252.38H646.552V259.56H641.972V254.16H640.492V261H646.552V267.82H641.212V262.28H639.732V270.52H641.212V269.28H653.692V270.48H655.212V262.28H653.692ZM664.772 260.98H660.572V256.8H664.772V260.98ZM660.572 267.1V262.3H664.772V267.1H660.572ZM662.252 252.22C662.112 253.16 661.752 254.5 661.452 255.46H659.212V270.02H660.572V268.44H666.132V255.46H662.812C663.152 254.6 663.512 253.5 663.852 252.52L662.252 252.22ZM675.912 255.4H669.932C670.272 254.46 670.552 253.5 670.792 252.52L669.372 252.18C668.732 254.92 667.652 257.68 666.312 259.44C666.632 259.64 667.272 260.04 667.532 260.28C668.232 259.34 668.852 258.12 669.412 256.78H674.492C674.232 264.74 673.932 267.78 673.272 268.48C673.072 268.74 672.852 268.78 672.452 268.78C671.992 268.78 670.792 268.78 669.492 268.66C669.772 269.08 669.952 269.68 669.992 270.12C671.112 270.18 672.252 270.22 672.952 270.14C673.632 270.08 674.092 269.9 674.532 269.34C675.332 268.36 675.592 265.28 675.912 256.16V255.4ZM672.752 264.4C672.112 263.22 670.732 261.3 669.612 259.88L668.452 260.56C669.552 262 670.892 263.98 671.492 265.18L672.752 264.4ZM688.112 266.62H692.292V265.4H688.112V263.72H686.632V265.4H682.552V266.62H686.632V268.72H679.932V269.98H695.012V268.72H688.112V266.62ZM683.812 260.4H691.072V261.82H683.812V260.4ZM691.072 255.44V256.78H683.812V255.44H691.072ZM683.812 257.9H691.072V259.28H683.812V257.9ZM696.432 263.08V261.82H692.572V255.44H695.572V254.2H692.572V252.28H691.072V254.2H683.812V252.28H682.352V254.2H679.312V255.44H682.352V261.82H678.392V263.08H682.712C681.572 264.5 679.852 265.76 678.192 266.42C678.532 266.7 678.932 267.2 679.152 267.56C681.092 266.66 683.112 264.94 684.372 263.08H690.632C691.832 264.84 693.772 266.5 695.712 267.3C695.932 266.96 696.352 266.44 696.692 266.16C695.012 265.56 693.312 264.4 692.192 263.08H696.432ZM716.272 260.2H708.372V255.16H714.872V253.7H699.952V255.16H706.832V260.2H698.572V261.66H706.832V268.36C706.832 268.78 706.672 268.9 706.252 268.92C705.792 268.94 704.272 268.94 702.632 268.9C702.872 269.32 703.172 270.02 703.272 270.44C705.292 270.44 706.592 270.42 707.332 270.16C708.072 269.92 708.372 269.44 708.372 268.36V261.66H716.272V260.2ZM718.984 269V254.684H725.332C726.608 254.684 727.578 254.814 728.242 255.074C728.906 255.328 729.437 255.781 729.834 256.432C730.231 257.083 730.43 257.802 730.43 258.59C730.43 259.605 730.101 260.462 729.443 261.158C728.786 261.855 727.77 262.298 726.396 262.486C726.898 262.727 727.279 262.965 727.539 263.199C728.092 263.707 728.617 264.342 729.111 265.104L731.602 269H729.219L727.324 266.021C726.771 265.162 726.315 264.505 725.957 264.049C725.599 263.593 725.277 263.274 724.99 263.092C724.71 262.91 724.424 262.783 724.131 262.711C723.916 262.665 723.564 262.643 723.076 262.643H720.879V269H718.984ZM720.879 261.002H724.951C725.817 261.002 726.494 260.914 726.982 260.738C727.471 260.556 727.842 260.27 728.096 259.879C728.35 259.482 728.477 259.052 728.477 258.59C728.477 257.913 728.229 257.356 727.734 256.92C727.246 256.484 726.471 256.266 725.41 256.266H720.879V261.002ZM736.68 269V256.373H731.963V254.684H743.311V256.373H738.574V269H736.68ZM745.264 269V254.684H750.195C751.309 254.684 752.158 254.752 752.744 254.889C753.564 255.077 754.264 255.419 754.844 255.914C755.599 256.552 756.162 257.369 756.533 258.365C756.911 259.355 757.1 260.488 757.1 261.764C757.1 262.851 756.973 263.814 756.719 264.654C756.465 265.494 756.139 266.191 755.742 266.744C755.345 267.291 754.909 267.724 754.434 268.043C753.965 268.355 753.395 268.593 752.725 268.756C752.061 268.919 751.296 269 750.43 269H745.264ZM747.158 267.311H750.215C751.159 267.311 751.898 267.223 752.432 267.047C752.972 266.871 753.402 266.624 753.721 266.305C754.17 265.855 754.518 265.253 754.766 264.498C755.02 263.736 755.146 262.815 755.146 261.734C755.146 260.237 754.899 259.088 754.404 258.287C753.916 257.48 753.32 256.939 752.617 256.666C752.109 256.471 751.292 256.373 750.166 256.373H747.158V267.311ZM765.625 269H763.867V257.799C763.444 258.202 762.887 258.606 762.197 259.01C761.514 259.413 760.898 259.716 760.352 259.918V258.219C761.335 257.757 762.194 257.197 762.93 256.539C763.665 255.882 764.186 255.243 764.492 254.625H765.625V269ZM779.375 267.311V269H769.912C769.899 268.577 769.967 268.17 770.117 267.779C770.358 267.135 770.742 266.5 771.27 265.875C771.803 265.25 772.572 264.527 773.574 263.707C775.13 262.431 776.182 261.422 776.729 260.68C777.275 259.931 777.549 259.225 777.549 258.561C777.549 257.864 777.298 257.278 776.797 256.803C776.302 256.321 775.654 256.08 774.854 256.08C774.007 256.08 773.33 256.334 772.822 256.842C772.314 257.35 772.057 258.053 772.051 258.951L770.244 258.766C770.368 257.418 770.833 256.393 771.641 255.689C772.448 254.98 773.532 254.625 774.893 254.625C776.266 254.625 777.354 255.006 778.154 255.768C778.955 256.529 779.355 257.473 779.355 258.6C779.355 259.173 779.238 259.736 779.004 260.289C778.77 260.842 778.379 261.425 777.832 262.037C777.292 262.649 776.39 263.489 775.127 264.557C774.072 265.442 773.395 266.044 773.096 266.363C772.796 266.676 772.549 266.992 772.354 267.311H779.375ZM781.533 265.689L783.223 265.533C783.366 266.327 783.639 266.904 784.043 267.262C784.447 267.62 784.964 267.799 785.596 267.799C786.136 267.799 786.608 267.675 787.012 267.428C787.422 267.18 787.757 266.852 788.018 266.441C788.278 266.025 788.496 265.465 788.672 264.762C788.848 264.059 788.936 263.342 788.936 262.613C788.936 262.535 788.932 262.418 788.926 262.262C788.574 262.822 788.092 263.277 787.48 263.629C786.875 263.974 786.217 264.146 785.508 264.146C784.323 264.146 783.32 263.717 782.5 262.857C781.68 261.998 781.27 260.865 781.27 259.459C781.27 258.007 781.696 256.839 782.549 255.953C783.408 255.068 784.482 254.625 785.771 254.625C786.702 254.625 787.552 254.876 788.32 255.377C789.095 255.878 789.681 256.594 790.078 257.525C790.482 258.45 790.684 259.791 790.684 261.549C790.684 263.378 790.485 264.837 790.088 265.924C789.691 267.005 789.098 267.828 788.311 268.395C787.529 268.961 786.611 269.244 785.557 269.244C784.437 269.244 783.522 268.935 782.812 268.316C782.103 267.691 781.676 266.816 781.533 265.689ZM788.73 259.371C788.73 258.362 788.46 257.561 787.92 256.969C787.386 256.376 786.742 256.08 785.986 256.08C785.205 256.08 784.525 256.399 783.945 257.037C783.366 257.675 783.076 258.502 783.076 259.518C783.076 260.429 783.35 261.171 783.896 261.744C784.45 262.311 785.13 262.594 785.938 262.594C786.751 262.594 787.419 262.311 787.939 261.744C788.467 261.171 788.73 260.38 788.73 259.371ZM801.523 258.189L799.775 258.326C799.619 257.636 799.398 257.135 799.111 256.822C798.636 256.321 798.05 256.07 797.354 256.07C796.794 256.07 796.302 256.227 795.879 256.539C795.326 256.943 794.889 257.532 794.57 258.307C794.251 259.081 794.085 260.185 794.072 261.617C794.495 260.973 795.013 260.494 795.625 260.182C796.237 259.869 796.878 259.713 797.549 259.713C798.721 259.713 799.717 260.146 800.537 261.012C801.364 261.871 801.777 262.984 801.777 264.352C801.777 265.25 801.582 266.087 801.191 266.861C800.807 267.63 800.277 268.219 799.6 268.629C798.923 269.039 798.154 269.244 797.295 269.244C795.83 269.244 794.635 268.707 793.711 267.633C792.786 266.552 792.324 264.775 792.324 262.301C792.324 259.534 792.835 257.522 793.857 256.266C794.749 255.172 795.951 254.625 797.461 254.625C798.587 254.625 799.508 254.941 800.225 255.572C800.947 256.204 801.38 257.076 801.523 258.189ZM794.346 264.361C794.346 264.967 794.473 265.546 794.727 266.1C794.987 266.653 795.348 267.076 795.811 267.369C796.273 267.656 796.758 267.799 797.266 267.799C798.008 267.799 798.646 267.499 799.18 266.9C799.714 266.301 799.98 265.488 799.98 264.459C799.98 263.469 799.717 262.691 799.189 262.125C798.662 261.552 797.998 261.266 797.197 261.266C796.403 261.266 795.729 261.552 795.176 262.125C794.622 262.691 794.346 263.437 794.346 264.361ZM816.565 258.64C817.925 260.2 819.365 262.08 820.065 263.28L821.365 262.48C820.485 261.06 818.605 258.82 817.065 257.2L816.565 257.46V252.3H815.005V266.92H816.565V258.64ZM811.245 256.8C810.865 259.6 810.185 261.88 809.225 263.76C808.425 262.4 807.745 260.68 807.245 258.48C807.445 257.94 807.625 257.36 807.785 256.8H811.245ZM811.925 255.36L811.645 255.42H808.145C808.365 254.54 808.565 253.64 808.705 252.74L807.165 252.34C806.625 256.24 805.405 260 803.825 262.08C804.205 262.26 804.745 262.66 805.025 262.9C805.545 262.2 806.025 261.38 806.465 260.44C806.985 262.34 807.665 263.88 808.425 265.1C807.125 267.06 805.465 268.44 803.485 269.4C803.845 269.62 804.425 270.22 804.685 270.54C806.505 269.6 808.085 268.26 809.385 266.42C811.785 269.3 815.005 269.92 818.405 269.92H821.325C821.405 269.5 821.685 268.76 821.925 268.38C821.145 268.4 819.085 268.4 818.485 268.4C815.425 268.4 812.445 267.86 810.185 265.12C811.545 262.72 812.485 259.62 812.925 255.66L811.925 255.36ZM829.765 264.98L827.585 265.7V260.74H829.585V259.36H827.585V255.02H829.885V253.62H823.685V255.02H826.165V259.36H823.905V260.74H826.165V266.14C825.145 266.48 824.225 266.76 823.485 266.98L823.825 268.48C825.605 267.9 827.885 267.12 830.025 266.4L829.765 264.98ZM832.225 258.24H835.265V260.78H832.225V258.24ZM832.225 254.48H835.265V257H832.225V254.48ZM839.605 257H836.545V254.48H839.605V257ZM839.605 260.78H836.545V258.24H839.605V260.78ZM836.665 268.52V265.78H841.325V264.42H836.665V262.08H841.025V253.18H830.865V262.08H835.165V264.42H830.625V265.78H835.165V268.52H829.085V269.88H841.965V268.52H836.665ZM858.905 257.42H855.165V254.36H858.905V257.42ZM860.305 253.14H853.825V258.62H860.305V253.14ZM854.945 268.54V265.36H858.585V268.54H854.945ZM850.385 268.54H846.805V265.36H850.385V268.54ZM850.225 257.42H846.525V254.36H850.225V257.42ZM861.625 261.48V260.14H852.285C852.625 259.64 852.925 259.1 853.185 258.54L851.745 258.08L851.625 258.34V253.14H845.185V258.62H851.485C851.205 259.16 850.865 259.66 850.465 260.14H843.825V261.48H849.165C847.625 262.82 845.625 263.86 843.325 264.62C843.605 264.88 844.065 265.42 844.245 265.74C844.665 265.6 845.085 265.44 845.485 265.26V270.56H846.805V269.82H850.385V270.5H851.765V264.1H847.865C849.145 263.36 850.265 262.48 851.205 261.48H854.225C855.065 262.48 856.185 263.36 857.445 264.1H853.625V270.56H854.945V269.82H858.585V270.5H859.965V265.3C860.385 265.46 860.825 265.6 861.245 265.72C861.465 265.36 861.865 264.82 862.185 264.52C859.905 263.98 857.605 262.86 856.085 261.48H861.625ZM868.445 264.7H877.145V268.22H868.445V264.7ZM877.145 254.88V258.32H868.445V254.88H877.145ZM877.145 263.26H868.445V259.72H877.145V263.26ZM878.665 268.22V253.44H866.985V268.22H863.845V269.68H881.585V268.22H878.665ZM884.325 262.98H885.765V260.22H891.885V262.48H886.505V268.76H887.985V263.8H891.885V270.54H893.385V263.8H897.745V267.16C897.745 267.38 897.685 267.44 897.405 267.46C897.145 267.48 896.245 267.48 895.205 267.44C895.425 267.82 895.625 268.34 895.705 268.76C897.065 268.76 897.965 268.76 898.525 268.52C899.085 268.3 899.225 267.92 899.225 267.16V262.48H893.385V260.22H899.605V262.98H901.105V258.94H884.325V262.98ZM898.465 254.66V252.4H897.005V254.66H893.385V252.38H891.925V254.66H888.505V252.4H887.045V254.66H883.805V255.94H887.045V257.98H888.505V255.94H891.925V257.94H893.385V255.94H897.005V258.04H898.465V255.94H901.645V254.66H898.465ZM921.405 256.3V254.86H911.225C911.505 254.14 911.765 253.4 911.985 252.66L910.425 252.26C910.185 253.12 909.905 254 909.565 254.86H904.025V256.3H908.945C907.665 259.04 905.825 261.6 903.405 263.32C903.665 263.64 904.045 264.3 904.205 264.68C905.045 264.08 905.825 263.4 906.525 262.64V270.48H908.005V260.88C909.045 259.46 909.925 257.92 910.625 256.3H921.405ZM921.785 263.66H916.485V262.64C917.905 261.72 919.465 260.4 920.525 259.18L919.565 258.44L919.265 258.54H911.125V259.88H917.965C917.265 260.58 916.405 261.3 915.585 261.82H915.005V263.66H909.425V265.06H915.005V268.76C915.005 269.04 914.925 269.12 914.565 269.14C914.205 269.14 913.045 269.16 911.705 269.12C911.905 269.52 912.105 270.1 912.185 270.52C913.885 270.52 914.985 270.5 915.645 270.3C916.305 270.06 916.485 269.64 916.485 268.78V265.06H921.785V263.66ZM931.845 256.16C931.425 255.36 930.405 254.2 929.545 253.38L928.525 254.06C929.385 254.94 930.345 256.16 930.765 256.94L931.845 256.16ZM927.085 252.24C926.205 255.28 924.845 258.34 923.265 260.36C923.505 260.7 923.885 261.42 924.025 261.74C924.545 261.04 925.045 260.26 925.545 259.38V270.48H926.845V256.74C927.425 255.4 927.925 254 928.325 252.58L927.085 252.24ZM930.945 267.32V258.62H927.685V260.04H929.645V267.06C929.645 267.9 929.205 268.4 928.925 268.6C929.165 268.86 929.525 269.48 929.645 269.82C929.945 269.48 930.405 269.14 933.225 267.4C933.125 267.12 932.945 266.6 932.865 266.2L930.945 267.32ZM939.605 265H935.285V263H939.605V265ZM935.285 268.2V266.14H939.605V268.2H935.285ZM936.685 255.8H938.865C938.325 256.68 937.745 257.52 937.125 258.3H936.685V255.8ZM941.805 259.66V258.3H938.805C939.905 256.8 940.865 255.12 941.645 253.3L940.325 252.94C939.945 253.86 939.505 254.72 939.005 255.56V254.52H936.685V252.26H935.325V254.52H932.725V255.8H935.325V258.3H932.145V259.66H935.925C934.605 261.02 933.125 262.18 931.545 263.08C931.845 263.36 932.345 263.94 932.525 264.22C933.025 263.9 933.525 263.54 934.005 263.2V270.46H935.285V269.44H939.605V270.38H940.945V261.76H935.725C936.425 261.12 937.105 260.42 937.725 259.66H941.805ZM950.065 260.98H945.865V256.8H950.065V260.98ZM945.865 267.1V262.3H950.065V267.1H945.865ZM947.545 252.22C947.405 253.16 947.045 254.5 946.745 255.46H944.505V270.02H945.865V268.44H951.425V255.46H948.105C948.445 254.6 948.805 253.5 949.145 252.52L947.545 252.22ZM961.205 255.4H955.225C955.565 254.46 955.845 253.5 956.085 252.52L954.665 252.18C954.025 254.92 952.945 257.68 951.605 259.44C951.925 259.64 952.565 260.04 952.825 260.28C953.525 259.34 954.145 258.12 954.705 256.78H959.785C959.525 264.74 959.225 267.78 958.565 268.48C958.365 268.74 958.145 268.78 957.745 268.78C957.285 268.78 956.085 268.78 954.785 268.66C955.065 269.08 955.245 269.68 955.285 270.12C956.405 270.18 957.545 270.22 958.245 270.14C958.925 270.08 959.385 269.9 959.825 269.34C960.625 268.36 960.885 265.28 961.205 256.16V255.4ZM958.045 264.4C957.405 263.22 956.025 261.3 954.905 259.88L953.745 260.56C954.845 262 956.185 263.98 956.785 265.18L958.045 264.4ZM980.165 256.68C979.885 258.06 979.565 259.54 979.265 260.52L980.465 260.88C980.905 259.54 981.425 257.38 981.785 255.56L980.825 255.28L980.665 255.32H975.405C975.605 254.4 975.785 253.46 975.945 252.48L974.505 252.26C974.085 255.34 973.305 258.26 971.905 260.12C972.265 260.32 972.885 260.72 973.145 260.96C973.925 259.82 974.565 258.34 975.045 256.68H980.165ZM972.345 265.72L972.285 264.38L969.645 264.76V262.08H972.145V260.72H969.645V257.78H968.285V260.72H966.105C966.765 259.36 967.425 257.76 967.985 256.06H972.265V254.64H968.465C968.665 253.98 968.865 253.28 969.025 252.62L967.585 252.3C967.425 253.08 967.205 253.88 966.985 254.64H963.765V256.06H966.545C966.005 257.66 965.485 258.96 965.245 259.46C964.845 260.34 964.545 260.94 964.165 261.04C964.345 261.4 964.565 262.06 964.645 262.36C964.825 262.2 965.445 262.08 966.165 262.08H968.285V264.96C966.485 265.22 964.825 265.46 963.565 265.6L963.885 267.1C965.125 266.9 966.665 266.66 968.285 266.4V270.42H969.645V266.18L972.345 265.72ZM977.385 258.56H975.965V259.48C975.965 262.26 975.665 266.4 971.425 269.54C971.785 269.76 972.285 270.22 972.525 270.54C974.965 268.68 976.185 266.48 976.785 264.38C977.645 267.12 978.945 269.34 980.945 270.5C981.165 270.14 981.625 269.58 981.925 269.3C979.465 268 978.025 264.88 977.325 261.32C977.365 260.66 977.385 260.06 977.385 259.5V258.56ZM993.625 263.32C994.685 262.68 995.705 261.88 996.625 260.96C997.485 261.82 998.465 262.66 999.585 263.32H993.625ZM994.105 268.46V264.62H999.105V268.46H994.105ZM991.165 262.08H988.705V259.2H991.005V258.6C991.365 258.84 991.825 259.26 992.045 259.48C992.685 258.82 993.305 258.06 993.865 257.18C994.365 258.08 994.965 259.02 995.705 259.92C994.345 261.3 992.765 262.36 991.165 263.04V262.08ZM985.865 254.4H989.625V257.9H985.865V254.4ZM998.625 255.6C998.125 256.84 997.405 257.96 996.565 258.98C995.745 258 995.085 256.96 994.585 255.98L994.785 255.6H998.625ZM999.525 254.24L999.265 254.3H995.405C995.625 253.76 995.845 253.18 996.045 252.6L994.625 252.26C993.885 254.66 992.585 256.9 991.005 258.4V253.1H984.545V259.2H987.345V267.28L985.805 267.64V261.08H984.545V267.9L983.525 268.12L983.805 269.56C985.905 269.04 988.745 268.36 991.465 267.7L991.325 266.36C990.445 266.58 989.565 266.78 988.705 266.98V263.4H990.805C991.085 263.68 991.385 264.1 991.525 264.4C991.925 264.22 992.325 264.04 992.725 263.82V270.5H994.105V269.78H999.105V270.44H1000.53V263.84C1000.75 263.94 1000.97 264.04 1001.17 264.14C1001.37 263.76 1001.79 263.2 1002.09 262.92C1000.29 262.24 998.765 261.18 997.525 259.98C998.765 258.5 999.805 256.74 1000.45 254.66L999.525 254.24ZM1013.39 267.84V263.4H1018.89V267.84H1013.39ZM1006.53 263.4H1011.91V267.84H1006.53V263.4ZM1011.91 257.62V261.94H1006.53V257.62H1011.91ZM1018.89 257.62V261.94H1013.39V257.62H1018.89ZM1013.39 256.14V252.3H1011.91V256.14H1005.05V270.54H1006.53V269.3H1018.89V270.44H1020.39V256.14H1013.39ZM1030.09 260.66C1030.09 260.38 1030.09 260.1 1030.09 259.82V255H1035.65V260.66H1030.09ZM1041.61 260.66H1037.17V255H1040.99V253.58H1024.57V255H1028.59V259.8C1028.59 260.1 1028.59 260.36 1028.57 260.66H1023.83V262.1H1028.51C1028.23 264.8 1027.21 267.48 1023.89 269.52C1024.25 269.76 1024.79 270.28 1025.07 270.62C1028.73 268.32 1029.75 265.22 1030.03 262.1H1035.65V270.56H1037.17V262.1H1041.61V260.66ZM1059.87 255.38C1059.31 254.66 1058.15 253.42 1057.29 252.54L1056.15 253.26C1057.01 254.18 1058.13 255.44 1058.67 256.2L1059.87 255.38ZM1057.53 261.78C1056.81 263.4 1055.75 264.78 1054.47 265.9C1053.11 264.76 1052.03 263.36 1051.27 261.78H1057.53ZM1058.53 260.26L1058.25 260.34H1051.55C1051.79 259.66 1052.03 258.94 1052.25 258.22H1061.25L1061.27 256.78H1052.65C1052.97 255.42 1053.23 253.98 1053.45 252.44L1051.79 252.2C1051.61 253.82 1051.33 255.34 1050.95 256.78H1047.35C1047.87 255.74 1048.45 254.4 1048.79 253.12L1047.23 252.82C1046.87 254.34 1046.13 255.96 1045.89 256.36C1045.67 256.8 1045.45 257.08 1045.17 257.16C1045.33 257.5 1045.57 258.24 1045.67 258.56C1045.85 258.34 1046.53 258.22 1047.79 258.22H1050.57C1049.25 262.36 1047.05 265.62 1043.41 267.84C1043.77 268.1 1044.29 268.64 1044.51 268.98C1047.09 267.38 1048.97 265.34 1050.35 262.88C1051.15 264.38 1052.15 265.68 1053.33 266.78C1051.63 267.98 1049.63 268.82 1047.57 269.3C1047.83 269.62 1048.19 270.2 1048.35 270.58C1050.57 269.98 1052.67 269.06 1054.51 267.74C1056.29 269.08 1058.47 270.04 1061.01 270.6C1061.21 270.18 1061.61 269.58 1061.93 269.28C1059.49 268.82 1057.39 267.98 1055.65 266.8C1057.37 265.26 1058.71 263.28 1059.53 260.76L1058.53 260.26ZM1070.95 263.1C1070.55 262.56 1068.83 260.36 1068.21 259.66V257.92H1070.79V256.54H1068.21V252.26H1066.79V256.54H1063.81V257.92H1066.61C1065.97 260.66 1064.65 263.78 1063.35 265.46C1063.59 265.8 1063.95 266.4 1064.11 266.8C1065.11 265.48 1066.07 263.3 1066.79 261.06V270.5H1068.21V261.4C1068.89 262.38 1069.69 263.62 1070.03 264.28L1070.95 263.1ZM1079.67 259.96C1079.13 262.04 1078.27 263.86 1077.17 265.34C1076.07 263.8 1075.25 261.96 1074.67 259.96H1079.67ZM1080.43 258.56L1080.17 258.6H1073.25V254.86H1081.55V253.48H1071.81V259.06C1071.81 262.22 1071.59 266.52 1069.31 269.58C1069.63 269.74 1070.25 270.2 1070.49 270.46C1072.71 267.54 1073.17 263.24 1073.25 259.96H1073.35C1074.03 262.44 1074.99 264.64 1076.27 266.46C1075.09 267.74 1073.73 268.72 1072.27 269.32C1072.59 269.6 1073.01 270.16 1073.19 270.5C1074.63 269.8 1075.99 268.84 1077.17 267.58C1078.25 268.84 1079.55 269.86 1081.05 270.56C1081.27 270.18 1081.73 269.62 1082.05 269.32C1080.51 268.7 1079.19 267.72 1078.09 266.5C1079.59 264.54 1080.73 262 1081.33 258.84L1080.43 258.56Z" fill="white" fill-opacity="0.7"/>
<path d="M438.789 130.008L428.933 142.776V145.66H438.677V150H441.589V145.66H444.613V143.224H441.589V130.008H438.789ZM438.593 133.872H438.677V143.224H431.425L438.593 133.872ZM452.778 139.332C453.45 140.424 454.262 141.796 455.186 143.42L456.67 141.152C455.354 139.388 454.066 137.792 452.778 136.364V134.852H455.858V132.304H452.778V127.068H450.23V132.304H446.59V134.852H450.09C449.25 138.212 447.934 141.236 446.086 143.868L447.178 146.612C448.41 144.596 449.418 142.356 450.23 139.948V152.884H452.778V139.332ZM456.39 129.896V132.332H461.318C459.722 135.048 458.434 136.728 457.426 137.372C457.314 137.456 457.146 137.54 456.922 137.596L457.454 139.752C459.442 139.668 461.346 139.584 463.138 139.472C460.982 141.712 458.35 143.392 455.242 144.484L456.698 146.696C462.102 144.68 466.19 140.9 468.99 135.328L466.834 134.18C466.274 135.244 465.658 136.252 464.986 137.232C463.474 137.372 461.962 137.484 460.45 137.54C461.486 136.448 462.69 134.712 464.062 132.332H471.734V129.896H465.63C465.294 128.832 464.93 127.852 464.538 127.012L461.822 127.46C462.27 128.188 462.662 129 463.026 129.896H456.39ZM465.462 147.508C467.394 149.384 468.934 151.176 470.082 152.856L472.042 150.896C470.67 149.216 469.018 147.564 467.114 145.884C468.85 144.036 470.362 141.88 471.65 139.472L469.438 138.324C466.19 144.372 461.346 148.432 454.85 150.56L456.306 152.828C459.778 151.596 462.83 149.832 465.462 147.508ZM484.446 130.008V150H487.498V141.74H492.902C494.05 141.74 494.918 141.964 495.534 142.468C496.122 142.972 496.486 143.756 496.598 144.876L496.85 147.368C496.962 148.488 497.242 149.384 497.718 150H501.022C500.35 149.272 499.958 148.292 499.846 147.06L499.51 143.868C499.286 141.908 498.306 140.732 496.514 140.34V140.284C497.606 140.004 498.474 139.416 499.118 138.52C499.678 137.708 499.958 136.784 499.958 135.72C499.958 133.816 499.342 132.388 498.11 131.38C496.934 130.456 495.31 130.008 493.294 130.008H484.446ZM487.498 132.612H492.874C494.274 132.612 495.282 132.864 495.954 133.396C496.57 133.9 496.906 134.712 496.906 135.832C496.906 136.896 496.57 137.708 495.926 138.268C495.254 138.828 494.246 139.136 492.902 139.136H487.498V132.612ZM502.293 130.008V132.612H508.985V150H512.009V132.612H518.673V130.008H502.293ZM521.087 130.008V150H528.311C531.531 150 533.967 149.104 535.647 147.312C537.243 145.576 538.055 143.14 538.055 140.004C538.055 136.84 537.271 134.404 535.703 132.724C534.023 130.904 531.587 130.008 528.367 130.008H521.087ZM524.139 132.612H527.807C530.327 132.612 532.175 133.2 533.351 134.404C534.471 135.58 535.059 137.428 535.059 140.004C535.059 142.524 534.471 144.372 533.323 145.576C532.147 146.78 530.271 147.396 527.751 147.396H524.139V132.612ZM545.693 130.008C545.021 130.736 544.181 131.38 543.173 131.996C542.165 132.556 541.241 132.948 540.345 133.172V136.196C542.193 135.664 543.733 134.824 544.937 133.676V150H547.989V130.008H545.693ZM559.335 129.616C557.207 129.616 555.471 130.316 554.183 131.772C552.923 133.116 552.279 134.908 552.251 137.148H555.303C555.359 135.524 555.695 134.32 556.367 133.48C557.011 132.612 557.963 132.192 559.223 132.192C560.399 132.192 561.323 132.472 561.939 133.032C562.555 133.592 562.863 134.432 562.863 135.552C562.863 136.728 562.387 137.82 561.491 138.828C560.931 139.416 559.979 140.172 558.635 141.124C556.367 142.692 554.855 143.896 554.127 144.764C552.783 146.276 552.139 148.012 552.139 150H565.915V147.312H555.919C556.339 146.22 557.627 144.96 559.783 143.532C561.771 142.188 563.143 141.124 563.927 140.312C565.215 138.884 565.887 137.316 565.887 135.58C565.887 133.816 565.271 132.388 564.067 131.268C562.835 130.148 561.239 129.616 559.335 129.616ZM575.592 129.616C573.604 129.616 571.952 130.26 570.608 131.576C569.264 132.864 568.62 134.488 568.62 136.504C568.62 138.464 569.18 140.06 570.328 141.292C571.504 142.552 573.1 143.196 575.06 143.196C576.096 143.196 577.02 142.972 577.832 142.58C578.672 142.132 579.4 141.488 579.96 140.62H580.072C580.072 140.76 580.1 140.872 580.1 140.984C580.1 142.916 579.68 144.54 578.896 145.828C578.056 147.172 576.964 147.872 575.592 147.872C573.576 147.872 572.344 146.892 571.952 144.96H568.984C569.488 148.572 571.672 150.392 575.564 150.392C577.86 150.392 579.68 149.356 581.052 147.34C582.368 145.324 583.04 142.692 583.04 139.444C583.04 136.364 582.396 133.984 581.164 132.276C579.876 130.484 578.028 129.616 575.592 129.616ZM575.704 132.136C576.88 132.136 577.86 132.528 578.616 133.312C579.344 134.068 579.736 135.104 579.736 136.42C579.736 137.708 579.372 138.772 578.644 139.556C577.916 140.34 576.908 140.732 575.676 140.732C574.416 140.732 573.436 140.34 572.736 139.556C571.98 138.8 571.616 137.792 571.616 136.504C571.616 135.216 571.98 134.18 572.736 133.368C573.464 132.528 574.472 132.136 575.704 132.136ZM592.885 129.616C590.589 129.616 588.741 130.624 587.397 132.668C586.053 134.684 585.409 137.316 585.409 140.564C585.409 143.616 586.025 145.996 587.257 147.704C588.545 149.496 590.393 150.392 592.857 150.392C594.817 150.392 596.497 149.72 597.841 148.432C599.157 147.144 599.829 145.492 599.829 143.504C599.829 141.544 599.241 139.92 598.093 138.66C596.917 137.428 595.349 136.812 593.389 136.812C592.325 136.812 591.401 137.008 590.617 137.428C589.749 137.848 589.049 138.492 588.489 139.388H588.377C588.349 139.22 588.349 139.108 588.349 139.024C588.349 137.064 588.741 135.468 589.553 134.18C590.365 132.808 591.457 132.136 592.857 132.136C594.873 132.136 596.077 133.088 596.497 135.048H599.465C598.961 131.408 596.749 129.616 592.885 129.616ZM592.773 139.276C594.005 139.276 595.013 139.668 595.741 140.452C596.469 141.18 596.833 142.216 596.833 143.504C596.833 144.764 596.441 145.8 595.685 146.64C594.957 147.452 593.977 147.872 592.745 147.872C591.541 147.872 590.561 147.48 589.833 146.696C589.077 145.912 588.713 144.876 588.713 143.588C588.713 142.272 589.077 141.236 589.805 140.452C590.533 139.668 591.513 139.276 592.773 139.276ZM617.318 137.792C616.702 137.792 616.226 137.988 615.834 138.436C615.386 138.828 615.19 139.304 615.19 139.92C615.19 140.48 615.386 140.984 615.834 141.404C616.226 141.824 616.702 142.048 617.318 142.048C617.906 142.048 618.41 141.824 618.802 141.404C619.222 140.984 619.446 140.48 619.446 139.92C619.446 139.304 619.222 138.828 618.802 138.436C618.41 137.988 617.906 137.792 617.318 137.792ZM635.603 130.008V150H642.827C646.047 150 648.483 149.104 650.163 147.312C651.759 145.576 652.571 143.14 652.571 140.004C652.571 136.84 651.787 134.404 650.219 132.724C648.539 130.904 646.103 130.008 642.883 130.008H635.603ZM638.655 132.612H642.323C644.843 132.612 646.691 133.2 647.867 134.404C648.987 135.58 649.575 137.428 649.575 140.004C649.575 142.524 648.987 144.372 647.839 145.576C646.663 146.78 644.787 147.396 642.267 147.396H638.655V132.612ZM655.673 130.008V150H662.897C666.117 150 668.553 149.104 670.233 147.312C671.829 145.576 672.641 143.14 672.641 140.004C672.641 136.84 671.857 134.404 670.289 132.724C668.609 130.904 666.173 130.008 662.953 130.008H655.673ZM658.725 132.612H662.393C664.913 132.612 666.761 133.2 667.937 134.404C669.057 135.58 669.645 137.428 669.645 140.004C669.645 142.524 669.057 144.372 667.909 145.576C666.733 146.78 664.857 147.396 662.337 147.396H658.725V132.612ZM675.743 130.008V150H678.795V141.74H684.199C685.347 141.74 686.215 141.964 686.831 142.468C687.419 142.972 687.783 143.756 687.895 144.876L688.147 147.368C688.259 148.488 688.539 149.384 689.015 150H692.319C691.647 149.272 691.255 148.292 691.143 147.06L690.807 143.868C690.583 141.908 689.603 140.732 687.811 140.34V140.284C688.903 140.004 689.771 139.416 690.415 138.52C690.975 137.708 691.255 136.784 691.255 135.72C691.255 133.816 690.639 132.388 689.407 131.38C688.231 130.456 686.607 130.008 684.591 130.008H675.743ZM678.795 132.612H684.171C685.571 132.612 686.579 132.864 687.251 133.396C687.867 133.9 688.203 134.712 688.203 135.832C688.203 136.896 687.867 137.708 687.223 138.268C686.551 138.828 685.543 139.136 684.199 139.136H678.795V132.612ZM703.586 130.008L693.73 142.776V145.66H703.474V150H706.386V145.66H709.41V143.224H706.386V130.008H703.586ZM703.39 133.872H703.474V143.224H696.222L703.39 133.872ZM729.699 130.008L719.843 142.776V145.66H729.587V150H732.499V145.66H735.523V143.224H732.499V130.008H729.699ZM729.503 133.872H729.587V143.224H722.335L729.503 133.872ZM746.684 129.616C743.744 129.616 741.392 130.624 739.656 132.696C738.004 134.628 737.192 137.092 737.192 140.088C737.192 143.056 738.004 145.492 739.656 147.368C741.42 149.384 743.884 150.392 747.076 150.392C748.812 150.392 750.408 150.168 751.864 149.72C753.236 149.272 754.44 148.656 755.476 147.844V139.444H746.908V142.048H752.424V146.388C751.752 146.808 751.024 147.144 750.184 147.368C749.316 147.592 748.392 147.732 747.412 147.732C744.92 147.732 743.072 147.032 741.896 145.632C740.776 144.344 740.244 142.496 740.244 140.088C740.244 137.624 740.832 135.692 742.064 134.292C743.212 132.948 744.752 132.304 746.684 132.304C748.252 132.304 749.54 132.64 750.492 133.34C751.444 134.012 752.06 135.02 752.34 136.364H755.42C755.056 134.124 754.16 132.472 752.732 131.352C751.248 130.176 749.232 129.616 746.684 129.616ZM759.142 130.008V150H768.27C770.398 150 772.05 149.608 773.226 148.824C774.598 147.872 775.298 146.416 775.298 144.4C775.298 143.056 774.962 141.964 774.29 141.152C773.618 140.34 772.61 139.808 771.294 139.556C772.302 139.192 773.058 138.632 773.618 137.904C774.178 137.12 774.458 136.168 774.458 135.048C774.458 133.508 773.926 132.304 772.862 131.408C771.742 130.456 770.23 130.008 768.27 130.008H759.142ZM762.194 132.528H767.514C768.858 132.528 769.866 132.752 770.482 133.228C771.098 133.676 771.406 134.404 771.406 135.412C771.406 136.476 771.098 137.26 770.482 137.764C769.866 138.24 768.858 138.492 767.458 138.492H762.194V132.528ZM762.194 140.984H767.934C769.39 140.984 770.482 141.236 771.182 141.768C771.882 142.3 772.246 143.168 772.246 144.344C772.246 145.492 771.77 146.332 770.874 146.864C770.146 147.256 769.138 147.48 767.85 147.48H762.194V140.984ZM792.729 137.792C792.113 137.792 791.637 137.988 791.245 138.436C790.797 138.828 790.601 139.304 790.601 139.92C790.601 140.48 790.797 140.984 791.245 141.404C791.637 141.824 792.113 142.048 792.729 142.048C793.317 142.048 793.821 141.824 794.213 141.404C794.633 140.984 794.857 140.48 794.857 139.92C794.857 139.304 794.633 138.828 794.213 138.436C793.821 137.988 793.317 137.792 792.729 137.792ZM816.865 135.132C814.737 135.132 813.029 135.86 811.797 137.344C810.509 138.8 809.893 140.592 809.893 142.748C809.893 145.128 810.565 147.004 811.909 148.404C813.141 149.72 814.849 150.392 816.977 150.392C818.909 150.392 820.505 149.832 821.765 148.74C822.773 147.844 823.417 146.696 823.753 145.352H820.785C820.393 146.192 819.973 146.836 819.469 147.228C818.825 147.704 817.985 147.956 816.949 147.956C815.773 147.956 814.849 147.564 814.177 146.836C813.505 146.08 813.141 144.988 813.029 143.588H824.005C823.977 141.012 823.389 138.996 822.269 137.54C821.037 135.916 819.217 135.132 816.865 135.132ZM816.949 137.568C819.301 137.568 820.617 138.828 820.897 141.348H813.085C813.253 140.116 813.673 139.192 814.289 138.548C814.961 137.876 815.829 137.568 816.949 137.568ZM826.817 130.008V150H829.869V135.72H829.981L836.113 150H838.745L844.877 135.72H844.989V150H848.041V130.008H844.429L837.485 146.024H837.401L830.429 130.008H826.817ZM851.974 130.008V150H855.026V135.72H855.138L861.27 150H863.902L870.034 135.72H870.146V150H873.198V130.008H869.586L862.642 146.024H862.558L855.586 130.008H851.974ZM885.81 129.616C882.618 129.616 880.21 130.652 878.53 132.78C877.018 134.656 876.29 137.064 876.29 140.032C876.29 143.056 876.99 145.464 878.446 147.256C880.098 149.328 882.562 150.392 885.838 150.392C887.994 150.392 889.842 149.776 891.382 148.544C893.034 147.228 894.07 145.408 894.518 143.084H891.55C891.158 144.652 890.458 145.828 889.45 146.612C888.498 147.34 887.266 147.704 885.81 147.704C883.57 147.704 881.918 147.004 880.854 145.604C879.846 144.288 879.342 142.44 879.342 140.032C879.342 137.708 879.846 135.86 880.882 134.516C881.974 133.032 883.598 132.304 885.754 132.304C887.21 132.304 888.386 132.612 889.338 133.256C890.29 133.9 890.934 134.908 891.27 136.252H894.238C893.93 134.236 893.034 132.612 891.578 131.436C890.066 130.204 888.134 129.616 885.81 129.616ZM907.635 130.008L906.543 141.208H909.399C909.791 140.48 910.323 139.948 911.051 139.612C911.723 139.276 912.479 139.136 913.375 139.136C914.719 139.136 915.727 139.528 916.455 140.312C917.183 141.096 917.547 142.188 917.547 143.588C917.547 144.876 917.127 145.884 916.287 146.668C915.447 147.424 914.411 147.816 913.179 147.816C912.059 147.816 911.163 147.564 910.491 147.06C909.735 146.5 909.287 145.632 909.175 144.512H906.179C906.319 146.36 907.103 147.844 908.531 148.908C909.819 149.888 911.359 150.392 913.151 150.392C915.139 150.392 916.847 149.804 918.275 148.628C919.787 147.312 920.571 145.632 920.571 143.56C920.571 141.404 919.955 139.724 918.779 138.492C917.603 137.26 916.063 136.644 914.187 136.644C913.291 136.644 912.451 136.784 911.723 137.092C910.911 137.372 910.211 137.82 909.595 138.464H909.511L910.099 132.696H919.675V130.008H907.635ZM925.572 145.996C924.956 145.996 924.48 146.192 924.116 146.584C923.696 146.976 923.5 147.48 923.5 148.096C923.5 148.656 923.696 149.16 924.116 149.58C924.48 149.944 924.956 150.14 925.572 150.14C926.132 150.14 926.636 149.944 927.056 149.58C927.448 149.16 927.672 148.656 927.672 148.096C927.672 147.48 927.448 146.976 927.056 146.584C926.636 146.192 926.132 145.996 925.572 145.996ZM937.793 129.616C935.441 129.616 933.621 130.596 932.333 132.584C931.157 134.404 930.569 136.868 930.569 140.004C930.569 143.112 931.157 145.576 932.333 147.424C933.621 149.384 935.441 150.392 937.793 150.392C940.145 150.392 941.965 149.384 943.253 147.424C944.429 145.576 945.017 143.084 945.017 140.004C945.017 136.896 944.429 134.432 943.253 132.584C941.965 130.596 940.145 129.616 937.793 129.616ZM937.793 132.192C939.417 132.192 940.593 133.088 941.265 134.908C941.741 136.14 941.993 137.848 941.993 140.004C941.993 142.132 941.741 143.84 941.265 145.1C940.593 146.892 939.417 147.816 937.793 147.816C936.141 147.816 934.993 146.892 934.321 145.1C933.817 143.84 933.593 142.132 933.593 140.004C933.593 137.848 933.817 136.14 934.321 134.908C934.993 133.088 936.141 132.192 937.793 132.192ZM963.906 129.616C961.778 129.616 960.07 130.176 958.838 131.296C957.718 132.304 957.158 133.564 957.158 135.048C957.158 136.084 957.382 136.952 957.83 137.652C958.334 138.408 959.09 138.968 960.098 139.36V139.444C959.118 139.668 958.306 140.228 957.634 141.124C956.85 142.076 956.458 143.168 956.458 144.428C956.458 146.192 957.102 147.62 958.39 148.74C959.678 149.832 961.526 150.392 963.906 150.392C966.258 150.392 968.106 149.832 969.422 148.74C970.71 147.62 971.354 146.192 971.354 144.428C971.354 143.168 970.962 142.076 970.178 141.124C969.506 140.228 968.666 139.668 967.714 139.444V139.36C968.722 138.968 969.478 138.408 969.982 137.652C970.43 136.952 970.654 136.084 970.654 135.048C970.654 133.564 970.094 132.304 968.974 131.296C967.714 130.176 966.034 129.616 963.906 129.616ZM963.906 132.052C965.138 132.052 966.118 132.36 966.846 133.032C967.462 133.592 967.798 134.32 967.798 135.16C967.798 136.112 967.518 136.868 967.014 137.428C966.342 138.1 965.306 138.436 963.906 138.436C962.478 138.436 961.442 138.1 960.798 137.428C960.266 136.868 960.014 136.112 960.014 135.16C960.014 134.32 960.322 133.592 960.966 133.032C961.694 132.36 962.674 132.052 963.906 132.052ZM963.906 140.704C965.362 140.704 966.454 141.068 967.238 141.796C967.966 142.44 968.33 143.308 968.33 144.428C968.33 145.464 967.966 146.304 967.238 146.948C966.426 147.592 965.306 147.928 963.906 147.928C962.478 147.928 961.386 147.592 960.63 146.948C959.846 146.304 959.482 145.464 959.482 144.428C959.482 143.308 959.846 142.44 960.602 141.768C961.33 141.04 962.45 140.704 963.906 140.704ZM982.907 129.616C979.967 129.616 977.615 130.624 975.879 132.696C974.227 134.628 973.415 137.092 973.415 140.088C973.415 143.056 974.227 145.492 975.879 147.368C977.643 149.384 980.107 150.392 983.299 150.392C985.035 150.392 986.631 150.168 988.087 149.72C989.459 149.272 990.663 148.656 991.699 147.844V139.444H983.131V142.048H988.647V146.388C987.975 146.808 987.247 147.144 986.407 147.368C985.539 147.592 984.615 147.732 983.635 147.732C981.143 147.732 979.295 147.032 978.119 145.632C976.999 144.344 976.467 142.496 976.467 140.088C976.467 137.624 977.055 135.692 978.287 134.292C979.435 132.948 980.975 132.304 982.907 132.304C984.475 132.304 985.763 132.64 986.715 133.34C987.667 134.012 988.283 135.02 988.563 136.364H991.643C991.279 134.124 990.383 132.472 988.955 131.352C987.471 130.176 985.455 129.616 982.907 129.616ZM995.364 130.008V150H1004.49C1006.62 150 1008.27 149.608 1009.45 148.824C1010.82 147.872 1011.52 146.416 1011.52 144.4C1011.52 143.056 1011.18 141.964 1010.51 141.152C1009.84 140.34 1008.83 139.808 1007.52 139.556C1008.52 139.192 1009.28 138.632 1009.84 137.904C1010.4 137.12 1010.68 136.168 1010.68 135.048C1010.68 133.508 1010.15 132.304 1009.08 131.408C1007.96 130.456 1006.45 130.008 1004.49 130.008H995.364ZM998.416 132.528H1003.74C1005.08 132.528 1006.09 132.752 1006.7 133.228C1007.32 133.676 1007.63 134.404 1007.63 135.412C1007.63 136.476 1007.32 137.26 1006.7 137.764C1006.09 138.24 1005.08 138.492 1003.68 138.492H998.416V132.528ZM998.416 140.984H1004.16C1005.61 140.984 1006.7 141.236 1007.4 141.768C1008.1 142.3 1008.47 143.168 1008.47 144.344C1008.47 145.492 1007.99 146.332 1007.1 146.864C1006.37 147.256 1005.36 147.48 1004.07 147.48H998.416V140.984Z" fill="#FFCD1E"/>
<defs>
<linearGradient id="paint0_linear" x1="720" y1="0" x2="720" y2="600" gradientUnits="userSpaceOnUse">
<stop stop-opacity="0.84"/>
<stop offset="1"/>
</linearGradient>
</defs>
</svg>
