<?xml version="1.0" encoding="UTF-8" standalone="no"?>
<svg
   width="1440"
   height="600"
   viewBox="0 0 1440 600"
   fill="none"
   version="1.1"
   id="svg2770"
   sodipodi:docname="banner1_bg.svg"
   inkscape:version="1.1 (c4e8f9e, 2021-05-24)"
   xmlns:inkscape="http://www.inkscape.org/namespaces/inkscape"
   xmlns:sodipodi="http://sodipodi.sourceforge.net/DTD/sodipodi-0.dtd"
   xmlns="http://www.w3.org/2000/svg"
   xmlns:svg="http://www.w3.org/2000/svg">
  <sodipodi:namedview
     id="namedview2772"
     pagecolor="#ffffff"
     bordercolor="#666666"
     borderopacity="1.0"
     inkscape:pageshadow="2"
     inkscape:pageopacity="0.0"
     inkscape:pagecheckerboard="0"
     showgrid="false"
     inkscape:zoom="0.80416667"
     inkscape:cx="719.37824"
     inkscape:cy="300.31088"
     inkscape:window-width="1327"
     inkscape:window-height="793"
     inkscape:window-x="0"
     inkscape:window-y="23"
     inkscape:window-maximized="0"
     inkscape:current-layer="g2724" />
  <g
     clip-path="url(#clip0)"
     id="g2724">
    <rect
       width="1440"
       height="600"
       fill="white"
       id="rect2700" />
    <rect
       width="1440"
       height="600"
       fill="url(#paint0_linear)"
       id="rect2702" />
    <g
       filter="url(#filter0_f)"
       id="g2706">
      <path
         d="M507 551L579.914 495H859.583L930 551H507Z"
         fill="url(#paint1_radial)"
         fill-opacity="0.2"
         id="path2704" />
    </g>
    <g
       filter="url(#filter1_f)"
       id="g2712">
      <path
         d="M505 562L537.406 523H661.704L693 562H505Z"
         fill="url(#paint2_radial)"
         fill-opacity="0.31"
         id="path2710" />
    </g>
    <path
       d="M363.751 152.1C361.001 155.3 356.851 157.95 351.301 160.1L353.901 164.3C356.951 162.9 359.701 161.3 362.101 159.5H368.601C365.451 163.15 360.551 166.15 353.901 168.55L356.951 172.25C364.651 169.15 370.201 164.9 373.701 159.5H379.101C375.301 166.6 369.201 171.5 360.851 174.1L363.551 178.05C372.851 175.05 379.651 168.85 383.951 159.5H387.851C387.651 165.3 387.151 169.05 386.451 170.85C385.751 172.55 384.251 173.4 382.001 173.4C380.101 173.4 378.151 173.3 376.101 173.2L377.351 177.65H384.301C386.701 177.55 388.401 176.85 389.451 175.55C390.501 174.25 391.251 171.9 391.751 168.6C392.201 165.2 392.501 160.8 392.651 155.3H366.751C367.651 154.3 368.501 153.2 369.251 152.1H388.901V133.6H357.551V152.1H363.751ZM384.251 148.1H362.201V144.7H384.251V148.1ZM362.201 140.95V137.65H384.251V140.95H362.201ZM416.201 150.65H434.901V155.05H416.201V150.65ZM434.901 159.2V163.5H416.201V159.2H434.901ZM434.901 167.6V172.15C434.901 173.25 434.251 173.8 433.051 173.8C431.401 173.8 429.651 173.7 427.801 173.55L428.951 177.85H434.551C437.751 177.75 439.351 176.35 439.351 173.6V146.55H416.551C417.501 145 418.401 143.4 419.201 141.75H445.401V137.15H421.251C421.851 135.6 422.401 133.95 422.901 132.25L418.051 131.7C417.451 133.5 416.801 135.35 416.051 137.15H401.401V141.75H413.751C410.451 147.65 405.851 152.95 400.051 157.55L403.101 161.55C406.301 158.95 409.151 156.15 411.751 153.1V178.05H416.201V167.6H434.901ZM455.401 134.55V139.15H491.301V134.55H455.401ZM450.601 148.35V153.1H466.751C461.801 163 457.801 169.1 454.751 171.4C454.501 171.55 454.101 171.7 453.601 171.85L454.851 176.7C466.651 175.9 477.551 174.8 487.601 173.4C488.501 175.1 489.301 176.8 490.101 178.5L494.351 175.55C491.851 170.55 488.351 164.65 483.801 157.9L480.001 160.25C481.901 163.25 483.651 166.2 485.251 169.05C477.151 170.2 468.951 171.05 460.751 171.55C464.001 167.85 467.751 161.7 472.051 153.1H495.751V148.35H450.601ZM545.601 158.7L541.651 159.35V132.2H536.851V160.1L521.101 162.65L521.801 167.25L536.851 164.85V178H541.651V164.05L546.351 163.3L545.601 158.7ZM526.651 134.75L523.301 138C527.051 140.6 529.951 143 532.051 145.3L535.301 142C532.951 139.6 530.051 137.15 526.651 134.75ZM525.151 146.25L521.801 149.5C525.601 152.3 528.501 154.85 530.601 157.2L534.001 153.85C531.601 151.3 528.651 148.75 525.151 146.25ZM501.101 145.1V149.65H508.351C506.501 154.7 503.551 159.2 499.551 163.2L501.651 168.5C504.651 164.9 507.051 160.85 508.901 156.45V178H513.701V156.15C515.201 157.75 517.001 159.9 519.151 162.55L521.801 158.5C519.051 155.9 516.351 153.6 513.701 151.6V149.65H520.101V145.1H513.701V138.1C515.901 137.7 518.051 137.2 520.101 136.65L518.451 132.2C513.351 133.7 507.601 134.7 501.151 135.2L502.051 139.65C504.351 139.45 506.651 139.15 508.901 138.85V145.1H501.101ZM556.101 177.6C559.301 177.6 560.901 175.9 560.901 172.6V158.85C562.601 158.05 564.251 157.25 565.901 156.35V151.7C564.251 152.6 562.601 153.45 560.901 154.25V145.35H565.801V140.8H560.901V132.05H556.301V140.8H550.651V145.35H556.301V156.15C554.101 156.95 551.901 157.6 549.651 158.1L550.851 162.8C552.651 162.2 554.501 161.5 556.301 160.8V171.4C556.301 172.75 555.701 173.45 554.501 173.45C553.351 173.45 552.151 173.35 550.851 173.15L551.851 177.6H556.101ZM567.201 138.85V143.4H578.901V150.55H568.201V155H570.801C572.151 159.9 574.751 164.25 578.651 168.15C575.201 170.75 570.951 172.8 565.951 174.4L568.201 178.35C573.601 176.45 578.201 174.05 582.001 171.1C585.301 173.7 589.351 176.1 594.151 178.2L596.601 174.3C592.151 172.55 588.351 170.5 585.251 168.2C589.051 164.45 591.701 159.95 593.301 154.75V150.55H583.501V143.4H595.201V138.85H583.501V132.15H578.901V138.85H567.201ZM575.251 155H588.651C587.151 158.95 584.901 162.4 581.901 165.4C578.651 162.35 576.451 158.9 575.251 155Z"
       fill="#0060FF"
       id="path2716" />
    <path
       d="M617.801 130V180H622.201V130H617.801Z"
       fill="#CECECE"
       id="path2718" />
    <path
       d="M653.749 145.95V153.1H649.649C650.949 150 652.149 146.4 653.249 142.35H663.549V137.8H654.399C654.799 136.1 655.149 134.35 655.549 132.55L651.149 131.9C650.749 133.95 650.299 135.9 649.899 137.8H644.149V142.35H648.799C647.599 146.8 646.249 150.45 644.849 153.3L645.849 157.55H653.749V164.4C650.749 164.9 647.599 165.3 644.249 165.7L644.849 170.3C647.949 169.9 650.899 169.45 653.749 168.95V177.95H658.349V168.05C660.499 167.55 662.599 167.05 664.599 166.55V162.25C662.599 162.7 660.549 163.15 658.349 163.6V157.55H663.299V153.1H658.349V145.95H653.749ZM673.699 161.95V171.95H662.299V176.5H689.499V171.95H678.349V161.95H687.299V157.4H665.299V161.95H673.699ZM677.749 148.75C681.449 151.25 684.349 153.65 686.549 155.9L689.849 152.55C687.349 150.25 684.299 147.95 680.749 145.65C682.599 143.4 684.099 140.9 685.199 138.1V134.35H665.299V138.9H679.749C676.649 144.5 671.149 148.85 663.149 152L666.099 155.9C670.699 153.95 674.549 151.55 677.749 148.75ZM718.899 132.8C717.199 141.15 714.649 147.8 711.199 152.8L714.849 155.95C718.349 151 721.149 143.85 723.299 134.55L718.899 132.8ZM731.749 159.75L727.399 161.2C728.699 163.8 729.949 166.7 731.149 169.8C727.199 170.75 723.099 171.45 718.899 171.9C721.899 166.2 724.899 159.2 727.799 150.8L723.099 149.2C718.549 163.5 714.999 171.2 712.499 172.4L713.399 176.95C720.399 176.25 726.849 175.25 732.649 173.9C733.149 175.35 733.649 176.85 734.149 178.45L738.599 176.45C736.649 170.55 734.349 164.95 731.749 159.75ZM706.099 154.35C707.299 156.3 708.699 158.75 710.299 161.7L713.149 157.5C710.749 154.3 708.399 151.45 706.099 148.9V145.95H711.699V141.4H706.099V132.05H701.449V141.4H694.549V145.95H701.399C699.799 151.8 697.199 157 693.649 161.55L695.699 166.8C697.999 163.3 699.899 159.4 701.449 155.2V177.95H706.099V154.35ZM731.599 132.3L727.649 134.5C729.449 143.3 732.549 150.5 736.999 156.1L740.249 152.3C736.099 147.1 733.199 140.45 731.599 132.3ZM750.149 177.7C753.449 177.7 755.149 175.9 755.149 172.3V158.4C756.199 157.9 757.249 157.4 758.349 156.9L759.849 159.25C761.899 158.2 763.849 157 765.699 155.6V157.35H781.899V155.4C783.599 156.65 785.599 157.85 787.799 159L790.349 155.15C783.449 151.75 778.599 147.75 775.749 143.2H771.749C768.749 147.75 764.549 151.55 759.249 154.55V151.9C757.899 152.6 756.549 153.3 755.149 153.9V145.35H759.349V140.8H755.149V132.25H750.549V140.8H744.499V145.35H750.549V155.7C748.249 156.5 745.949 157.15 743.549 157.7L744.749 162.25C746.699 161.65 748.649 160.95 750.549 160.25V171.15C750.549 172.75 749.849 173.55 748.549 173.55C747.349 173.55 746.049 173.45 744.649 173.25L745.649 177.7H750.149ZM759.549 135.7V140.05H765.499V143.85H770.049V140.05H777.199V143.65H781.799V140.05H788.249V135.7H781.799V132.2H777.199V135.7H770.049V132.2H765.499V135.7H759.549ZM779.349 153.4H768.299C770.249 151.6 772.049 149.5 773.749 147.15C775.199 149.35 777.049 151.45 779.349 153.4ZM784.799 160.75H762.499V177.95H767.099V175.7H780.299V177.95H784.799V160.75ZM767.099 171.45V165H780.299V171.45H767.099ZM836.049 153.05V146H839.049V142.15H836.049V135.25H825.449V131.9H820.849V135.25H812.499V139.15H820.849V142.15H810.049V146H820.849V149.1H812.499V153.05H820.849V156.1H811.449V160H820.849V163.1H809.899V167.05H820.849V171.1H825.449V167.05H838.199V163.1H825.449V160H836.749V156.1H825.449V153.05H836.049ZM825.449 139.15H831.499V142.15H825.449V139.15ZM825.449 146H831.499V149.1H825.449V146ZM822.099 172.8C815.549 172.7 810.649 171.75 807.399 169.95C806.699 169.55 806.049 169.05 805.449 168.45C807.749 163.85 808.999 158.35 809.199 151.95V149.1H801.949C804.149 145.95 806.349 142.3 808.599 138.1V134.2H795.849V138.7H803.299C800.999 142.6 798.549 146.3 795.849 149.8V153.4H804.849C804.549 157.4 803.749 161 802.399 164.15C801.299 162.1 800.349 159.55 799.499 156.55L795.499 158C796.699 162.1 798.199 165.55 800.049 168.35C798.599 170.45 796.799 172.25 794.599 173.75L797.699 177.8C799.799 176.15 801.649 174.25 803.249 172.05C803.549 172.35 803.949 172.7 804.449 173.05C808.399 175.65 814.949 177 824.149 177H838.799L839.599 172.45C833.599 172.65 827.749 172.8 822.099 172.8ZM849.599 151.8V178.15H854.349V144.95C856.449 141.45 858.099 137.7 859.399 133.8L854.949 131.7C852.499 139.4 848.649 146.15 843.449 151.95L844.999 157C846.599 155.3 848.149 153.6 849.599 151.8ZM883.249 151.9L879.049 153.3C881.349 158.9 883.449 165.3 885.349 172.55L889.499 170.65C887.749 164 885.649 157.75 883.249 151.9ZM865.599 142.3H883.349C882.649 144.6 881.749 146.7 880.749 148.5L885.299 149.8C886.499 146.8 887.449 143.8 888.249 140.8V137.7H867.249C867.749 136.2 868.199 134.6 868.649 132.95L864.199 132C862.649 138.4 859.999 144.35 856.249 149.9L860.349 152.45C862.349 149.35 864.099 146 865.599 142.3ZM871.349 177.8C874.549 177.8 876.149 176.15 876.149 172.9V145.95H871.549V171.7C871.549 173 870.949 173.65 869.749 173.65C867.899 173.65 865.949 173.5 863.899 173.3L864.949 177.8H871.349ZM863.399 152.4C861.399 159.55 859.049 165.45 856.399 170.1L860.849 171.7C863.649 166.5 865.899 160.5 867.649 153.6L863.399 152.4ZM912.549 140.25H904.849C905.799 137.85 906.549 135.3 907.049 132.55L902.299 131.9C901.899 134.8 901.199 137.55 900.299 140.25H895.549V176.5H900.099V172.45H907.999V175.05H912.549V140.25ZM900.099 168.05V158.2H907.999V168.05H900.099ZM900.099 153.95V144.75H907.999V153.95H900.099ZM921.549 152.25L917.699 154.65C920.899 158.7 923.499 162.35 925.399 165.65L929.149 163C927.399 159.9 924.849 156.35 921.549 152.25ZM938.349 140.3H922.899C923.699 137.85 924.399 135.25 924.899 132.45L920.199 131.85C918.999 138.75 916.699 144.6 913.399 149.4L916.249 153.15C918.149 150.65 919.749 147.9 921.149 144.9H933.699C933.599 159.15 933.449 167.55 933.149 170.05C932.849 172.15 931.699 173.2 929.699 173.2C928.099 173.2 926.199 173.1 923.999 173L925.149 177.35C927.649 177.5 929.449 177.6 930.449 177.6C934.699 177.6 937.099 175.8 937.599 172.2C938.099 168.2 938.349 157.55 938.349 140.3ZM982.599 152.25L978.399 153.7C980.049 158.45 981.499 163.35 982.799 168.45C978.849 169.25 974.199 170 968.799 170.8L979.149 134L974.399 133.35L964.149 170.25C963.949 170.95 963.199 171.5 961.899 171.85L962.799 176.4C970.349 175.3 977.399 174.15 983.899 172.9C984.299 174.6 984.649 176.35 985.049 178.15L989.749 176.95C987.649 167.65 985.299 159.45 982.599 152.25ZM945.049 145.1V149.65H953.199C951.299 154.7 948.199 159.2 943.999 163.2L946.149 168.6C949.149 165.05 951.599 161.15 953.549 156.9V178H958.299V155.7C959.599 157.5 961.099 159.9 962.899 162.8L965.599 158.8C963.149 156 960.699 153.5 958.299 151.25V149.65H965.999V145.1H958.299V138.2C961.049 137.7 963.649 137.15 966.099 136.55L964.449 132.15C958.849 133.65 952.449 134.65 945.249 135.15L946.249 139.7C948.749 139.5 951.199 139.2 953.549 138.9V145.1H945.049ZM1010 150.65H1028.7V155.05H1010V150.65ZM1028.7 159.2V163.5H1010V159.2H1028.7ZM1028.7 167.6V172.15C1028.7 173.25 1028.05 173.8 1026.85 173.8C1025.2 173.8 1023.45 173.7 1021.6 173.55L1022.75 177.85H1028.35C1031.55 177.75 1033.15 176.35 1033.15 173.6V146.55H1010.35C1011.3 145 1012.2 143.4 1013 141.75H1039.2V137.15H1015.05C1015.65 135.6 1016.2 133.95 1016.7 132.25L1011.85 131.7C1011.25 133.5 1010.6 135.35 1009.85 137.15H995.199V141.75H1007.55C1004.25 147.65 999.649 152.95 993.849 157.55L996.899 161.55C1000.1 158.95 1002.95 156.15 1005.55 153.1V178.05H1010V167.6H1028.7ZM1049.2 134.55V139.15H1085.1V134.55H1049.2ZM1044.4 148.35V153.1H1060.55C1055.6 163 1051.6 169.1 1048.55 171.4C1048.3 171.55 1047.9 171.7 1047.4 171.85L1048.65 176.7C1060.45 175.9 1071.35 174.8 1081.4 173.4C1082.3 175.1 1083.1 176.8 1083.9 178.5L1088.15 175.55C1085.65 170.55 1082.15 164.65 1077.6 157.9L1073.8 160.25C1075.7 163.25 1077.45 166.2 1079.05 169.05C1070.95 170.2 1062.75 171.05 1054.55 171.55C1057.8 167.85 1061.55 161.7 1065.85 153.1H1089.55V148.35H1044.4Z"
       fill="black"
       id="path2720" />
    <path
       d="M519.822 212.46V222.38H527.502V212.46H519.822ZM526.102 221.1H521.222V219.42H526.102V221.1ZM521.222 218.24V216.62H526.102V218.24H521.222ZM521.222 215.42V213.74H526.102V215.42H521.222ZM515.842 217.62C516.502 218.22 517.302 219.04 518.222 220.08L519.022 218.88C517.942 217.96 516.882 217.12 515.842 216.38V215.44H518.502V214.12H515.842V211.9H514.402V214.12H511.102V215.44H514.362C513.462 217.34 512.222 219 510.662 220.4L511.202 221.76C512.482 220.4 513.542 218.92 514.402 217.32V222.68H515.842V217.62ZM512.882 223.82C512.482 225.48 511.822 226.98 510.902 228.34L512.142 229.12C513.062 227.72 513.782 226.04 514.302 224.12L512.882 223.82ZM522.602 229.58C523.382 229.58 523.942 229.42 524.302 229.12C524.742 228.74 525.022 227.72 525.162 226.06L523.802 225.6C523.722 226.84 523.542 227.6 523.302 227.86C523.102 228.06 522.782 228.18 522.342 228.18H518.042C517.442 228.18 517.142 227.88 517.142 227.28V223.56H515.682V227.58C515.682 228.9 516.322 229.58 517.602 229.58H522.602ZM519.802 223.18L518.682 223.88C519.602 224.88 520.342 225.82 520.902 226.66L522.042 225.86C521.522 225.1 520.762 224.2 519.802 223.18ZM526.042 223.28L524.882 224.02C526.142 225.7 527.142 227.22 527.902 228.6L529.122 227.74C528.402 226.46 527.382 224.98 526.042 223.28ZM531.082 212.46V213.76H536.982V215.54H532.322V220.58H537.582C537.262 221.14 536.922 221.74 536.562 222.36H530.822V223.68H535.762C535.322 224.36 534.882 225.06 534.402 225.76C536.062 226.14 537.722 226.58 539.382 227.08C537.582 227.78 534.882 228.34 531.322 228.76L531.862 230.04C536.182 229.46 539.302 228.66 541.202 227.64C543.422 228.36 545.642 229.18 547.842 230.12L548.742 228.94C546.622 228.1 544.542 227.38 542.502 226.76C543.562 225.9 544.302 224.88 544.702 223.68H549.002V222.36H538.182C538.502 221.8 538.842 221.22 539.202 220.58H547.522V215.54H542.862V213.76H548.762V212.46H531.082ZM540.962 226.3C539.422 225.86 537.922 225.48 536.442 225.16C536.742 224.72 537.062 224.22 537.402 223.68H543.242C542.842 224.72 542.082 225.6 540.962 226.3ZM541.482 215.54H538.362V213.76H541.482V215.54ZM546.142 219.34H542.862V216.8H546.142V219.34ZM541.482 219.34H538.362V216.8H541.482V219.34ZM536.982 219.34H533.702V216.8H536.982V219.34ZM552.482 211.98L551.502 212.92C552.922 214.06 554.042 215.12 554.842 216.1L555.882 215.08C554.962 214.04 553.822 213.02 552.482 211.98ZM564.102 229.64H568.682L569.022 228.2C568.502 228.24 567.742 228.26 566.782 228.28C565.802 228.3 564.842 228.32 563.902 228.32C562.362 228.32 561.062 228.3 560.022 228.28C558.862 228.24 557.962 228.08 557.362 227.8C556.802 227.54 556.302 227.12 555.822 226.54C555.662 226.36 555.502 226.2 555.342 226.08V218.6H551.142V219.92H554.002V226C553.182 226.36 552.242 227.38 551.182 229.06L552.262 230.04C553.362 228.2 554.142 227.28 554.622 227.28C554.862 227.28 555.122 227.44 555.382 227.78C556.002 228.5 556.702 229 557.482 229.24C558.282 229.46 559.302 229.58 560.582 229.6C561.842 229.62 563.022 229.64 564.102 229.64ZM556.722 213.72V215.06H559.362C558.702 216.48 557.962 217.68 557.162 218.64L557.482 219.96H562.102V222.34H556.562V223.7H562.102V227.42H563.482V223.7H568.722V222.34H563.482V219.96H567.842V218.64H563.482V216.26H562.102V218.64H558.882C559.602 217.6 560.282 216.4 560.882 215.06H568.462V213.72H561.442C561.682 213.12 561.902 212.5 562.122 211.84L560.742 211.52C560.502 212.28 560.222 213.02 559.942 213.72H556.722ZM580.502 215.04L579.322 215.6C579.742 216.32 580.142 217.12 580.542 218H577.482V219.38H588.642V218H585.402C585.862 217.2 586.282 216.3 586.662 215.3L585.302 214.82C584.902 215.94 584.442 217 583.882 218H581.922C581.482 216.92 581.022 215.94 580.502 215.04ZM583.142 211.54L581.642 211.78C581.882 212.28 582.122 212.84 582.342 213.44H577.942V214.76H588.282V213.44H583.802C583.582 212.74 583.362 212.1 583.142 211.54ZM573.162 229.82C574.342 229.82 574.942 229.24 574.942 228.08V222.16C575.502 221.9 576.062 221.62 576.622 221.32V219.86C576.062 220.16 575.502 220.44 574.942 220.72V216.88H576.602V215.5H574.942V211.72H573.462V215.5H571.022V216.88H573.462V221.34C572.542 221.7 571.602 222 570.662 222.24L571.022 223.68C571.842 223.42 572.662 223.12 573.462 222.8V227.72C573.462 228.24 573.182 228.5 572.662 228.5C572.182 228.5 571.662 228.46 571.122 228.42L571.422 229.82H573.162ZM581.382 219.94C581.162 220.5 580.922 221.06 580.642 221.66H577.222V223.06H579.902C579.482 223.82 579.002 224.6 578.462 225.42C579.862 225.98 581.162 226.52 582.382 227.08C581.142 227.8 579.342 228.36 577.022 228.78L577.582 230.08C580.462 229.52 582.562 228.74 583.882 227.78C585.482 228.54 586.862 229.28 588.062 230.02L588.842 228.86C587.582 228.14 586.262 227.46 584.902 226.82C585.842 225.8 586.462 224.54 586.762 223.06H588.962V221.66H582.102C582.342 221.16 582.562 220.64 582.762 220.1L581.382 219.94ZM585.402 223.06C585.082 224.34 584.482 225.38 583.582 226.22C582.502 225.74 581.382 225.28 580.222 224.84C580.622 224.28 581.002 223.68 581.362 223.06H585.402ZM593.242 218.9V230H594.682V216.68C595.482 215.28 596.142 213.78 596.662 212.2L595.322 211.56C594.342 214.72 592.762 217.54 590.602 219.98L591.062 221.5C591.842 220.68 592.562 219.82 593.242 218.9ZM606.122 219.62L604.842 220.04C605.822 222.28 606.722 224.88 607.522 227.8L608.782 227.24C608.022 224.52 607.142 221.98 606.122 219.62ZM599.242 215.5H606.822C606.522 216.54 606.142 217.46 605.682 218.3L607.062 218.7C607.562 217.5 607.962 216.28 608.282 215.04V214.1H599.762C600.002 213.4 600.242 212.66 600.442 211.88L599.082 211.6C598.402 214.3 597.302 216.76 595.782 218.98L597.022 219.74C597.862 218.46 598.602 217.06 599.242 215.5ZM601.742 229.86C602.842 229.86 603.402 229.3 603.402 228.18V217.18H602.002V227.82C602.002 228.34 601.742 228.6 601.242 228.6C600.482 228.6 599.662 228.56 598.822 228.5L599.122 229.86H601.742ZM598.742 219.78C597.922 222.7 596.962 225.1 595.882 226.98L597.222 227.46C598.382 225.36 599.322 222.92 600.042 220.14L598.742 219.78ZM618.002 215.12H614.782C615.182 214.12 615.482 213.02 615.722 211.84L614.282 211.64C614.102 212.84 613.822 214 613.422 215.12H611.562V229.34H612.962V227.62H616.602V228.76H618.002V215.12ZM612.962 226.28V221.9H616.602V226.28H612.962ZM612.962 220.6V216.48H616.602V220.6H612.962ZM621.482 219.76L620.322 220.48C621.702 222.12 622.802 223.6 623.622 224.92L624.762 224.12C624.002 222.88 622.922 221.42 621.482 219.76ZM628.342 215.14H621.962C622.322 214.1 622.602 212.98 622.842 211.8L621.422 211.62C620.902 214.46 619.962 216.86 618.562 218.82L619.422 219.96C620.202 218.94 620.862 217.8 621.422 216.54H626.922C626.882 222.3 626.802 225.76 626.682 226.88C626.522 227.9 625.982 228.42 625.042 228.42C624.422 228.42 623.702 228.4 622.862 228.36L623.202 229.68C624.162 229.72 624.842 229.76 625.242 229.76C626.922 229.76 627.842 228.98 628.042 227.46C628.242 225.9 628.342 221.78 628.342 215.14ZM631.362 213.72V228H633.002V216.26H633.062L641.182 228H642.862V213.72H641.222V225.34H641.162L633.082 213.72H631.362ZM649.917 213.72L644.297 228H646.057L647.577 224H654.137L655.657 228H657.437L651.817 213.72H649.917ZM648.097 222.62L650.837 215.48H650.917L653.617 222.62H648.097ZM663.681 213.44C662.201 213.44 660.981 213.76 660.041 214.4C658.981 215.08 658.461 216.06 658.461 217.3C658.461 218.5 659.001 219.42 660.101 220.06C660.561 220.3 661.661 220.7 663.381 221.22C664.981 221.68 666.001 222.02 666.401 222.26C667.341 222.76 667.821 223.46 667.821 224.36C667.821 225.12 667.461 225.72 666.741 226.16C666.021 226.6 665.061 226.82 663.901 226.82C662.621 226.82 661.661 226.54 661.001 226.02C660.281 225.44 659.841 224.52 659.701 223.28H658.081C658.201 225.04 658.821 226.34 659.941 227.2C660.901 227.92 662.221 228.28 663.901 228.28C665.601 228.28 666.941 227.92 667.941 227.22C668.941 226.5 669.441 225.5 669.441 224.26C669.441 222.96 668.841 221.96 667.661 221.24C667.061 220.88 665.821 220.42 663.941 219.86C662.561 219.46 661.681 219.16 661.321 218.96C660.501 218.52 660.101 217.94 660.101 217.22C660.101 216.4 660.441 215.8 661.121 215.4C661.721 215.04 662.541 214.88 663.601 214.88C664.761 214.88 665.661 215.12 666.301 215.64C666.921 216.14 667.321 216.9 667.501 217.94H669.121C668.981 216.44 668.441 215.3 667.481 214.54C666.561 213.8 665.281 213.44 663.681 213.44ZM673.538 225.2L672.638 226.04C673.378 226.6 674.118 227.26 674.858 228.06C675.498 228.74 676.078 229.42 676.558 230.1L677.558 229.26C677.078 228.58 676.498 227.88 675.838 227.2C675.078 226.4 674.298 225.74 673.538 225.2ZM706.798 211.84C702.978 212.76 698.178 213.24 692.378 213.24L692.818 214.54C695.298 214.54 697.598 214.44 699.718 214.28V217.54H692.778V218.94H699.718V222.22H691.118V223.6H699.718V227.66C699.718 228.22 699.398 228.52 698.798 228.52C697.878 228.52 696.898 228.48 695.878 228.44L696.198 229.84H699.298C700.538 229.84 701.178 229.22 701.178 228.02V223.6H709.058V222.22H701.178V218.94H707.558V217.54H701.178V214.16C703.578 213.92 705.678 213.54 707.498 213.06L706.798 211.84ZM711.238 215.58V216.96H714.158C713.498 219.46 712.398 221.68 710.858 223.62L711.478 225.18C712.598 223.54 713.518 221.74 714.218 219.74V229.9H715.658V219.36C716.218 220.14 716.878 221.16 717.638 222.42L718.478 221.18C717.518 220 716.578 218.94 715.658 217.98V216.96H718.138V215.58H715.658V211.68H714.218V215.58H711.238ZM717.198 229.02L718.378 230.08C719.318 228.64 719.958 227.16 720.298 225.6C720.658 224.12 720.838 222.28 720.838 220.08V213.86H724.398V227.78C724.398 228.94 725.038 229.52 726.318 229.52H727.138C727.778 229.52 728.258 229.4 728.578 229.18C728.898 228.9 729.098 228.42 729.178 227.7C729.258 226.94 729.318 225.86 729.318 224.42L727.998 224C727.998 225.92 727.938 227.06 727.858 227.46C727.818 227.74 727.718 227.92 727.558 228.04C727.418 228.12 727.238 228.16 726.998 228.16H726.318C725.998 228.16 725.858 227.98 725.858 227.64V212.5H719.398V220.08C719.398 222.14 719.258 223.78 718.998 225C718.658 226.42 718.058 227.76 717.198 229.02ZM733.538 225.2L732.638 226.04C733.378 226.6 734.118 227.26 734.858 228.06C735.498 228.74 736.078 229.42 736.558 230.1L737.558 229.26C737.078 228.58 736.498 227.88 735.838 227.2C735.078 226.4 734.298 225.74 733.538 225.2ZM754.098 220.06H759.018V223.06H754.098V220.06ZM759.018 224.4V227.08C759.018 228.82 759.818 229.7 761.458 229.7H766.598C767.538 229.7 768.178 229.52 768.538 229.18C768.898 228.82 769.118 227.78 769.238 226.08L767.878 225.62C767.798 226.98 767.658 227.76 767.458 228C767.218 228.22 766.858 228.34 766.358 228.34H761.798C760.918 228.34 760.478 227.84 760.478 226.86V224.4H766.958V214.44H760.478V211.7H759.018V214.44H752.658V226.1H754.098V224.4H759.018ZM760.478 223.06V220.06H765.538V223.06H760.478ZM765.538 218.74H760.478V215.8H765.538V218.74ZM759.018 215.8V218.74H754.098V215.8H759.018ZM773.558 218.62H776.118V221.98H773.558V218.62ZM776.118 217.28H773.558V213.86H776.118V217.28ZM773.518 223.34H776.118V227.72C776.118 228.32 775.858 228.64 775.358 228.64C774.958 228.64 774.498 228.6 773.998 228.56L774.398 229.94H775.798C776.958 229.94 777.538 229.36 777.538 228.22V212.44H772.158V222.12C772.138 224.92 771.698 227.24 770.838 229.06L771.978 230.1C772.858 228.32 773.358 226.06 773.518 223.34ZM782.138 216.48L781.078 217.16C781.938 218.72 782.718 220.24 783.438 221.7C782.758 223.18 781.918 224.46 780.938 225.58L781.838 226.68C782.718 225.7 783.478 224.56 784.158 223.26C784.618 224.3 785.038 225.32 785.438 226.32L786.518 225.58C786.058 224.4 785.498 223.12 784.838 221.76C785.478 220.2 785.978 218.42 786.358 216.42L785.098 216.2C784.838 217.6 784.498 218.92 784.058 220.14C783.478 218.98 782.838 217.76 782.138 216.48ZM783.838 211.66L782.398 211.9C782.638 212.54 782.858 213.24 783.058 214.02H778.538V215.4H789.178V214.02H784.538C784.298 213.14 784.078 212.34 783.838 211.66ZM780.498 228.94H787.138V229.82H788.498V217.7H787.138V227.62H780.498V217.76H779.138V229.86H780.498V228.94ZM808.278 213.02H800.638V229.4H802.018V227.62H806.878V229.2H808.278V213.02ZM802.018 226.26V214.36H806.878V226.26H802.018ZM791.498 217.16V218.5H794.998V218.64C794.178 220.84 792.838 222.82 790.978 224.58L791.578 226.14C792.998 224.6 794.138 222.88 794.998 220.98V229.86H796.398V220.84C797.138 221.68 798.018 222.82 799.058 224.24L799.898 223C798.718 221.68 797.558 220.52 796.398 219.5V218.5H799.818V217.16H796.398V214C797.518 213.76 798.578 213.44 799.618 213.06L798.938 211.86C796.938 212.62 794.458 213.12 791.478 213.36L791.938 214.64C792.978 214.56 793.998 214.44 794.998 214.28V217.16H791.498ZM813.778 214.4H815.818C815.778 215.08 815.718 215.72 815.598 216.34H811.218V217.66H815.238L815.038 218.14C814.378 219.5 813.018 220.64 810.938 221.56L811.898 222.74C813.878 221.82 815.278 220.66 816.078 219.26C817.438 220.06 818.518 220.82 819.358 221.58L820.378 220.56C819.338 219.76 818.058 218.98 816.538 218.22C816.578 218.04 816.638 217.86 816.698 217.66H820.758V216.34H816.998C817.078 215.74 817.138 215.08 817.178 214.4H820.198V213.12H814.478C814.658 212.72 814.838 212.28 815.018 211.8L813.718 211.52C813.058 213.12 812.258 214.36 811.298 215.24L812.158 216.32C812.758 215.78 813.298 215.14 813.778 214.4ZM821.598 213.02V220.34H828.178V213.02H821.598ZM826.778 219.06H822.998V214.3H826.778V219.06ZM826.758 221.78H813.958V230.04H815.398V229.14H825.298V230.04H826.758V221.78ZM815.398 227.86V226.14H825.298V227.86H815.398ZM815.398 224.88V223.06H825.298V224.88H815.398ZM833.658 223.14H838.278V225H833.658V223.14ZM838.278 221.94H833.658V220H838.278V221.94ZM833.658 226.22H838.278V227.84C838.278 228.34 838.018 228.6 837.518 228.6L836.018 228.54L836.378 229.9H837.978C839.098 229.9 839.658 229.3 839.658 228.14V218.74H832.278V230.04H833.658V226.22ZM846.678 220.4C847.378 220.4 847.898 220.24 848.218 219.94C848.578 219.58 848.838 218.58 848.978 216.94L847.638 216.52C847.558 217.76 847.438 218.5 847.238 218.78C847.078 218.98 846.798 219.1 846.398 219.1H843.778C843.238 219.1 842.978 218.78 842.978 218.14V215.64C845.178 215.32 847.118 214.94 848.798 214.52L848.338 213.26C846.958 213.62 845.178 213.98 842.978 214.32V211.72H841.558V218.44C841.558 219.74 842.158 220.4 843.378 220.4H846.678ZM842.978 224.92C845.058 224.74 846.998 224.4 848.798 223.88L848.338 222.6C846.758 223.08 844.978 223.42 842.978 223.62V221.16H841.558V228.1C841.558 229.16 842.138 229.7 843.338 229.7H846.738C847.458 229.7 847.978 229.54 848.298 229.24C848.678 228.88 848.938 227.9 849.058 226.28L847.758 225.88C847.678 227.1 847.538 227.84 847.318 228.12C847.158 228.3 846.858 228.4 846.458 228.4H843.738C843.218 228.4 842.978 228.18 842.978 227.78V224.92ZM838.218 213.08L837.098 213.78C837.578 214.46 838.038 215.14 838.458 215.78C836.578 216.02 834.798 216.18 833.118 216.28C834.238 215.26 835.238 213.86 836.158 212.08L834.798 211.66C833.998 213.26 832.958 214.7 831.718 215.98C831.538 216.14 831.318 216.28 831.058 216.36L831.458 217.56C834.418 217.4 836.978 217.16 839.118 216.82C839.378 217.26 839.618 217.7 839.838 218.14L841.018 217.3C840.358 216.1 839.418 214.7 838.218 213.08ZM851.898 212.46V218.74H854.718V227.44C854.238 227.56 853.738 227.7 853.238 227.82V220.88H851.958V228.14L850.898 228.38L851.298 229.78C854.078 229.12 856.518 228.4 858.598 227.62V226.18C857.798 226.48 856.938 226.76 856.058 227.04V223.32H858.138V221.96H856.058V218.74H858.058V212.46H851.898ZM856.678 217.42H853.298V213.78H856.678V217.42ZM867.598 222.52H859.798V229.94H861.178V229.06H866.218V229.94H867.598V222.52ZM861.178 227.74V223.82H866.218V227.74H861.178ZM861.838 211.62C861.198 213.66 859.998 215.36 858.238 216.74L859.098 217.88C859.738 217.36 860.318 216.82 860.838 216.22C861.338 217.14 861.938 217.98 862.658 218.76C861.338 219.8 859.778 220.68 857.938 221.42L858.798 222.58C860.678 221.78 862.278 220.84 863.638 219.74C864.978 220.94 866.638 221.86 868.618 222.5L869.438 221.32C867.578 220.74 865.978 219.9 864.658 218.82C865.958 217.54 866.958 216.06 867.638 214.38V213.34H862.678C862.878 212.86 863.058 212.38 863.218 211.88L861.838 211.62ZM861.658 215.12C861.778 214.96 861.878 214.78 861.998 214.62H866.118C865.498 215.82 864.678 216.9 863.658 217.9C862.858 217.1 862.198 216.16 861.658 215.12ZM887.538 214.88H880.818V211.74H879.338V214.88H872.618V229.9H874.058V228.6H886.098V229.9H887.538V214.88ZM874.058 227.22V222.2H879.338V227.22H874.058ZM880.818 227.22V222.2H886.098V227.22H880.818ZM874.058 220.86V216.26H879.338V220.86H874.058ZM880.818 216.26H886.098V220.86H880.818V216.26ZM892.878 212.42V217.28H898.978V212.42H892.878ZM897.658 216.06H894.178V213.66H897.658V216.06ZM901.198 212.42V217.28H907.418V212.42H901.198ZM906.118 216.06H902.518V213.66H906.118V216.06ZM891.258 219.28V220.56H896.778C895.378 221.76 893.418 222.74 890.858 223.5L891.518 224.68C892.078 224.5 892.618 224.32 893.158 224.12V230.02H894.418V229.16H897.838V230.02H899.118V223.72H894.098C895.978 222.88 897.478 221.84 898.598 220.56H901.978C902.978 221.78 904.458 222.84 906.378 223.72H901.038V230.02H902.318V229.16H906.058V230.02H907.338V224.14C907.778 224.3 908.238 224.48 908.738 224.64L909.318 223.42C906.738 222.72 904.798 221.76 903.498 220.56H908.898V219.28H906.138C905.818 218.66 905.458 218.08 905.038 217.52L903.818 217.92C904.138 218.32 904.438 218.78 904.718 219.28H899.558C899.838 218.8 900.098 218.32 900.298 217.8L898.918 217.66C898.678 218.22 898.378 218.76 897.998 219.28H891.258ZM894.418 227.92V224.92H897.838V227.92H894.418ZM902.318 227.92V224.92H906.058V227.92H902.318ZM915.258 213.44C913.818 213.44 912.698 213.88 911.898 214.76C911.098 215.6 910.718 216.72 910.718 218.12H912.298C912.298 217.14 912.518 216.38 912.958 215.82C913.438 215.16 914.178 214.84 915.178 214.84C916.018 214.84 916.678 215.06 917.138 215.54C917.578 215.98 917.818 216.6 917.818 217.4C917.818 217.96 917.618 218.48 917.218 218.98C917.098 219.14 916.858 219.38 916.538 219.7C915.458 220.66 914.798 221.42 914.518 222.02C914.278 222.52 914.158 223.1 914.158 223.76V224.22H915.758V223.76C915.758 223.22 915.878 222.74 916.138 222.3C916.338 221.94 916.638 221.58 917.078 221.2C917.958 220.42 918.498 219.9 918.698 219.66C919.198 219 919.458 218.22 919.458 217.32C919.458 216.12 919.078 215.18 918.338 214.5C917.558 213.78 916.538 213.44 915.258 213.44ZM914.958 225.62C914.618 225.62 914.338 225.72 914.098 225.96C913.858 226.18 913.758 226.46 913.758 226.8C913.758 227.14 913.858 227.42 914.098 227.66C914.338 227.88 914.618 228 914.958 228C915.298 228 915.578 227.88 915.818 227.66C916.058 227.44 916.178 227.16 916.178 226.8C916.178 226.46 916.058 226.18 915.838 225.96C915.598 225.72 915.298 225.62 914.958 225.62ZM419.9 242.46V252.38H427.58V242.46H419.9ZM426.18 251.1H421.3V249.42H426.18V251.1ZM421.3 248.24V246.62H426.18V248.24H421.3ZM421.3 245.42V243.74H426.18V245.42H421.3ZM415.92 247.62C416.58 248.22 417.38 249.04 418.3 250.08L419.1 248.88C418.02 247.96 416.96 247.12 415.92 246.38V245.44H418.58V244.12H415.92V241.9H414.48V244.12H411.18V245.44H414.44C413.54 247.34 412.3 249 410.74 250.4L411.28 251.76C412.56 250.4 413.62 248.92 414.48 247.32V252.68H415.92V247.62ZM412.96 253.82C412.56 255.48 411.9 256.98 410.98 258.34L412.22 259.12C413.14 257.72 413.86 256.04 414.38 254.12L412.96 253.82ZM422.68 259.58C423.46 259.58 424.02 259.42 424.38 259.12C424.82 258.74 425.1 257.72 425.24 256.06L423.88 255.6C423.8 256.84 423.62 257.6 423.38 257.86C423.18 258.06 422.86 258.18 422.42 258.18H418.12C417.52 258.18 417.22 257.88 417.22 257.28V253.56H415.76V257.58C415.76 258.9 416.4 259.58 417.68 259.58H422.68ZM419.88 253.18L418.76 253.88C419.68 254.88 420.42 255.82 420.98 256.66L422.12 255.86C421.6 255.1 420.84 254.2 419.88 253.18ZM426.12 253.28L424.96 254.02C426.22 255.7 427.22 257.22 427.98 258.6L429.2 257.74C428.48 256.46 427.46 254.98 426.12 253.28ZM431.16 242.46V243.76H437.06V245.54H432.4V250.58H437.66C437.34 251.14 437 251.74 436.64 252.36H430.9V253.68H435.84C435.4 254.36 434.96 255.06 434.48 255.76C436.14 256.14 437.8 256.58 439.46 257.08C437.66 257.78 434.96 258.34 431.4 258.76L431.94 260.04C436.26 259.46 439.38 258.66 441.28 257.64C443.5 258.36 445.72 259.18 447.92 260.12L448.82 258.94C446.7 258.1 444.62 257.38 442.58 256.76C443.64 255.9 444.38 254.88 444.78 253.68H449.08V252.36H438.26C438.58 251.8 438.92 251.22 439.28 250.58H447.6V245.54H442.94V243.76H448.84V242.46H431.16ZM441.04 256.3C439.5 255.86 438 255.48 436.52 255.16C436.82 254.72 437.14 254.22 437.48 253.68H443.32C442.92 254.72 442.16 255.6 441.04 256.3ZM441.56 245.54H438.44V243.76H441.56V245.54ZM446.22 249.34H442.94V246.8H446.22V249.34ZM441.56 249.34H438.44V246.8H441.56V249.34ZM437.06 249.34H433.78V246.8H437.06V249.34ZM459.94 249.86C461.82 251.78 463.36 253.6 464.52 255.32L465.6 254.22C464.18 252.32 462.44 250.38 460.36 248.42C460.52 247.76 460.64 247.04 460.74 246.28H466.46V257.44C466.46 258.08 466.14 258.42 465.5 258.42L462.44 258.34L462.84 259.78H465.98C467.26 259.78 467.92 259.1 467.92 257.76V244.88H460.9C460.98 243.88 461.04 242.78 461.04 241.6H459.58C459.58 242.76 459.52 243.86 459.42 244.88H452.1V259.98H453.56V246.28H459.26C459.12 247.2 458.94 248.04 458.72 248.82C458 251.04 456.52 252.88 454.28 254.36L455.24 255.54C457.56 254.02 459.12 252.14 459.94 249.86ZM479.42 255.46L480.38 254.5C479.58 253.26 478.78 252.12 478.02 251.08C478.54 249.38 478.96 247.5 479.28 245.44L477.96 245.2C477.72 246.8 477.4 248.32 477.02 249.72C476.18 248.6 475.38 247.66 474.64 246.88L473.74 247.74C474.66 248.8 475.6 249.96 476.56 251.24C475.88 253.26 475.02 255.02 473.98 256.5L474.9 257.62C475.92 256.22 476.8 254.54 477.52 252.58C478.14 253.48 478.78 254.44 479.42 255.46ZM485.28 256.38L486.26 255.42C485.4 253.98 484.58 252.68 483.82 251.52C484.42 249.72 484.9 247.72 485.26 245.5L483.9 245.26C483.62 246.98 483.28 248.6 482.84 250.1C482 248.9 481.2 247.9 480.48 247.08L479.58 247.94C480.5 249.06 481.4 250.3 482.32 251.66C481.58 253.7 480.64 255.48 479.52 257L480.44 258.1C481.52 256.7 482.46 255.02 483.26 253.06C483.92 254.1 484.6 255.2 485.28 256.38ZM486.2 259.88C487.38 259.88 487.98 259.26 487.98 258.04V242.48H472.02V259.96H473.44V243.86H486.56V257.72C486.56 258.26 486.28 258.54 485.72 258.54L483.8 258.48L484.18 259.88H486.2ZM502.72 241.7V259.98H504.2V249.34C505.36 250.26 506.74 251.56 508.38 253.2L509.26 251.88C507.54 250.34 505.86 248.96 504.2 247.74V241.7H502.72ZM494.64 249.64L493.88 250.76C494.94 251.28 496 252 497.04 252.88C495.64 255.04 493.68 256.84 491.18 258.28L492.16 259.5C497.36 256.4 500.28 251.82 500.96 245.76V244.5H496.1C496.38 243.68 496.62 242.82 496.82 241.92L495.38 241.68C494.58 245.28 493.02 248.16 490.74 250.28L491.72 251.5C493.32 250.02 494.62 248.16 495.58 245.88H499.54C499.24 248.02 498.62 249.98 497.7 251.74C496.78 250.94 495.76 250.24 494.64 249.64ZM519.42 255.46L520.38 254.5C519.58 253.26 518.78 252.12 518.02 251.08C518.54 249.38 518.96 247.5 519.28 245.44L517.96 245.2C517.72 246.8 517.4 248.32 517.02 249.72C516.18 248.6 515.38 247.66 514.64 246.88L513.74 247.74C514.66 248.8 515.6 249.96 516.56 251.24C515.88 253.26 515.02 255.02 513.98 256.5L514.9 257.62C515.92 256.22 516.8 254.54 517.52 252.58C518.14 253.48 518.78 254.44 519.42 255.46ZM525.28 256.38L526.26 255.42C525.4 253.98 524.58 252.68 523.82 251.52C524.42 249.72 524.9 247.72 525.26 245.5L523.9 245.26C523.62 246.98 523.28 248.6 522.84 250.1C522 248.9 521.2 247.9 520.48 247.08L519.58 247.94C520.5 249.06 521.4 250.3 522.32 251.66C521.58 253.7 520.64 255.48 519.52 257L520.44 258.1C521.52 256.7 522.46 255.02 523.26 253.06C523.92 254.1 524.6 255.2 525.28 256.38ZM526.2 259.88C527.38 259.88 527.98 259.26 527.98 258.04V242.48H512.02V259.96H513.44V243.86H526.56V257.72C526.56 258.26 526.28 258.54 525.72 258.54L523.8 258.48L524.18 259.88H526.2ZM533.46 255.2L532.56 256.04C533.3 256.6 534.04 257.26 534.78 258.06C535.42 258.74 536 259.42 536.48 260.1L537.48 259.26C537 258.58 536.42 257.88 535.76 257.2C535 256.4 534.22 255.74 533.46 255.2ZM567.56 242.32C564.76 243.12 561.24 243.54 557 243.54L557.46 244.9C558.98 244.9 560.42 244.84 561.78 244.74V250.22H555.96V251.62H561.78V257.9H556.96V259.32H568.08V257.9H563.22V251.62H569.08V250.22H563.22V244.6C565.14 244.38 566.82 244.02 568.26 243.54L567.56 242.32ZM555.4 241.7C554.42 244.72 552.86 247.4 550.7 249.72L551.16 251.26C551.94 250.48 552.66 249.66 553.3 248.82V260.04H554.74V246.68C555.54 245.32 556.22 243.86 556.74 242.32L555.4 241.7ZM575.48 244.12L576.12 245.7H571.32V246.96H588.68V245.7H583.7L584.48 244.12H587.74V242.88H580.7C580.5 242.36 580.28 241.9 580.08 241.48L578.54 241.72C578.74 242.06 578.94 242.44 579.12 242.88H572.26V244.12H575.48ZM577.62 245.7L576.98 244.12H582.98L582.2 245.7H577.62ZM573.6 248.14V254.06H586.4V248.14H573.6ZM585 252.94H575V251.62H585V252.94ZM575 250.56V249.28H585V250.56H575ZM572.8 255C572.42 256.32 571.82 257.54 571 258.64L572.24 259.42C573.08 258.26 573.72 256.88 574.2 255.28L572.8 255ZM582.74 259.68C583.5 259.68 584.04 259.54 584.4 259.3C584.8 258.98 585.08 258.14 585.22 256.76L583.86 256.32C583.78 257.32 583.62 257.94 583.38 258.14C583.22 258.3 582.92 258.38 582.48 258.38H578.28C577.64 258.38 577.32 258.08 577.32 257.52V255.18H575.84V257.82C575.84 259.06 576.5 259.68 577.86 259.68H582.74ZM580.22 254.44L579 255.2C579.84 256.04 580.48 256.82 580.96 257.54L582.16 256.7C581.72 256.04 581.06 255.28 580.22 254.44ZM586.5 254.82L585.34 255.54C586.42 256.86 587.26 258.06 587.9 259.16L589.1 258.32C588.5 257.32 587.62 256.16 586.5 254.82ZM593.22 242.04L592.22 242.98C593.58 244.04 594.64 245.04 595.42 246L596.4 245C595.54 244.02 594.48 243.04 593.22 242.04ZM590.9 247.82V249.2H593.68V257.12C593.68 257.44 593.52 257.74 593.24 258.02L593.8 259.3C595.2 258.38 596.54 257.34 597.8 256.16L597.4 254.64C596.58 255.42 595.8 256.1 595.08 256.7V247.82H590.9ZM598 250.16V251.56H599.1C599.66 253.3 600.68 254.86 602.2 256.26C600.7 257.32 598.84 258.18 596.62 258.84L597.42 260.06C599.76 259.34 601.74 258.4 603.34 257.2C604.74 258.28 606.5 259.22 608.58 260.06L609.36 258.82C607.4 258.1 605.74 257.28 604.38 256.34C605.84 254.98 606.88 253.36 607.52 251.48V250.16H598ZM600.46 251.56H606.1C605.46 253.04 604.5 254.32 603.22 255.44C601.9 254.3 600.98 253 600.46 251.56ZM599.54 242.44V244.66C599.54 246.24 598.66 247.46 596.92 248.32L597.88 249.42C599.92 248.26 600.96 246.62 600.96 244.5V243.8H604.84V247.06C604.84 248.24 605.44 248.84 606.68 248.84H608.88V247.52H607.04C606.52 247.52 606.26 247.26 606.26 246.76V242.44H599.54ZM626.32 251.28H613.72V260H615.1V259.12H624.94V260H626.32V251.28ZM615.1 257.88V255.76H619.32V257.88H615.1ZM620.68 257.88V255.76H624.94V257.88H620.68ZM615.1 254.6V252.48H619.32V254.6H615.1ZM620.68 252.48H624.94V254.6H620.68V252.48ZM617.34 241.42C615.88 243.56 614.02 245.28 611.78 246.58L612.7 247.7C613.7 247.06 614.64 246.36 615.52 245.56C616.44 246.5 617.5 247.34 618.7 248.06C616.46 249.06 613.86 249.78 610.86 250.2L611.48 251.46C614.78 250.92 617.66 250.04 620.1 248.82C622.42 249.98 625.22 250.8 628.5 251.3L629.12 250.02C626.16 249.62 623.62 248.98 621.46 248.06C623.22 246.98 624.72 245.7 625.96 244.18V243.08H617.82C618.14 242.66 618.46 242.22 618.76 241.74L617.34 241.42ZM616.38 244.74L616.78 244.34H624.18C623.02 245.5 621.64 246.52 620.04 247.4C618.6 246.64 617.38 245.76 616.38 244.74ZM642.06 242.56V259.98H643.46V243.9H647C646.34 246.04 645.68 247.9 645 249.46C646.54 251.48 647.32 253.12 647.32 254.36C647.32 254.98 647.2 255.4 647 255.62C646.8 255.82 646.32 255.94 645.58 255.98C645.22 255.98 644.78 255.94 644.26 255.88L644.68 257.34C646.32 257.34 647.4 257.1 647.94 256.66C648.46 256.22 648.72 255.46 648.72 254.36C648.7 253.08 647.96 251.46 646.48 249.46C647.22 247.66 647.9 245.72 648.52 243.64V242.56H642.06ZM632.2 244V245.28H635.08V247.84H631.28V249.16H635.9C634.44 250.52 632.72 251.62 630.72 252.48L631.48 253.6C632.04 253.34 632.6 253.06 633.16 252.78V260H634.54V259.12H638.8V259.98H640.18V251.1H635.72C636.46 250.5 637.16 249.86 637.82 249.16H641.12V247.84H638.92C639.9 246.52 640.72 245 641.36 243.32L640.14 242.78C639.4 244.68 638.4 246.36 637.16 247.84H636.48V245.28H638.62V244H636.48V241.7H635.08V244H632.2ZM634.54 255.72H638.8V257.84H634.54V255.72ZM638.8 254.48H634.54V252.34H638.8V254.48ZM653.58 253.14H658.2V255H653.58V253.14ZM658.2 251.94H653.58V250H658.2V251.94ZM653.58 256.22H658.2V257.84C658.2 258.34 657.94 258.6 657.44 258.6L655.94 258.54L656.3 259.9H657.9C659.02 259.9 659.58 259.3 659.58 258.14V248.74H652.2V260.04H653.58V256.22ZM666.6 250.4C667.3 250.4 667.82 250.24 668.14 249.94C668.5 249.58 668.76 248.58 668.9 246.94L667.56 246.52C667.48 247.76 667.36 248.5 667.16 248.78C667 248.98 666.72 249.1 666.32 249.1H663.7C663.16 249.1 662.9 248.78 662.9 248.14V245.64C665.1 245.32 667.04 244.94 668.72 244.52L668.26 243.26C666.88 243.62 665.1 243.98 662.9 244.32V241.72H661.48V248.44C661.48 249.74 662.08 250.4 663.3 250.4H666.6ZM662.9 254.92C664.98 254.74 666.92 254.4 668.72 253.88L668.26 252.6C666.68 253.08 664.9 253.42 662.9 253.62V251.16H661.48V258.1C661.48 259.16 662.06 259.7 663.26 259.7H666.66C667.38 259.7 667.9 259.54 668.22 259.24C668.6 258.88 668.86 257.9 668.98 256.28L667.68 255.88C667.6 257.1 667.46 257.84 667.24 258.12C667.08 258.3 666.78 258.4 666.38 258.4H663.66C663.14 258.4 662.9 258.18 662.9 257.78V254.92ZM658.14 243.08L657.02 243.78C657.5 244.46 657.96 245.14 658.38 245.78C656.5 246.02 654.72 246.18 653.04 246.28C654.16 245.26 655.16 243.86 656.08 242.08L654.72 241.66C653.92 243.26 652.88 244.7 651.64 245.98C651.46 246.14 651.24 246.28 650.98 246.36L651.38 247.56C654.34 247.4 656.9 247.16 659.04 246.82C659.3 247.26 659.54 247.7 659.76 248.14L660.94 247.3C660.28 246.1 659.34 244.7 658.14 243.08ZM677.28 244.74V246.12H681.06C681.04 246.78 681 247.74 680.96 249.02C680.88 250.92 680.6 252.62 680.1 254.12C679.56 255.64 678.5 257.3 676.92 259.08L677.98 260.08C679.32 258.68 680.36 257.12 681.12 255.42C681.68 254.08 682.06 252.6 682.26 250.96H686.46C686.42 254.2 686.36 256.3 686.24 257.28C686.06 258.08 685.58 258.48 684.8 258.52C684.12 258.52 683.3 258.48 682.3 258.44L682.74 259.74C683.58 259.78 684.32 259.82 684.96 259.82C686.28 259.78 687.1 259.22 687.44 258.1C687.68 256.84 687.84 254 687.88 249.6H682.38C682.46 248.12 682.5 246.96 682.52 246.12H689.24V244.74H683.42L684.08 244.48C683.72 243.56 683.2 242.56 682.56 241.46L681.16 241.86C681.76 242.78 682.26 243.74 682.7 244.74H677.28ZM673.1 241.92L672.1 242.88C673.58 244 674.76 245.06 675.6 246.08L676.6 245.06C675.66 244.02 674.5 242.98 673.1 241.92ZM670.9 247.82V249.2H673.68V257.08C673.68 257.42 673.52 257.72 673.24 258L673.78 259.28C675.14 258.36 676.42 257.3 677.62 256.12L677.24 254.6C676.48 255.36 675.76 256.04 675.08 256.62V247.82H670.9ZM705.82 259.88C707.34 259.88 708.12 259.12 708.12 257.64V242.82H698.9V244.22H706.66V257.26C706.66 258.14 706.28 258.58 705.52 258.58L703.32 258.54L703.68 259.88H705.82ZM691.88 244.98V260.02H693.34V244.98H691.88ZM696.36 247.86V255.38H703.56V247.86H696.36ZM702.1 254H697.82V249.24H702.1V254ZM694.86 241.5L693.52 242.08C694.44 243.16 695.3 244.38 696.06 245.78L697.34 245.12C696.62 243.8 695.78 242.6 694.86 241.5ZM713.32 248.9V260H714.76V246.68C715.56 245.28 716.22 243.78 716.74 242.2L715.4 241.56C714.42 244.72 712.84 247.54 710.68 249.98L711.14 251.5C711.92 250.68 712.64 249.82 713.32 248.9ZM726.2 249.62L724.92 250.04C725.9 252.28 726.8 254.88 727.6 257.8L728.86 257.24C728.1 254.52 727.22 251.98 726.2 249.62ZM719.32 245.5H726.9C726.6 246.54 726.22 247.46 725.76 248.3L727.14 248.7C727.64 247.5 728.04 246.28 728.36 245.04V244.1H719.84C720.08 243.4 720.32 242.66 720.52 241.88L719.16 241.6C718.48 244.3 717.38 246.76 715.86 248.98L717.1 249.74C717.94 248.46 718.68 247.06 719.32 245.5ZM721.82 259.86C722.92 259.86 723.48 259.3 723.48 258.18V247.18H722.08V257.82C722.08 258.34 721.82 258.6 721.32 258.6C720.56 258.6 719.74 258.56 718.9 258.5L719.2 259.86H721.82ZM718.82 249.78C718 252.7 717.04 255.1 715.96 256.98L717.3 257.46C718.46 255.36 719.4 252.92 720.12 250.14L718.82 249.78ZM743.14 252.2C744.1 254.94 745.68 257.2 747.88 258.98L748.9 257.8C746.78 256.3 745.24 254.3 744.3 251.78C745.54 251.3 746.68 250.7 747.74 250L746.76 249.02C745.08 250.12 743.32 250.92 741.46 251.44C741.04 250.6 740.48 249.82 739.78 249.1C740.32 248.78 740.86 248.42 741.42 248.04H746V246.7H734.02V248.04H739.32C738.68 248.4 737.98 248.72 737.26 249.04C735.72 249.7 733.98 250.24 732.06 250.66L732.8 251.84C735.04 251.2 736.86 250.56 738.24 249.92C738.38 249.84 738.52 249.78 738.68 249.7C738.96 250.02 739.24 250.36 739.48 250.74C737.66 252.14 735.06 253.26 731.7 254.14L732.42 255.38C735.66 254.46 738.22 253.26 740.1 251.78C740.34 252.26 740.52 252.76 740.68 253.28C738.5 255.08 735.42 256.54 731.46 257.7L732.18 258.94C735.8 257.84 738.72 256.42 740.96 254.66C741 254.98 741.02 255.3 741.04 255.66C741.04 256.9 740.86 257.74 740.5 258.18C740.2 258.52 739.46 258.7 738.28 258.72H737.32L737.8 259.98H738.48C740.2 259.98 741.32 259.62 741.8 258.94C742.22 258.34 742.44 257.24 742.44 255.66C742.42 254.56 742.24 253.52 741.92 252.54C742.32 252.44 742.74 252.32 743.14 252.2ZM740.24 241.52L738.78 241.78C739.02 242.26 739.26 242.82 739.48 243.42H731.56V246.9H732.98V244.76H747.02V246.9H748.44V243.42H740.92C740.7 242.72 740.48 242.08 740.24 241.52ZM759.26 241.58V245.18H752.1V254.58H753.54V253.32H759.26V260.14H760.74V253.32H766.48V254.58H767.92V245.18H760.74V241.58H759.26ZM753.54 251.92V246.58H759.26V251.92H753.54ZM760.74 251.92V246.58H766.48V251.92H760.74ZM778.08 245.12H774.86C775.26 244.12 775.56 243.02 775.8 241.84L774.36 241.64C774.18 242.84 773.9 244 773.5 245.12H771.64V259.34H773.04V257.62H776.68V258.76H778.08V245.12ZM773.04 256.28V251.9H776.68V256.28H773.04ZM773.04 250.6V246.48H776.68V250.6H773.04ZM781.56 249.76L780.4 250.48C781.78 252.12 782.88 253.6 783.7 254.92L784.84 254.12C784.08 252.88 783 251.42 781.56 249.76ZM788.42 245.14H782.04C782.4 244.1 782.68 242.98 782.92 241.8L781.5 241.62C780.98 244.46 780.04 246.86 778.64 248.82L779.5 249.96C780.28 248.94 780.94 247.8 781.5 246.54H787C786.96 252.3 786.88 255.76 786.76 256.88C786.6 257.9 786.06 258.42 785.12 258.42C784.5 258.42 783.78 258.4 782.94 258.36L783.28 259.68C784.24 259.72 784.92 259.76 785.32 259.76C787 259.76 787.92 258.98 788.12 257.46C788.32 255.9 788.42 251.78 788.42 245.14ZM791.96 242.46V254.42H797.7V242.46H791.96ZM796.32 253.14H793.36V249.06H796.32V253.14ZM793.36 247.76V243.76H796.32V247.76H793.36ZM799.3 249.18V254.42H807.7V249.18H799.3ZM806.3 253.16H800.72V250.46H806.3V253.16ZM801.78 243.8C801.52 245.44 800.36 246.62 798.28 247.38L799.04 248.58C801.52 247.58 802.88 245.98 803.16 243.8H806.66C806.62 244.96 806.56 245.72 806.44 246.1C806.32 246.72 805.94 247.04 805.34 247.06C804.86 247.06 804.28 247.02 803.6 246.98L804 248.24C804.56 248.28 805.06 248.3 805.5 248.3C806.64 248.26 807.36 247.8 807.66 246.9C807.92 246.24 808.08 244.76 808.12 242.46H798.92V243.8H801.78ZM793.04 255.34C792.56 257.06 792 258.5 791.36 259.64L792.68 260.1C793.34 258.82 793.88 257.36 794.32 255.68L793.04 255.34ZM797.82 255.64L796.5 255.94C796.84 257.12 797.14 258.48 797.4 260.04L798.78 259.72C798.5 258.26 798.18 256.9 797.82 255.64ZM802.08 255.48L800.74 255.78C801.28 257 801.74 258.4 802.12 260L803.5 259.68C803.1 258.16 802.62 256.76 802.08 255.48ZM806.2 255.14L805.08 255.82C806.16 257.36 807.02 258.78 807.66 260.06L808.82 259.24C808.22 258.08 807.34 256.7 806.2 255.14ZM816.2 248.36H827.98V246.98H823.48V241.66H822.06V246.98H816.2V242.22H814.74V249.56C814.7 253.88 813.64 257.04 811.54 259.02L812.64 259.98C814.34 258.38 815.44 256.06 815.92 253.06H823.96V260.04H825.4V251.66H816.1C816.14 251 816.18 250.3 816.2 249.56V248.36ZM833.82 251.7V260H835.24V251.54C835.96 252.1 836.7 252.78 837.42 253.58L838.24 252.34C837.36 251.48 836.36 250.7 835.26 250.02C836.34 248.6 837.14 247.16 837.66 245.7V244.48H835.16L835.74 244.26C835.46 243.42 835.08 242.48 834.6 241.48L833.22 241.88C833.68 242.72 834.08 243.58 834.42 244.48H831.3V245.86H836.22C835.32 248.06 833.52 250.3 830.84 252.6L831.28 254.1C832.2 253.3 833.06 252.5 833.82 251.7ZM847.64 242.46H839.14V253.52H840.56V243.84H846.18V253.52H847.64V242.46ZM847.22 259.68C847.84 259.68 848.3 259.52 848.6 259.22C848.92 258.86 849.14 257.84 849.26 256.2L847.92 255.78C847.86 257.02 847.74 257.78 847.58 258.04C847.46 258.24 847.26 258.36 846.96 258.36H845.72C845.28 258.36 845.06 258.12 845.06 257.64V253.48H843.66V257.94C843.66 259.1 844.2 259.68 845.3 259.68H847.22ZM842.64 245.26V249.08C842.6 251.6 842.18 253.66 841.42 255.22C840.6 256.74 839.14 257.94 837.04 258.86L837.82 260.12C839.98 259.2 841.52 257.9 842.48 256.24C843.44 254.46 843.96 252.08 844.04 249.08V245.26H842.64ZM854.96 241.66V247.7H853.42V243.28H852.04V247.7H850.88V249.1H859.32V247.7H856.36V245.38H859.08V244.02H856.36V241.66H854.96ZM858.26 250.78C857.46 254.72 855.04 257.32 851.02 258.56L851.84 259.86C856.08 258.46 858.64 255.52 859.52 251.06L858.26 250.78ZM852.54 250.86C852.18 252.48 851.62 253.78 850.9 254.76L851.96 255.68C852.72 254.68 853.32 253.24 853.8 251.36L852.54 250.86ZM854.92 249.88V255.1H856.3V249.88H854.92ZM859.64 242.46V243.82H863.56C863.5 244.58 863.42 245.3 863.3 246.02H860.36V255.52H861.74V247.36H866.92V255.52H868.32V246.02H864.8C864.9 245.3 864.98 244.58 865.04 243.82H869.04V242.46H859.64ZM865.8 255.62L864.84 256.54C866.26 257.78 867.38 258.96 868.2 260.06L869.26 259C868.32 257.88 867.16 256.76 865.8 255.62ZM863.58 248.56V252.1C863.54 253.82 863.18 255.2 862.52 256.28C861.82 257.28 860.58 258.1 858.8 258.74L859.6 259.98C861.48 259.32 862.82 258.4 863.64 257.22C864.48 255.94 864.94 254.24 864.98 252.1V248.56H863.58ZM872.12 247.74V253.84H879.46V247.74H872.12ZM878.04 252.54H873.56V249.08H878.04V252.54ZM880.08 254.98C877.2 255.8 874.22 256.4 871.1 256.8L871.46 258.22C874.54 257.72 877.42 257.1 880.08 256.38V254.98ZM886.82 259.94C887.82 259.94 888.6 258.54 889.14 255.78L887.9 254.96C887.56 257.24 887.14 258.38 886.66 258.38C886.1 258.38 885.48 257.86 884.78 256.82C884.56 256.46 884.36 256.04 884.16 255.58C885.56 253.54 886.72 251.02 887.66 248L886.4 247.32C885.64 249.84 884.7 252.02 883.58 253.86C883.42 253.32 883.3 252.74 883.18 252.12C882.84 250.24 882.66 248.08 882.62 245.64H888.88V244.24H886.94C886.6 243.4 886.24 242.66 885.88 242L884.42 242.24C884.82 242.84 885.2 243.52 885.54 244.24H882.6V241.68H881.16V244.24H871.1V245.64H881.16C881.18 248.4 881.42 250.8 881.88 252.84C882.08 253.72 882.3 254.54 882.58 255.3C881.46 256.78 880.18 257.94 878.76 258.8L879.54 260.04C880.88 259.24 882.12 258.16 883.24 256.8C883.44 257.22 883.68 257.62 883.96 258C884.88 259.28 885.82 259.92 886.82 259.94ZM893.36 248.82C892.8 250.94 891.98 252.62 890.88 253.88L891.94 254.82C893.06 253.56 893.96 251.72 894.64 249.32L893.36 248.82ZM897.44 241.72V245.64H892.44V247.04H897.38C897.22 249.7 896.8 251.94 896.1 253.74C895.18 255.82 893.58 257.48 891.28 258.72L892.06 259.98C894.44 258.74 896.16 257.04 897.2 254.84C898.12 252.82 898.66 250.22 898.84 247.04H903.84C903.72 251.82 903.5 254.94 903.18 256.42C902.82 257.82 902.12 258.52 901.08 258.52C900.48 258.52 899.82 258.5 899.14 258.46L899.54 259.86H901.8C902.8 259.78 903.52 259.34 903.96 258.54C904.4 257.68 904.72 256.2 904.92 254.08C905.04 252.76 905.12 251.2 905.2 249.38C906.16 251.14 907.06 253.14 907.92 255.38L909.24 254.74C908.36 252.56 907.44 250.56 906.46 248.72L905.2 249.34C905.24 248.2 905.26 246.96 905.3 245.64H898.9C898.9 245.54 898.92 245.44 898.92 245.34V241.72H897.44ZM916.58 241.86C915.3 245.68 913.42 248.72 910.92 251L912.04 251.98C914.48 249.78 916.42 246.58 917.9 242.38L916.58 241.86ZM923.4 252.46L922.1 252.9C922.94 254.1 923.74 255.42 924.52 256.86C921.66 257.32 918.6 257.66 915.34 257.86C917.06 255.7 918.78 252.72 920.5 248.92L919.1 248.44C916.68 253.92 914.68 257.08 913.08 257.92L913.34 259.32C917.7 259.04 921.64 258.64 925.16 258.08C925.46 258.68 925.76 259.32 926.06 260L927.4 259.4C926.28 256.94 924.96 254.62 923.4 252.46ZM923.1 241.72L921.88 242.4C923.04 246.32 925.12 249.54 928.1 252.02L929.12 250.84C926.26 248.48 924.26 245.44 923.1 241.72ZM933.38 246.78V248.1H936.66C935.36 249.7 934.3 250.68 933.48 251.04C933.4 251.08 933.3 251.14 933.18 251.18L933.5 252.42C935.46 252.34 937.38 252.26 939.26 252.16V254.32H932.92V255.66H939.26V258.16H931.32V259.52H948.68V258.16H940.74V255.66H947.12V254.32H940.74V252.08C942.22 252 943.68 251.9 945.1 251.8C945.54 252.28 945.96 252.78 946.32 253.28L947.36 252.22C946.24 250.88 944.86 249.52 943.22 248.16L942.3 249.04C942.9 249.58 943.48 250.12 944.04 250.68C941.22 250.88 938.4 251.02 935.58 251.14C936.36 250.5 937.26 249.5 938.3 248.1H946.62V246.78H933.38ZM939.92 241.48L938.32 241.76C938.68 242.3 939.02 242.9 939.32 243.54H931.64V247.42H933.1V244.9H946.9V247.42H948.36V243.54H940.88C940.56 242.78 940.24 242.08 939.92 241.48ZM958.08 245.12H954.86C955.26 244.12 955.56 243.02 955.8 241.84L954.36 241.64C954.18 242.84 953.9 244 953.5 245.12H951.64V259.34H953.04V257.62H956.68V258.76H958.08V245.12ZM953.04 256.28V251.9H956.68V256.28H953.04ZM953.04 250.6V246.48H956.68V250.6H953.04ZM961.56 249.76L960.4 250.48C961.78 252.12 962.88 253.6 963.7 254.92L964.84 254.12C964.08 252.88 963 251.42 961.56 249.76ZM968.42 245.14H962.04C962.4 244.1 962.68 242.98 962.92 241.8L961.5 241.62C960.98 244.46 960.04 246.86 958.64 248.82L959.5 249.96C960.28 248.94 960.94 247.8 961.5 246.54H967C966.96 252.3 966.88 255.76 966.76 256.88C966.6 257.9 966.06 258.42 965.12 258.42C964.5 258.42 963.78 258.4 962.94 258.36L963.28 259.68C964.24 259.72 964.92 259.76 965.32 259.76C967 259.76 967.92 258.98 968.12 257.46C968.32 255.9 968.42 251.78 968.42 245.14ZM971.28 245.04V246.48H974.36C975.26 249.56 976.86 252.24 979.18 254.52C977.02 256.48 974.26 257.9 970.9 258.8L971.66 260.06C975.06 259.08 977.9 257.54 980.18 255.44C982.34 257.3 985.06 258.84 988.38 260.08L989.16 258.88C985.96 257.7 983.3 256.22 981.18 254.42C983.14 252.3 984.62 249.64 985.6 246.48H988.72V245.04H981.08C980.44 243.66 979.76 242.48 979 241.52L977.56 242.04C978.36 242.98 979.02 243.98 979.56 245.04H971.28ZM975.78 246.48H984.1C983.26 249.24 981.96 251.58 980.18 253.52C978.1 251.52 976.64 249.18 975.78 246.48ZM995.24 241.54C994.28 244.66 992.76 247.44 990.64 249.84L991.1 251.38C991.86 250.58 992.56 249.74 993.2 248.86V260.02H994.62V246.66C995.42 245.24 996.08 243.74 996.6 242.16L995.24 241.54ZM998.6 242.86C998.16 245.52 997.34 247.78 996.12 249.62L997.04 250.82C997.78 249.78 998.4 248.6 998.9 247.28H1002.3V252.1H996.42V253.48H1002.3V259.92H1003.74V253.48H1009.08V252.1H1003.74V247.28H1008.34V245.88H1003.74V241.72H1002.3V245.88H999.36C999.64 245 999.86 244.04 1000.02 243.04L998.6 242.86ZM1015.18 243.44C1013.74 243.44 1012.62 243.88 1011.82 244.76C1011.02 245.6 1010.64 246.72 1010.64 248.12H1012.22C1012.22 247.14 1012.44 246.38 1012.88 245.82C1013.36 245.16 1014.1 244.84 1015.1 244.84C1015.94 244.84 1016.6 245.06 1017.06 245.54C1017.5 245.98 1017.74 246.6 1017.74 247.4C1017.74 247.96 1017.54 248.48 1017.14 248.98C1017.02 249.14 1016.78 249.38 1016.46 249.7C1015.38 250.66 1014.72 251.42 1014.44 252.02C1014.2 252.52 1014.08 253.1 1014.08 253.76V254.22H1015.68V253.76C1015.68 253.22 1015.8 252.74 1016.06 252.3C1016.26 251.94 1016.56 251.58 1017 251.2C1017.88 250.42 1018.42 249.9 1018.62 249.66C1019.12 249 1019.38 248.22 1019.38 247.32C1019.38 246.12 1019 245.18 1018.26 244.5C1017.48 243.78 1016.46 243.44 1015.18 243.44ZM1014.88 255.62C1014.54 255.62 1014.26 255.72 1014.02 255.96C1013.78 256.18 1013.68 256.46 1013.68 256.8C1013.68 257.14 1013.78 257.42 1014.02 257.66C1014.26 257.88 1014.54 258 1014.88 258C1015.22 258 1015.5 257.88 1015.74 257.66C1015.98 257.44 1016.1 257.16 1016.1 256.8C1016.1 256.46 1015.98 256.18 1015.76 255.96C1015.52 255.72 1015.22 255.62 1014.88 255.62Z"
       fill="black"
       fill-opacity="0.7"
       id="path2722" />
  </g>
  <defs
     id="defs2768">
    <filter
       id="filter0_f"
       x="484"
       y="472"
       width="469"
       height="102"
       filterUnits="userSpaceOnUse"
       color-interpolation-filters="sRGB">
      <feFlood
         flood-opacity="0"
         result="BackgroundImageFix"
         id="feFlood2726" />
      <feBlend
         mode="normal"
         in="SourceGraphic"
         in2="BackgroundImageFix"
         result="shape"
         id="feBlend2728" />
      <feGaussianBlur
         stdDeviation="11.5"
         result="effect1_foregroundBlur"
         id="feGaussianBlur2730" />
    </filter>
    <filter
       id="filter1_f"
       x="482"
       y="500"
       width="234"
       height="85"
       filterUnits="userSpaceOnUse"
       color-interpolation-filters="sRGB">
      <feFlood
         flood-opacity="0"
         result="BackgroundImageFix"
         id="feFlood2736" />
      <feBlend
         mode="normal"
         in="SourceGraphic"
         in2="BackgroundImageFix"
         result="shape"
         id="feBlend2738" />
      <feGaussianBlur
         stdDeviation="11.5"
         result="effect1_foregroundBlur"
         id="feGaussianBlur2740" />
    </filter>
    <linearGradient
       id="paint0_linear"
       x1="-25.5"
       y1="79.0001"
       x2="1385"
       y2="600"
       gradientUnits="userSpaceOnUse">
      <stop
         stop-color="white"
         id="stop2746" />
      <stop
         offset="0.414092"
         stop-color="#EEEEEE"
         id="stop2748" />
      <stop
         offset="1"
         stop-color="#E0E0E0"
         id="stop2750" />
    </linearGradient>
    <radialGradient
       id="paint1_radial"
       cx="0"
       cy="0"
       r="1"
       gradientUnits="userSpaceOnUse"
       gradientTransform="translate(717.251 530) rotate(90) scale(60.4467 302.739)">
      <stop
         id="stop2753" />
      <stop
         offset="1"
         stop-opacity="0.5"
         id="stop2755" />
    </radialGradient>
    <radialGradient
       id="paint2_radial"
       cx="0"
       cy="0"
       r="1"
       gradientUnits="userSpaceOnUse"
       gradientTransform="translate(598.445 547.375) rotate(90) scale(42.0968 134.551)">
      <stop
         id="stop2758" />
      <stop
         offset="1"
         stop-opacity="0.5"
         id="stop2760" />
    </radialGradient>
    <clipPath
       id="clip0">
      <rect
         width="1440"
         height="600"
         fill="white"
         id="rect2763" />
    </clipPath>
  </defs>
</svg>
