<?xml version="1.0" encoding="UTF-8" standalone="no"?>
<svg
   width="1440"
   height="600"
   viewBox="0 0 1440 600"
   fill="none"
   version="1.1"
   id="svg962"
   sodipodi:docname="banner3.svg"
   inkscape:version="1.1 (c4e8f9e, 2021-05-24)"
   xmlns:inkscape="http://www.inkscape.org/namespaces/inkscape"
   xmlns:sodipodi="http://sodipodi.sourceforge.net/DTD/sodipodi-0.dtd"
   xmlns="http://www.w3.org/2000/svg"
   xmlns:svg="http://www.w3.org/2000/svg">
  <sodipodi:namedview
     id="namedview964"
     pagecolor="#ffffff"
     bordercolor="#666666"
     borderopacity="1.0"
     inkscape:pageshadow="2"
     inkscape:pageopacity="0.0"
     inkscape:pagecheckerboard="0"
     showgrid="false"
     inkscape:zoom="0.80416667"
     inkscape:cx="720.62176"
     inkscape:cy="300.31088"
     inkscape:window-width="1440"
     inkscape:window-height="799"
     inkscape:window-x="0"
     inkscape:window-y="23"
     inkscape:window-maximized="1"
     inkscape:current-layer="svg962" />
  <rect
     width="1440"
     height="600"
     fill="#ffffff"
     id="rect824"
     x="0"
     y="0"
     style="display:inline" />
  <path
     d="M339.023 133.44V162H349.463C354.103 162 357.583 160.72 359.983 158.16C362.263 155.72 363.423 152.24 363.423 147.72C363.423 143.16 362.263 139.68 359.983 137.28C357.583 134.72 354.103 133.44 349.463 133.44H339.023ZM343.703 137.44H348.583C352.143 137.44 354.743 138.24 356.383 139.88C357.983 141.48 358.783 144.12 358.783 147.72C358.783 151.24 357.983 153.84 356.383 155.52C354.743 157.16 352.143 158 348.583 158H343.703V137.44ZM367.812 133.44V162H378.252C382.892 162 386.372 160.72 388.772 158.16C391.052 155.72 392.212 152.24 392.212 147.72C392.212 143.16 391.052 139.68 388.772 137.28C386.372 134.72 382.892 133.44 378.252 133.44H367.812ZM372.492 137.44H377.372C380.932 137.44 383.532 138.24 385.172 139.88C386.772 141.48 387.572 144.12 387.572 147.72C387.572 151.24 386.772 153.84 385.172 155.52C383.532 157.16 380.932 158 377.372 158H372.492V137.44ZM396.601 133.44V162H401.281V141.12H401.441L415.721 162H420.281V133.44H415.561V154.04H415.401L401.281 133.44H396.601ZM435.978 132.88C432.898 132.88 430.378 133.56 428.378 134.96C426.218 136.4 425.178 138.4 425.178 140.92C425.178 143.44 426.258 145.36 428.458 146.68C429.298 147.16 431.498 147.96 435.018 149.08C438.178 150.04 440.018 150.68 440.578 150.96C442.338 151.84 443.258 153.04 443.258 154.56C443.258 155.76 442.618 156.68 441.418 157.4C440.218 158.08 438.538 158.44 436.458 158.44C434.098 158.44 432.378 158 431.258 157.2C430.018 156.28 429.258 154.72 428.938 152.56H424.298C424.498 156.2 425.818 158.84 428.218 160.52C430.178 161.88 432.938 162.56 436.458 162.56C440.098 162.56 442.938 161.8 444.938 160.36C446.938 158.88 447.938 156.84 447.938 154.28C447.938 151.64 446.698 149.6 444.218 148.12C443.098 147.48 440.618 146.52 436.738 145.32C434.098 144.48 432.458 143.88 431.858 143.56C430.498 142.84 429.858 141.84 429.858 140.64C429.858 139.28 430.418 138.28 431.618 137.68C432.578 137.16 433.938 136.92 435.738 136.92C437.818 136.92 439.418 137.28 440.458 138.08C441.498 138.84 442.258 140.12 442.658 141.88H447.298C447.018 138.76 445.858 136.44 443.858 134.96C441.978 133.56 439.338 132.88 435.978 132.88ZM449.752 133.44V137.44H459.112V162H463.792V137.44H473.152V133.44H449.752ZM489.242 132.88C484.842 132.88 481.402 134.28 478.922 137.16C476.522 139.88 475.362 143.4 475.362 147.76C475.362 152.08 476.522 155.6 478.922 158.32C481.402 161.12 484.842 162.56 489.242 162.56C493.602 162.56 497.042 161.16 499.562 158.36C501.962 155.68 503.162 152.16 503.162 147.76C503.162 143.36 501.962 139.8 499.562 137.12C497.042 134.28 493.602 132.88 489.242 132.88ZM489.242 137C492.202 137 494.482 137.92 496.082 139.84C497.642 141.76 498.442 144.4 498.442 147.76C498.442 151.12 497.642 153.72 496.082 155.6C494.482 157.48 492.202 158.44 489.242 158.44C486.282 158.44 483.962 157.44 482.362 155.48C480.802 153.56 480.042 151 480.042 147.76C480.042 144.48 480.802 141.92 482.362 140C484.002 138 486.282 137 489.242 137Z"
     fill="#0060FF"
     id="path828" />
  <path
     d="M523.017 127.6V167.6H526.537V127.6H523.017Z"
     fill="black"
     fill-opacity="0.1"
     id="path830" />
  <path
     d="M568.057 129.2V161.04H559.737V164.76H583.537V161.04H571.977V145.36H582.017V141.68H571.977V129.2H568.057ZM551.697 129.48L549.057 132.08C551.897 134.2 554.097 136.2 555.697 138.08L558.297 135.44C556.497 133.44 554.297 131.48 551.697 129.48ZM546.417 141.12V144.76H552.017V159.68C552.017 160.4 551.657 161.04 550.977 161.52L552.417 164.96C555.337 163.12 558.057 161 560.617 158.6L559.617 154.6C558.257 155.92 556.937 157.12 555.657 158.16V141.12H546.417ZM590.937 145.04V166.12H594.737V139.56C596.417 136.76 597.737 133.76 598.777 130.64L595.217 128.96C593.257 135.12 590.177 140.52 586.017 145.16L587.257 149.2C588.537 147.84 589.777 146.48 590.937 145.04ZM617.857 145.12L614.497 146.24C616.337 150.72 618.017 155.84 619.537 161.64L622.857 160.12C621.457 154.8 619.777 149.8 617.857 145.12ZM603.737 137.44H617.937C617.377 139.28 616.657 140.96 615.857 142.4L619.497 143.44C620.457 141.04 621.217 138.64 621.857 136.24V133.76H605.057C605.457 132.56 605.817 131.28 606.177 129.96L602.617 129.2C601.377 134.32 599.257 139.08 596.257 143.52L599.537 145.56C601.137 143.08 602.537 140.4 603.737 137.44ZM608.337 165.84C610.897 165.84 612.177 164.52 612.177 161.92V140.36H608.497V160.96C608.497 162 608.017 162.52 607.057 162.52C605.577 162.52 604.017 162.4 602.377 162.24L603.217 165.84H608.337ZM601.977 145.52C600.377 151.24 598.497 155.96 596.377 159.68L599.937 160.96C602.177 156.8 603.977 152 605.377 146.48L601.977 145.52ZM627.737 130.56V165.76H631.217V133.92H634.937C634.377 136.96 633.537 140.32 632.457 144.08C634.217 147.16 635.097 149.92 635.097 152.36C635.097 153.08 635.017 153.56 634.857 153.88C634.697 154.12 634.417 154.28 634.017 154.36C633.377 154.36 632.537 154.28 631.577 154.2L632.697 157.68C634.977 157.64 636.577 157.12 637.537 156.16C638.177 155.44 638.537 154.16 638.537 152.36C638.377 149.88 637.497 146.92 635.897 143.52C636.857 140 637.697 136.64 638.417 133.4V130.56H627.737ZM641.537 131.4L638.777 133.12C640.137 135.48 641.257 137.64 642.097 139.64L644.897 137.72C644.137 135.92 643.017 133.8 641.537 131.4ZM655.177 162C653.777 162 652.377 161.96 650.977 161.92C649.537 161.84 648.297 161.56 647.217 161.12C646.137 160.56 645.257 159.88 644.537 159V142.36H638.057V145.72H641.017V158.32C639.657 159.08 638.017 160.72 636.177 163.24L638.377 166.12C640.497 163.04 641.897 161.52 642.617 161.52C642.977 161.52 643.417 161.76 643.897 162.32C644.737 163.4 645.777 164.2 647.057 164.68C648.377 165.12 649.857 165.36 651.537 165.4C652.657 165.44 653.777 165.48 654.897 165.48H662.297L663.217 161.92C660.697 161.96 658.017 162 655.177 162ZM645.577 132.76V136.2H650.097C648.857 140.28 647.017 143.68 644.577 146.36L646.497 148.84C647.297 148.12 648.097 147.24 648.897 146.24V160.44H652.097V153.84H658.137V156.08C658.137 156.88 657.817 157.28 657.217 157.28C656.417 157.28 655.617 157.2 654.737 157.12L655.617 160.32H658.297C660.417 160.24 661.497 159.2 661.497 157.16V139.48H652.537C652.937 138.44 653.337 137.36 653.697 136.2H662.897V132.76H654.617C654.817 131.8 655.017 130.76 655.257 129.72L651.577 129.24C651.417 130.44 651.217 131.64 650.977 132.76H645.577ZM652.097 148.24H658.137V150.8H652.097V148.24ZM658.137 145.24H652.097V142.44H658.137V145.24ZM679.857 131.96H667.657V162.88H671.377V159.44H676.177V161.92H679.857V131.96ZM671.377 155.92V147.24H676.177V155.92H671.377ZM671.377 143.68V135.4H676.177V143.68H671.377ZM685.857 144.04L682.697 146C685.017 149.68 686.897 153.04 688.297 156L691.457 153.8C690.177 151 688.297 147.76 685.857 144.04ZM694.577 165.72C697.257 165.72 698.617 164.36 698.617 161.64V139.88H703.097V136.24H698.617V129.52H694.737V136.24H681.417V139.88H694.737V160.68C694.737 161.72 694.257 162.24 693.297 162.24C691.177 162.24 688.977 162.16 686.657 162.04L687.497 165.72H694.577ZM707.737 130.56V165.76H711.217V133.92H714.937C714.377 136.96 713.537 140.32 712.457 144.08C714.217 147.16 715.097 149.92 715.097 152.36C715.097 153.08 715.017 153.56 714.857 153.88C714.697 154.12 714.417 154.28 714.017 154.36C713.377 154.36 712.537 154.28 711.577 154.2L712.697 157.68C714.977 157.64 716.577 157.12 717.537 156.16C718.177 155.44 718.537 154.16 718.537 152.36C718.377 149.88 717.497 146.92 715.897 143.52C716.857 140 717.697 136.64 718.417 133.4V130.56H707.737ZM721.537 131.4L718.777 133.12C720.137 135.48 721.257 137.64 722.097 139.64L724.897 137.72C724.137 135.92 723.017 133.8 721.537 131.4ZM735.177 162C733.777 162 732.377 161.96 730.977 161.92C729.537 161.84 728.297 161.56 727.217 161.12C726.137 160.56 725.257 159.88 724.537 159V142.36H718.057V145.72H721.017V158.32C719.657 159.08 718.017 160.72 716.177 163.24L718.377 166.12C720.497 163.04 721.897 161.52 722.617 161.52C722.977 161.52 723.417 161.76 723.897 162.32C724.737 163.4 725.777 164.2 727.057 164.68C728.377 165.12 729.857 165.36 731.537 165.4C732.657 165.44 733.777 165.48 734.897 165.48H742.297L743.217 161.92C740.697 161.96 738.017 162 735.177 162ZM725.577 132.76V136.2H730.097C728.857 140.28 727.017 143.68 724.577 146.36L726.497 148.84C727.297 148.12 728.097 147.24 728.897 146.24V160.44H732.097V153.84H738.137V156.08C738.137 156.88 737.817 157.28 737.217 157.28C736.417 157.28 735.617 157.2 734.737 157.12L735.617 160.32H738.297C740.417 160.24 741.497 159.2 741.497 157.16V139.48H732.537C732.937 138.44 733.337 137.36 733.697 136.2H742.897V132.76H734.617C734.817 131.8 735.017 130.76 735.257 129.72L731.577 129.24C731.417 130.44 731.217 131.64 730.977 132.76H725.577ZM732.097 148.24H738.137V150.8H732.097V148.24ZM738.137 145.24H732.097V142.44H738.137V145.24ZM782.057 136.52L773.537 139.16V129.2H769.857V140.28L764.977 141.76V133.28H761.257V142.92L758.457 143.76V147.48L761.257 146.64V160.92C761.257 163.88 762.737 165.4 765.737 165.4H778.417C779.897 165.4 781.017 165 781.777 164.24C782.577 163.44 783.097 160.92 783.417 156.76L779.897 155.64C779.737 158.68 779.497 160.44 779.137 161C778.817 161.56 778.337 161.84 777.697 161.84H766.897C765.617 161.84 764.977 161.28 764.977 160.16V145.52L769.857 144.04V157.6H773.537V142.92L778.417 141.48C778.377 146.16 778.297 148.88 778.137 149.6C777.977 150.4 777.497 150.84 776.737 150.84C776.137 150.84 775.457 150.8 774.657 150.76L775.777 154.48H775.937C779.137 154.48 780.937 153.56 781.377 151.8C781.817 150 782.057 144.92 782.057 136.52ZM758.937 153.36C757.497 154.04 756.017 154.68 754.537 155.24V143.2H758.377V139.52H754.537V129.44H750.817V139.52H746.577V143.2H750.817V156.52C749.257 156.96 747.657 157.36 746.057 157.68L747.017 161.52C751.257 160.32 755.217 158.88 758.937 157.16V153.36ZM786.937 136.24V139.88H791.137V148.6C789.537 149.16 787.897 149.6 786.297 149.96L787.257 153.6C788.537 153.2 789.857 152.72 791.137 152.24V160.76C791.137 161.8 790.657 162.36 789.777 162.36C788.857 162.36 787.897 162.28 786.897 162.12L787.697 165.64H791.057C793.537 165.64 794.817 164.32 794.817 161.68V150.72C796.137 150.16 797.457 149.52 798.737 148.84V145.2C797.457 145.92 796.137 146.56 794.817 147.16V139.88H798.817V136.24H794.817V129.24H791.137V136.24H786.937ZM799.977 165.04C802.777 164.12 805.177 163.2 807.257 162.32L806.617 159.04C805.777 159.44 804.897 159.8 804.017 160.2V147.36H811.617C811.817 149.36 812.097 151.16 812.457 152.76C813.377 157.2 814.537 160.48 815.937 162.64C817.297 164.72 818.617 165.8 819.897 165.8C821.377 165.8 822.497 162.84 823.297 156.92L820.137 155.2C819.817 159.28 819.537 161.32 819.297 161.36C818.897 161.36 818.377 160.56 817.697 159C816.977 157.4 816.297 154.84 815.697 151.36C815.497 150.24 815.337 148.88 815.217 147.36H822.417V143.68H814.977C814.817 141.16 814.737 138.2 814.697 134.76C817.337 134.24 819.617 133.72 821.577 133.16L819.377 130C814.737 131.28 808.417 132.48 800.337 133.52V159.92C800.337 160.88 799.897 161.52 799.017 161.84L799.977 165.04ZM811.297 143.68H804.017V136.44C806.497 136.12 808.817 135.76 810.977 135.44C810.977 138.4 811.097 141.16 811.297 143.68ZM810.137 157L807.457 158.88C809.297 161.56 810.737 164 811.817 166.24L814.697 164.24C813.617 162.16 812.097 159.72 810.137 157ZM829.977 129.6L827.377 132.12C830.257 134.44 832.497 136.6 834.097 138.6L836.897 135.8C834.977 133.72 832.697 131.68 829.977 129.6ZM854.017 165.44H862.497L863.417 161.6C862.377 161.68 860.937 161.76 859.057 161.84C857.137 161.84 855.297 161.88 853.497 161.88C850.257 161.88 847.457 161.84 845.097 161.8C842.617 161.72 840.737 161.4 839.497 160.84C838.457 160.32 837.457 159.52 836.457 158.48C836.257 158.24 836.057 158.04 835.857 157.88V142.68H826.777V146.36H832.217V157.6C830.617 158.44 828.777 160.52 826.737 163.84L829.537 166.44C831.617 162.72 833.097 160.88 833.937 160.88C834.417 160.88 834.977 161.2 835.537 161.88C836.737 163.24 838.217 164.2 839.937 164.68C841.617 165.08 843.857 165.32 846.577 165.36C849.257 165.4 851.737 165.44 854.017 165.44ZM838.897 137.8V141.48H846.897C845.497 148.2 842.457 153.08 837.777 156.08L840.097 159.2C844.097 156.52 847.057 152.68 848.977 147.64C852.737 151.2 856.217 155.04 859.417 159.2L862.137 156.48C857.577 151.16 853.537 147.04 850.097 144.12C850.297 143.28 850.497 142.4 850.697 141.48H860.937V137.8H851.257C851.497 135.68 851.617 133.44 851.617 131.08V129.24H847.817V131.92C847.777 133.92 847.657 135.88 847.457 137.8H838.897ZM870.937 145.04V166.12H874.737V139.56C876.417 136.76 877.737 133.76 878.777 130.64L875.217 128.96C873.257 135.12 870.177 140.52 866.017 145.16L867.257 149.2C868.537 147.84 869.777 146.48 870.937 145.04ZM897.857 145.12L894.497 146.24C896.337 150.72 898.017 155.84 899.537 161.64L902.857 160.12C901.457 154.8 899.777 149.8 897.857 145.12ZM883.737 137.44H897.937C897.377 139.28 896.657 140.96 895.857 142.4L899.497 143.44C900.457 141.04 901.217 138.64 901.857 136.24V133.76H885.057C885.457 132.56 885.817 131.28 886.177 129.96L882.617 129.2C881.377 134.32 879.257 139.08 876.257 143.52L879.537 145.56C881.137 143.08 882.537 140.4 883.737 137.44ZM888.337 165.84C890.897 165.84 892.177 164.52 892.177 161.92V140.36H888.497V160.96C888.497 162 888.017 162.52 887.057 162.52C885.577 162.52 884.017 162.4 882.377 162.24L883.217 165.84H888.337ZM881.977 145.52C880.377 151.24 878.497 155.96 876.377 159.68L879.937 160.96C882.177 156.8 883.977 152 885.377 146.48L881.977 145.52ZM921.297 135.8H915.137C915.897 133.88 916.497 131.84 916.897 129.64L913.097 129.12C912.777 131.44 912.217 133.64 911.497 135.8H907.697V164.8H911.337V161.56H917.657V163.64H921.297V135.8ZM911.337 158.04V150.16H917.657V158.04H911.337ZM911.337 146.76V139.4H917.657V146.76H911.337ZM928.497 145.4L925.417 147.32C927.977 150.56 930.057 153.48 931.577 156.12L934.577 154C933.177 151.52 931.137 148.68 928.497 145.4ZM941.937 135.84H929.577C930.217 133.88 930.777 131.8 931.177 129.56L927.417 129.08C926.457 134.6 924.617 139.28 921.977 143.12L924.257 146.12C925.777 144.12 927.057 141.92 928.177 139.52H938.217C938.137 150.92 938.017 157.64 937.777 159.64C937.537 161.32 936.617 162.16 935.017 162.16C933.737 162.16 932.217 162.08 930.457 162L931.377 165.48C933.377 165.6 934.817 165.68 935.617 165.68C939.017 165.68 940.937 164.24 941.337 161.36C941.737 158.16 941.937 149.64 941.937 135.84ZM977.337 145.4L973.977 146.56C975.297 150.36 976.457 154.28 977.497 158.36C974.337 159 970.617 159.6 966.297 160.24L974.577 130.8L970.777 130.28L962.577 159.8C962.417 160.36 961.817 160.8 960.777 161.08L961.497 164.72C967.537 163.84 973.177 162.92 978.377 161.92C978.697 163.28 978.977 164.68 979.297 166.12L983.057 165.16C981.377 157.72 979.497 151.16 977.337 145.4ZM947.297 139.68V143.32H953.817C952.297 147.36 949.817 150.96 946.457 154.16L948.177 158.48C950.577 155.64 952.537 152.52 954.097 149.12V166H957.897V148.16C958.937 149.6 960.137 151.52 961.577 153.84L963.737 150.64C961.777 148.4 959.817 146.4 957.897 144.6V143.32H964.057V139.68H957.897V134.16C960.097 133.76 962.177 133.32 964.137 132.84L962.817 129.32C958.337 130.52 953.217 131.32 947.457 131.72L948.257 135.36C950.257 135.2 952.217 134.96 954.097 134.72V139.68H947.297ZM1006.58 129.28H1002.74C1002.74 130.8 1002.7 132.88 1002.7 135.56C1002.38 147.04 996.817 156.04 986.017 162.6L988.337 166C996.737 160.56 1002.26 153.68 1004.9 145.36C1007.94 153.92 1013.3 160.8 1020.98 165.92L1023.5 162.6C1014.38 157 1008.62 148.88 1006.3 138.24C1006.46 135.76 1006.58 132.8 1006.58 129.28ZM1043.22 156.88L1045.74 154.4C1044.22 152.08 1042.78 149.96 1041.42 148.04C1042.38 144.72 1043.14 141.04 1043.74 137.04L1040.26 136.44C1039.86 139.28 1039.34 141.96 1038.74 144.48C1037.22 142.56 1035.86 140.92 1034.58 139.56L1032.26 141.84C1034.1 144 1035.86 146.2 1037.54 148.52C1036.26 152.32 1034.7 155.64 1032.82 158.48L1035.26 161.44C1037.1 158.8 1038.7 155.68 1040.06 152.08C1041.14 153.6 1042.18 155.2 1043.22 156.88ZM1054.74 158.8L1057.3 156.28C1055.7 153.64 1054.18 151.24 1052.74 149.04C1053.86 145.48 1054.78 141.52 1055.5 137.16L1051.98 136.56C1051.5 139.6 1050.9 142.52 1050.18 145.24C1048.74 143.2 1047.38 141.48 1046.1 140.04L1043.74 142.28C1045.5 144.52 1047.22 146.88 1048.9 149.36C1047.5 153.2 1045.78 156.56 1043.7 159.48L1046.1 162.4C1048.1 159.76 1049.82 156.64 1051.3 153.04C1052.46 154.88 1053.62 156.8 1054.74 158.8ZM1057.1 165.88C1059.74 165.88 1061.1 164.52 1061.1 161.8V130.6H1028.46V166.12H1032.22V134.24H1057.34V160.96C1057.34 161.88 1056.82 162.36 1055.86 162.36L1052.1 162.2L1053.1 165.88H1057.1ZM1080.9 157.6C1076.94 159.04 1072.34 160.16 1067.1 161.04L1067.54 164.76C1072.58 163.84 1077.02 162.64 1080.9 161.16V157.6ZM1073.22 129.04C1071.78 133.44 1070.14 137.4 1068.22 141C1067.74 141.68 1067.22 142.16 1066.62 142.4L1067.58 145.84C1069.58 145.52 1071.5 145.24 1073.34 144.96C1071.54 148.24 1070.02 150.56 1068.82 151.92C1068.38 152.36 1067.82 152.72 1067.14 153L1068.14 156.4C1071.9 155.88 1075.9 154.88 1080.14 153.36V149.96C1077.58 150.88 1075.06 151.64 1072.58 152.2C1074.58 149.52 1077.06 145.28 1080.02 139.52L1082.14 142.36C1083.26 141.44 1084.3 140.44 1085.3 139.32C1086.22 140.8 1087.3 142.2 1088.58 143.48C1085.94 145.28 1082.74 146.84 1079.06 148.16L1081.38 151.24C1085.22 149.76 1088.54 148 1091.34 145.96C1094.14 148.16 1097.54 149.88 1101.5 151.08L1103.62 147.96C1100.02 146.92 1096.86 145.48 1094.14 143.64C1096.74 141.2 1098.7 138.4 1100.02 135.28V132.52H1089.54C1089.86 131.64 1090.18 130.76 1090.46 129.88L1086.86 129.2C1085.7 133.08 1083.5 136.4 1080.22 139.12C1080.3 138.92 1080.38 138.72 1080.5 138.56L1077.22 137.36C1076.5 138.8 1075.82 140.2 1075.14 141.56C1073.78 141.8 1072.42 141.96 1071.06 142.12C1072.98 139.16 1074.9 135.24 1076.78 130.4L1073.22 129.04ZM1087.34 136.6L1087.82 135.88H1095.9C1094.74 137.88 1093.22 139.68 1091.3 141.36C1089.78 140 1088.46 138.4 1087.34 136.6ZM1100.02 150.72H1083.02V165.8H1086.66V164.32H1096.38V165.8H1100.02V150.72ZM1086.66 160.88V154.16H1096.38V160.88H1086.66Z"
     fill="black"
     id="path832" />
  <path
     d="M422.42 208.32V219.02H423.84V208.32H422.42ZM435.8 218.94C437.04 218.94 437.68 218.36 437.68 217.2V206.16H428.5V207.48H436.26V216.8C436.26 217.38 436 217.68 435.5 217.68L433.62 217.64L433.96 218.94H435.8ZM426.42 209.26V216.8H433.64V209.26H426.42ZM432.3 215.58H427.8V213.58H432.3V215.58ZM427.8 212.42V210.46H432.3V212.42H427.8ZM424.44 205.34L423.38 206C424.4 206.92 425.22 207.76 425.82 208.5L426.88 207.76C426.32 207.06 425.5 206.26 424.44 205.34ZM423.98 203.36H425.36C425.9 204.14 426.38 204.96 426.78 205.82L428.06 205.34C427.78 204.72 427.38 204.06 426.88 203.36H429.88V202.1H424.6C424.76 201.72 424.92 201.32 425.08 200.9L423.68 200.6C423.12 202.2 422.24 203.68 421.04 205.02L422.26 205.8C422.9 205.06 423.46 204.24 423.98 203.36ZM432.48 203.36H434.02C434.56 204.1 435.02 204.86 435.42 205.66L436.7 205.18C436.4 204.62 436.02 204 435.56 203.36H438.88V202.1H433.04C433.2 201.72 433.34 201.32 433.46 200.92L432.08 200.62C431.64 202.1 430.92 203.44 429.92 204.68L431.14 205.46C431.64 204.82 432.08 204.12 432.48 203.36ZM443.02 203.78V212H449.28V213.9H441.12V215.26H449.28V219.06H450.72V215.26H458.88V213.9H450.72V212H456.98V203.78H453.14C453.74 202.96 454.28 202.04 454.76 201.02L453.36 200.52C452.86 201.68 452.28 202.78 451.64 203.78H443.02ZM455.58 210.72H450.72V208.48H455.58V210.72ZM449.28 210.72H444.42V208.48H449.28V210.72ZM444.42 207.24V205.04H449.28V207.24H444.42ZM450.72 205.04H455.58V207.24H450.72V205.04ZM446.56 200.62L445.34 201.2C446.02 201.96 446.64 202.8 447.24 203.76L448.44 203.16C447.84 202.24 447.22 201.38 446.56 200.62ZM463.46 214.2L462.56 215.04C463.3 215.6 464.04 216.26 464.78 217.06C465.42 217.74 466 218.42 466.48 219.1L467.48 218.26C467 217.58 466.42 216.88 465.76 216.2C465 215.4 464.22 214.74 463.46 214.2ZM488.04 203.72V205.06H491.6V206.8C491.6 207.84 491.52 208.84 491.38 209.76H487.22V211.16H491.1C490.34 214.18 488.66 216.36 486.1 217.72L486.98 218.9C489.64 217.38 491.42 215.04 492.32 211.84C493.58 214.68 495.58 217.02 498.3 218.88L499.28 217.76C496.58 216.08 494.6 213.88 493.36 211.16H498.82V209.76H497.26V203.72H493V200.7H491.6V203.72H488.04ZM493 205.06H495.86V209.76H492.76C492.92 208.74 493 207.66 493 206.5V205.06ZM481.52 204.52C481.46 206.44 481.2 208.26 480.76 209.98L481.94 210.32C482.36 208.52 482.6 206.6 482.66 204.6L481.52 204.52ZM486.56 204.08L485.48 204.42C486.04 205.82 486.5 207.26 486.86 208.76L488.04 208.48C487.6 206.82 487.12 205.36 486.56 204.08ZM483.66 200.72V218.92H485.08V200.72H483.66ZM507.08 202.3V203.62H512.18V205.32H507.82V210.42H511.24C510.3 211.96 508.74 213.3 506.54 214.42L507.44 215.56C509.58 214.3 511.16 212.78 512.18 211V216.54H513.52V210.42H517.88V205.32H513.52V203.62H518.54V202.3H513.52V200.68H512.18V202.3H507.08ZM516.56 209.14H513.52V206.58H516.56V209.14ZM512.18 209.14H509.16V206.58H512.18V209.14ZM515.1 211.02L514.16 211.9C515.68 213.14 516.86 214.3 517.74 215.42L518.7 214.46C517.72 213.3 516.52 212.16 515.1 211.02ZM502.52 200.98L501.54 201.92C503 203.04 504.14 204.1 504.98 205.1L506 204.1C505.06 203.06 503.9 202.02 502.52 200.98ZM514.18 218.64H518.78L519.14 217.2C518.62 217.24 517.86 217.26 516.88 217.28C515.9 217.3 514.94 217.32 513.98 217.32C512.42 217.32 511.1 217.3 510.04 217.28C508.84 217.24 507.94 217.08 507.32 216.8C506.76 216.54 506.24 216.12 505.76 215.54C505.58 215.34 505.42 215.2 505.26 215.08V207.6H501.08V208.92H503.92V215C503.12 215.36 502.18 216.38 501.14 218.06L502.22 219.04C503.3 217.2 504.08 216.28 504.56 216.28C504.8 216.28 505.06 216.44 505.34 216.78C505.96 217.5 506.66 218 507.46 218.24C508.26 218.46 509.32 218.58 510.6 218.6C511.88 218.62 513.08 218.64 514.18 218.64ZM528.08 204.12H524.86C525.26 203.12 525.56 202.02 525.8 200.84L524.36 200.64C524.18 201.84 523.9 203 523.5 204.12H521.64V218.34H523.04V216.62H526.68V217.76H528.08V204.12ZM523.04 215.28V210.9H526.68V215.28H523.04ZM523.04 209.6V205.48H526.68V209.6H523.04ZM531.56 208.76L530.4 209.48C531.78 211.12 532.88 212.6 533.7 213.92L534.84 213.12C534.08 211.88 533 210.42 531.56 208.76ZM538.42 204.14H532.04C532.4 203.1 532.68 201.98 532.92 200.8L531.5 200.62C530.98 203.46 530.04 205.86 528.64 207.82L529.5 208.96C530.28 207.94 530.94 206.8 531.5 205.54H537C536.96 211.3 536.88 214.76 536.76 215.88C536.6 216.9 536.06 217.42 535.12 217.42C534.5 217.42 533.78 217.4 532.94 217.36L533.28 218.68C534.24 218.72 534.92 218.76 535.32 218.76C537 218.76 537.92 217.98 538.12 216.46C538.32 214.9 538.42 210.78 538.42 204.14ZM549.94 208.86C551.82 210.78 553.36 212.6 554.52 214.32L555.6 213.22C554.18 211.32 552.44 209.38 550.36 207.42C550.52 206.76 550.64 206.04 550.74 205.28H556.46V216.44C556.46 217.08 556.14 217.42 555.5 217.42L552.44 217.34L552.84 218.78H555.98C557.26 218.78 557.92 218.1 557.92 216.76V203.88H550.9C550.98 202.88 551.04 201.78 551.04 200.6H549.58C549.58 201.76 549.52 202.86 549.42 203.88H542.1V218.98H543.56V205.28H549.26C549.12 206.2 548.94 207.04 548.72 207.82C548 210.04 546.52 211.88 544.28 213.36L545.24 214.54C547.56 213.02 549.12 211.14 549.94 208.86ZM569.42 214.46L570.38 213.5C569.58 212.26 568.78 211.12 568.02 210.08C568.54 208.38 568.96 206.5 569.28 204.44L567.96 204.2C567.72 205.8 567.4 207.32 567.02 208.72C566.18 207.6 565.38 206.66 564.64 205.88L563.74 206.74C564.66 207.8 565.6 208.96 566.56 210.24C565.88 212.26 565.02 214.02 563.98 215.5L564.9 216.62C565.92 215.22 566.8 213.54 567.52 211.58C568.14 212.48 568.78 213.44 569.42 214.46ZM575.28 215.38L576.26 214.42C575.4 212.98 574.58 211.68 573.82 210.52C574.42 208.72 574.9 206.72 575.26 204.5L573.9 204.26C573.62 205.98 573.28 207.6 572.84 209.1C572 207.9 571.2 206.9 570.48 206.08L569.58 206.94C570.5 208.06 571.4 209.3 572.32 210.66C571.58 212.7 570.64 214.48 569.52 216L570.44 217.1C571.52 215.7 572.46 214.02 573.26 212.06C573.92 213.1 574.6 214.2 575.28 215.38ZM576.2 218.88C577.38 218.88 577.98 218.26 577.98 217.04V201.48H562.02V218.96H563.44V202.86H576.56V216.72C576.56 217.26 576.28 217.54 575.72 217.54L573.8 217.48L574.18 218.88H576.2ZM582.72 208.18V209.52H592.76V212.08H584.5C584.72 211.52 584.94 210.9 585.16 210.18L583.72 210.06C583.48 211.02 583.08 212.12 582.56 213.38H590.42C588.52 215.1 585.48 216.54 581.32 217.68L582.08 218.94C586.76 217.46 590.1 215.62 592.1 213.38H592.76V216.9C592.76 217.44 592.5 217.72 592.02 217.72C591.16 217.72 590.24 217.68 589.26 217.62L589.58 218.98H592.5C593.64 218.98 594.22 218.4 594.22 217.24V213.38H598.58V212.08H594.22V209.52H597.34V208.18H582.72ZM590.26 200.48L588.76 200.72C589.02 201.16 589.26 201.66 589.48 202.18H581.56V205.22H582.96V203.46H597.02V205.12H598.42V202.18H590.94C590.72 201.54 590.5 200.98 590.26 200.48ZM591.52 204.1L590.82 205.16C592.84 205.74 594.82 206.54 596.74 207.56L597.44 206.46C595.64 205.54 593.68 204.74 591.52 204.1ZM588.22 204.08C586.72 205.06 584.82 205.84 582.5 206.44L583.06 207.6C585.48 206.92 587.5 206.08 589.1 205.06L588.22 204.08ZM602.52 200.98L601.54 201.92C602.98 203.04 604.1 204.08 604.94 205.08L605.94 204.08C605.02 203.04 603.88 202.02 602.52 200.98ZM614.16 218.66H618.82L619.14 217.28C618.62 217.3 617.86 217.32 616.88 217.34C615.88 217.36 614.92 217.38 613.96 217.38C612.4 217.38 611.08 217.36 610.02 217.34C608.84 217.3 607.94 217.14 607.32 216.86C606.76 216.58 606.22 216.16 605.74 215.56C605.58 215.38 605.42 215.22 605.26 215.1V207.6H601.08V208.92H603.92V215C603.08 215.36 602.14 216.38 601.06 218.06L602.14 219.04C603.26 217.2 604.06 216.28 604.56 216.28C604.8 216.28 605.06 216.44 605.34 216.8C605.96 217.52 606.66 218 607.44 218.24C608.24 218.48 609.3 218.6 610.6 218.62C611.88 218.64 613.06 218.66 614.16 218.66ZM613.62 205.38C614.86 206.94 616.48 208.18 618.46 209.12L619.08 207.92C617.28 207.2 615.86 206.34 614.86 205.38H618.12V204.1H613.26V202.6C614.78 202.44 616.14 202.22 617.32 201.92L616.68 200.82C614.24 201.38 611.18 201.68 607.48 201.68L607.88 202.84C609.3 202.84 610.62 202.8 611.86 202.72V204.1H607V205.38H610.26C609.38 206.42 608.02 207.3 606.18 208.02L606.9 209.2C609 208.2 610.54 206.92 611.52 205.38H611.86V208.46H613.26V205.38H613.62ZM608.26 209.08V210.36H610.18C609.94 212.42 608.72 213.9 606.5 214.82L607.26 216.04C609.84 214.84 611.26 212.96 611.5 210.36H614.32C614.14 211.12 613.92 211.82 613.68 212.48H616.56C616.44 213.72 616.22 214.48 615.94 214.74C615.66 214.96 615.22 215.08 614.62 215.1C614.14 215.1 613.44 215.04 612.52 214.96L612.94 216.28C613.94 216.28 614.76 216.26 615.42 216.26C616.14 216.22 616.68 216 617.04 215.62C617.44 215.18 617.7 213.98 617.86 212.04V211.34H615.3C615.46 210.86 615.62 210.32 615.76 209.72V209.08H608.26ZM629.28 203.58V216.24H621.08V217.62H638.94V216.24H630.76V203.58H637.64V202.2H622.42V203.58H629.28ZM656 201.44H644V213.68H641.12V215.02H646.94C645.48 216.1 643.68 217.04 641.52 217.88L642.4 219.02C644.64 218.14 646.5 217.1 648.02 215.92L646.98 215.02H652.58L651.9 216.02C653.86 216.74 655.78 217.74 657.66 218.98L658.46 217.76C656.78 216.7 654.9 215.78 652.84 215.02H658.88V213.68H656V201.44ZM645.46 213.68V211.8H654.54V213.68H645.46ZM645.46 210.64V208.8H654.54V210.64H645.46ZM645.46 207.62V205.76H654.54V207.62H645.46ZM645.46 204.62V202.8H654.54V204.62H645.46ZM663.46 214.2L662.56 215.04C663.3 215.6 664.04 216.26 664.78 217.06C665.42 217.74 666 218.42 666.48 219.1L667.48 218.26C667 217.58 666.42 216.88 665.76 216.2C665 215.4 664.22 214.74 663.46 214.2ZM681.5 201.7V203.12H690.38C688.62 206.84 685.46 210 680.94 212.6L681.88 213.86C684.92 212.04 687.38 209.96 689.26 207.62V219.04H690.74V205.5C691.2 204.74 691.62 203.94 691.98 203.12H698.5V201.7H681.5ZM693.26 207.08L692.22 208.06C694.64 210.04 696.54 211.9 697.94 213.66L699.04 212.54C697.48 210.72 695.56 208.9 693.26 207.08ZM717.14 200.82C713.12 201.38 708.06 201.66 701.96 201.66L702.38 202.96C708.8 202.96 713.96 202.64 717.84 202.04L717.14 200.82ZM718.36 206.82H714.56C715.22 205.96 715.86 204.9 716.5 203.62L715.06 203.08C714.5 204.4 713.82 205.66 713.02 206.82H701.64V211.38H703.04V208.18H716.96V211.38H718.36V206.82ZM704.46 203.46L703.2 204.1C703.9 204.88 704.56 205.78 705.18 206.78L706.42 206.16C705.82 205.18 705.16 204.28 704.46 203.46ZM709.22 203.24L707.92 203.86C708.6 204.66 709.22 205.58 709.82 206.62L711.1 205.96C710.5 204.96 709.86 204.06 709.22 203.24ZM704.08 210.14V211.46H704.88C705.66 213 706.96 214.36 708.78 215.52C706.72 216.42 704.18 217.14 701.16 217.7L701.92 219.06C705.22 218.38 707.98 217.48 710.22 216.36C712.3 217.44 714.92 218.34 718.08 219.04L718.92 217.76C716.06 217.18 713.64 216.44 711.66 215.54C713.54 214.38 714.92 212.98 715.8 211.38V210.14H704.08ZM706.36 211.46H714.2C713.28 212.74 711.96 213.86 710.2 214.82C708.46 213.86 707.18 212.74 706.36 211.46ZM729.42 214.46L730.38 213.5C729.58 212.26 728.78 211.12 728.02 210.08C728.54 208.38 728.96 206.5 729.28 204.44L727.96 204.2C727.72 205.8 727.4 207.32 727.02 208.72C726.18 207.6 725.38 206.66 724.64 205.88L723.74 206.74C724.66 207.8 725.6 208.96 726.56 210.24C725.88 212.26 725.02 214.02 723.98 215.5L724.9 216.62C725.92 215.22 726.8 213.54 727.52 211.58C728.14 212.48 728.78 213.44 729.42 214.46ZM735.28 215.38L736.26 214.42C735.4 212.98 734.58 211.68 733.82 210.52C734.42 208.72 734.9 206.72 735.26 204.5L733.9 204.26C733.62 205.98 733.28 207.6 732.84 209.1C732 207.9 731.2 206.9 730.48 206.08L729.58 206.94C730.5 208.06 731.4 209.3 732.32 210.66C731.58 212.7 730.64 214.48 729.52 216L730.44 217.1C731.52 215.7 732.46 214.02 733.26 212.06C733.92 213.1 734.6 214.2 735.28 215.38ZM736.2 218.88C737.38 218.88 737.98 218.26 737.98 217.04V201.48H722.02V218.96H723.44V202.86H736.56V216.72C736.56 217.26 736.28 217.54 735.72 217.54L733.8 217.48L734.18 218.88H736.2ZM748.06 215.02C746.1 215.76 743.8 216.36 741.18 216.8L741.36 218.22C743.88 217.74 746.1 217.14 748.06 216.38V215.02ZM744.48 200.62C743.68 202.98 742.76 205.06 741.7 206.88C741.52 207.14 741.32 207.32 741.1 207.42L741.46 208.74C742.56 208.58 743.64 208.4 744.72 208.2C743.66 210.12 742.76 211.46 742.04 212.26C741.88 212.42 741.66 212.56 741.4 212.68L741.78 213.98C743.66 213.72 745.62 213.22 747.68 212.5V211.2C746.26 211.72 744.86 212.12 743.46 212.42C744.58 210.98 746 208.58 747.72 205.2L746.48 204.74C746.12 205.48 745.76 206.2 745.42 206.88C744.54 207.04 743.68 207.18 742.82 207.3C743.82 205.78 744.82 203.72 745.82 201.14L744.48 200.62ZM757.48 211.5H749.26V218.88H750.64V218.02H756.1V218.88H757.48V211.5ZM750.64 216.7V212.82H756.1V216.7H750.64ZM751.24 200.62C750.6 202.74 749.4 204.54 747.62 206L748.46 207.12C749.12 206.58 749.72 205.98 750.26 205.34C750.8 206.22 751.44 207.06 752.2 207.82C750.82 208.82 749.16 209.66 747.24 210.38L748.12 211.54C750.08 210.78 751.8 209.84 753.24 208.76C754.68 209.92 756.44 210.8 758.54 211.44L759.36 210.26C757.4 209.7 755.7 208.9 754.3 207.88C755.68 206.62 756.74 205.16 757.48 203.5V202.46H752.06C752.26 201.96 752.46 201.44 752.62 200.88L751.24 200.62ZM751.04 204.32C751.16 204.14 751.28 203.94 751.4 203.74H755.92C755.26 204.94 754.36 206.02 753.22 207C752.36 206.22 751.64 205.32 751.04 204.32ZM761.68 201.46V219.02H763.08V202.84H766.38C765.86 204.5 765.12 206.38 764.18 208.46C765.58 210.14 766.28 211.68 766.28 213.04C766.28 213.46 766.14 213.76 765.9 213.94C765.64 214.1 765.14 214.2 764.4 214.24C764.2 214.24 763.94 214.2 763.62 214.16L764.1 215.62C765.54 215.6 766.54 215.36 767.1 214.9C767.5 214.52 767.72 213.9 767.72 213.04C767.64 211.6 766.94 210 765.66 208.24C766.5 206.28 767.22 204.42 767.82 202.62V201.46H761.68ZM770.18 206.46H776.08V208.72H770.18V206.46ZM776.08 205.14H770.18V202.84H776.08V205.14ZM772.48 210.04C773.16 213.78 775.18 216.72 778.5 218.84L779.3 217.58C777.78 216.68 776.58 215.6 775.66 214.34C776.8 213.76 777.82 212.92 778.74 211.84L777.8 210.9C776.9 211.98 775.96 212.78 775 213.32C774.42 212.32 774.02 211.22 773.78 210.04H777.48V201.48H768.76V216.96C768.76 217.16 768.6 217.32 768.32 217.42L768.66 218.66C770.84 218.08 772.64 217.48 774.08 216.86L773.76 215.52C772.58 216.06 771.38 216.52 770.18 216.88V210.04H772.48ZM783.12 204.54H785.92V207.12H781.08V208.46H785.92V210.56H781.98V217.76H783.38V211.9H785.92V219.02H787.36V211.9H789.88V215.54C789.88 216.06 789.58 216.32 789.02 216.32L788.04 216.26L788.4 217.62H789.46C790.66 217.62 791.26 217.02 791.26 215.84V210.56H787.36V208.46H791.68V207.12H787.36V204.54H791.1V203.2H787.36V200.72H785.92V203.2H783.6C783.76 202.66 783.88 202.08 783.98 201.44L782.62 201.22C782.34 203.12 781.7 204.6 780.7 205.68L781.86 206.52C782.34 206 782.76 205.34 783.12 204.54ZM792.86 202.52V214.88H794.26V202.52H792.86ZM796.52 218.82C797.74 218.82 798.36 218.18 798.36 216.94V200.72H796.94V216.58C796.94 217.22 796.62 217.54 796.02 217.54C795.14 217.54 794.22 217.5 793.26 217.44L793.58 218.82H796.52ZM803.72 214.62C803.32 214.62 803.02 214.72 802.78 214.96C802.54 215.18 802.42 215.48 802.42 215.86C802.42 216.2 802.54 216.5 802.78 216.74C803.02 216.98 803.3 217.1 803.64 217.1C803.84 217.1 804 217.06 804.08 217.02C804.08 217.5 803.94 217.94 803.64 218.36C803.32 218.76 802.9 219.06 802.38 219.24V220.22C803.22 220 803.92 219.56 804.44 218.92C804.96 218.24 805.22 217.46 805.22 216.58C805.22 216 805.08 215.54 804.82 215.18C804.54 214.8 804.16 214.62 803.72 214.62ZM829.48 200.72C827.16 203.24 824.24 205.36 820.72 207.06L821.42 208.32C824.96 206.54 827.82 204.44 830 202.02C832.36 204.56 835.18 206.62 838.5 208.22L839.22 206.94C835.94 205.42 833.04 203.36 830.52 200.72H829.48ZM824.42 207.04V208.42H829.26V211.9H823.46V213.28H829.26V216.98H821.68V218.4H838.34V216.98H830.74V213.28H836.52V211.9H830.74V208.42H835.58V207.04H824.42ZM846.6 211.16V216.2H853.66V211.16H846.6ZM852.36 214.98H847.9V212.36H852.36V214.98ZM855.7 202.8V205H844.74V202.8H855.7ZM844.74 206.3H857.1V201.44H843.34V209.28C843.32 212.8 842.5 215.68 840.86 217.9L841.98 218.9C843.78 216.24 844.7 213.06 844.74 209.36H856.68C856.64 213.46 856.58 215.9 856.46 216.7C856.32 217.34 855.88 217.66 855.16 217.66C854.4 217.66 853.5 217.64 852.44 217.6L852.76 218.82C853.98 218.86 854.84 218.88 855.34 218.88C856.78 218.88 857.6 218.32 857.78 217.22C857.98 216.06 858.08 213 858.08 208.06H844.74V206.3ZM876 209.7C872.52 210.26 868.16 210.54 862.92 210.54L863.28 211.64C865.52 211.64 867.6 211.6 869.52 211.52V212.76H862.88V213.88H869.52V215.16H861.38V216.34H869.52V217.08C869.52 217.6 869.28 217.88 868.8 217.88C868.04 217.88 867.26 217.84 866.44 217.8L866.72 219.04H869.24C870.36 219.04 870.94 218.48 870.94 217.38V216.34H878.52V215.16H870.94V213.88H876.94V212.76H870.94V211.44C873.1 211.3 875 211.1 876.66 210.84L876 209.7ZM864.98 205.52V209.12H875.02V205.52H864.98ZM873.62 208.06H866.38V206.58H873.62V208.06ZM869.28 200.54V203H866.88C866.48 202.12 866.06 201.38 865.58 200.76L864.22 201.26C864.68 201.8 865.08 202.38 865.4 203H861.74V206.84H863.18V204.26H876.82V206.78H878.26V203H874.7C875.08 202.48 875.44 201.88 875.76 201.22L874.36 200.74C874.02 201.54 873.62 202.28 873.14 203H870.72V200.54H869.28ZM892.38 212.58V216.96H886.92V218.36H899.14V216.96H893.82V212.58H898.4V211.24H887.72V212.58H892.38ZM883.26 218.82C884.42 218.82 885.02 218.24 885.02 217.08V211.18C885.6 210.92 886.18 210.64 886.76 210.36V208.9C886.2 209.2 885.62 209.48 885.02 209.76V205.88H886.68V204.5H885.02V200.68H883.54V204.5H881.1V205.88H883.54V210.36C882.64 210.68 881.72 210.96 880.78 211.2L881.14 212.64C881.94 212.38 882.74 212.1 883.54 211.8V216.72C883.54 217.24 883.28 217.5 882.76 217.5C882.26 217.5 881.74 217.46 881.2 217.42L881.5 218.82H883.26ZM892.92 200.44L891.46 200.68C891.82 201.32 892.16 202.06 892.48 202.86H887.52V206.64H888.88V204.16H897.28V206.64H898.62V202.86H893.92C893.6 201.96 893.26 201.16 892.92 200.44ZM891.06 205.4C890.3 207.12 889.16 208.5 887.66 209.54L888.7 210.44C890.2 209.4 891.4 207.88 892.32 205.9L891.06 205.4ZM894.92 205.36L893.7 205.88C894.9 207.16 895.98 208.64 896.96 210.28L898.22 209.64C897.26 208.08 896.16 206.64 894.92 205.36ZM911.64 211.78C912.64 211.78 913.16 211.22 913.16 210.12V204.7H911.72V209.78C911.72 210.28 911.52 210.54 911.16 210.54C910.72 210.54 910.24 210.5 909.74 210.44L910.04 211.78H911.64ZM903.44 206.04V211.8H904.84V204.16C905.48 203.18 906.06 202.1 906.58 200.94L905.18 200.64C904.02 203.18 902.54 205.24 900.74 206.8L901.64 207.9C902.26 207.34 902.86 206.72 903.44 206.04ZM909.68 200.62C908.74 202.72 907.52 204.42 906.02 205.74L906.9 206.82C907.86 205.94 908.74 204.94 909.5 203.78H916.88C916.66 204.58 916.38 205.3 916.04 205.96L917.34 206.3C917.74 205.34 918.06 204.36 918.32 203.36V202.46H910.3C910.54 201.98 910.8 201.46 911.04 200.92L909.68 200.62ZM903.1 212.82C902.7 214.46 902.1 215.98 901.26 217.34L902.48 218.12C903.34 216.7 904 215.02 904.48 213.1L903.1 212.82ZM912.94 218.7C913.66 218.7 914.2 218.54 914.54 218.22C914.94 217.84 915.2 216.78 915.34 215.02L913.98 214.58C913.9 215.9 913.76 216.7 913.52 216.98C913.34 217.22 913.06 217.34 912.66 217.34H908.26C907.7 217.34 907.44 217.04 907.44 216.48V212.56H905.98V216.78C905.98 218.06 906.58 218.7 907.82 218.7H912.94ZM916.34 212.2L915.16 212.92C916.38 214.64 917.36 216.22 918.08 217.66L919.26 216.82C918.58 215.5 917.62 213.96 916.34 212.2ZM909.14 206.62C908.42 208.06 907.56 209.32 906.56 210.4L907.66 211.16C908.66 210.04 909.54 208.7 910.3 207.16L909.14 206.62ZM915.78 206.6L914.56 207.12C915.48 208.32 916.34 209.68 917.1 211.24L918.32 210.62C917.58 209.14 916.74 207.8 915.78 206.6ZM910.14 212.02L909.02 212.72C909.98 213.84 910.74 214.88 911.3 215.8L912.42 215.02C911.9 214.16 911.14 213.16 910.14 212.02ZM928.08 204.12H924.86C925.26 203.12 925.56 202.02 925.8 200.84L924.36 200.64C924.18 201.84 923.9 203 923.5 204.12H921.64V218.34H923.04V216.62H926.68V217.76H928.08V204.12ZM923.04 215.28V210.9H926.68V215.28H923.04ZM923.04 209.6V205.48H926.68V209.6H923.04ZM931.56 208.76L930.4 209.48C931.78 211.12 932.88 212.6 933.7 213.92L934.84 213.12C934.08 211.88 933 210.42 931.56 208.76ZM938.42 204.14H932.04C932.4 203.1 932.68 201.98 932.92 200.8L931.5 200.62C930.98 203.46 930.04 205.86 928.64 207.82L929.5 208.96C930.28 207.94 930.94 206.8 931.5 205.54H937C936.96 211.3 936.88 214.76 936.76 215.88C936.6 216.9 936.06 217.42 935.12 217.42C934.5 217.42 933.78 217.4 932.94 217.36L933.28 218.68C934.24 218.72 934.92 218.76 935.32 218.76C937 218.76 937.92 217.98 938.12 216.46C938.32 214.9 938.42 210.78 938.42 204.14ZM956.02 208.78L954.74 209.22C955.46 211.26 956.1 213.38 956.66 215.58C954.9 215.94 952.78 216.3 950.3 216.66L954.68 201.34L953.24 201.14L948.92 216.46C948.84 216.68 948.6 216.84 948.18 216.96L948.46 218.36C951.54 217.92 954.38 217.44 957 216.92C957.16 217.58 957.32 218.28 957.48 219L958.92 218.64C958.06 214.94 957.1 211.66 956.02 208.78ZM941.32 206.06V207.44H944.78C944.02 209.66 942.74 211.64 940.96 213.38L941.6 215C942.96 213.44 944.06 211.72 944.88 209.82V218.94H946.34V209.54C946.96 210.34 947.7 211.38 948.54 212.7L949.34 211.48C948.34 210.28 947.34 209.2 946.34 208.24V207.44H949.58V206.06H946.34V202.88C947.46 202.66 948.54 202.42 949.54 202.14L949.04 200.8C946.84 201.44 944.3 201.88 941.44 202.12L941.74 203.5C942.82 203.4 943.88 203.28 944.88 203.12V206.06H941.32ZM970.72 200.7H969.26C969.26 201.46 969.24 202.52 969.22 203.88C969.04 209.64 966.2 214.22 960.7 217.6L961.58 218.88C966.02 216.02 968.86 212.42 970.06 208.06C971.48 212.58 974.24 216.18 978.32 218.86L979.26 217.6C974.6 214.74 971.7 210.58 970.58 205.14C970.66 203.9 970.72 202.42 970.72 200.7ZM983.22 201.04L982.22 201.98C983.58 203.04 984.64 204.04 985.42 205L986.4 204C985.54 203.02 984.48 202.04 983.22 201.04ZM980.9 206.82V208.2H983.68V216.12C983.68 216.44 983.52 216.74 983.24 217.02L983.8 218.3C985.2 217.38 986.54 216.34 987.8 215.16L987.4 213.64C986.58 214.42 985.8 215.1 985.08 215.7V206.82H980.9ZM988 209.16V210.56H989.1C989.66 212.3 990.68 213.86 992.2 215.26C990.7 216.32 988.84 217.18 986.62 217.84L987.42 219.06C989.76 218.34 991.74 217.4 993.34 216.2C994.74 217.28 996.5 218.22 998.58 219.06L999.36 217.82C997.4 217.1 995.74 216.28 994.38 215.34C995.84 213.98 996.88 212.36 997.52 210.48V209.16H988ZM990.46 210.56H996.1C995.46 212.04 994.5 213.32 993.22 214.44C991.9 213.3 990.98 212 990.46 210.56ZM989.54 201.44V203.66C989.54 205.24 988.66 206.46 986.92 207.32L987.88 208.42C989.92 207.26 990.96 205.62 990.96 203.5V202.8H994.84V206.06C994.84 207.24 995.44 207.84 996.68 207.84H998.88V206.52H997.04C996.52 206.52 996.26 206.26 996.26 205.76V201.44H989.54ZM1016.32 210.28H1003.72V219H1005.1V218.12H1014.94V219H1016.32V210.28ZM1005.1 216.88V214.76H1009.32V216.88H1005.1ZM1010.68 216.88V214.76H1014.94V216.88H1010.68ZM1005.1 213.6V211.48H1009.32V213.6H1005.1ZM1010.68 211.48H1014.94V213.6H1010.68V211.48ZM1007.34 200.42C1005.88 202.56 1004.02 204.28 1001.78 205.58L1002.7 206.7C1003.7 206.06 1004.64 205.36 1005.52 204.56C1006.44 205.5 1007.5 206.34 1008.7 207.06C1006.46 208.06 1003.86 208.78 1000.86 209.2L1001.48 210.46C1004.78 209.92 1007.66 209.04 1010.1 207.82C1012.42 208.98 1015.22 209.8 1018.5 210.3L1019.12 209.02C1016.16 208.62 1013.62 207.98 1011.46 207.06C1013.22 205.98 1014.72 204.7 1015.96 203.18V202.08H1007.82C1008.14 201.66 1008.46 201.22 1008.76 200.74L1007.34 200.42ZM1006.38 203.74L1006.78 203.34H1014.18C1013.02 204.5 1011.64 205.52 1010.04 206.4C1008.6 205.64 1007.38 204.76 1006.38 203.74Z"
     fill="black"
     fill-opacity="0.7"
     id="path834" />
  <path
     d="M341 365.113L338.113 368L341 370.887L343.887 368L341 365.113ZM341 404H340.5V404.5H341V404ZM340.5 368V369H341.5V368H340.5ZM340.5 371V373H341.5V371H340.5ZM340.5 375V377H341.5V375H340.5ZM340.5 379V381H341.5V379H340.5ZM340.5 383V385H341.5V383H340.5ZM340.5 387V389H341.5V387H340.5ZM340.5 391V393H341.5V391H340.5ZM340.5 395V397H341.5V395H340.5ZM340.5 399V401H341.5V399H340.5ZM340.5 403V404H341.5V403H340.5ZM341 404.5H341.988V403.5H341V404.5ZM343.965 404.5H345.942V403.5H343.965V404.5ZM347.919 404.5H349.895V403.5H347.919V404.5ZM351.872 404.5H353.849V403.5H351.872V404.5ZM355.826 404.5H357.802V403.5H355.826V404.5ZM359.779 404.5H361.756V403.5H359.779V404.5ZM363.733 404.5H365.709V403.5H363.733V404.5ZM367.686 404.5H369.663V403.5H367.686V404.5ZM371.64 404.5H373.616V403.5H371.64V404.5ZM375.593 404.5H377.57V403.5H375.593V404.5ZM379.547 404.5H381.523V403.5H379.547V404.5ZM383.5 404.5H385.477V403.5H383.5V404.5ZM387.453 404.5H389.43V403.5H387.453V404.5ZM391.407 404.5H393.384V403.5H391.407V404.5ZM395.36 404.5H397.337V403.5H395.36V404.5ZM399.314 404.5H401.291V403.5H399.314V404.5ZM403.267 404.5H405.244V403.5H403.267V404.5ZM407.221 404.5H409.198V403.5H407.221V404.5ZM411.174 404.5H413.151V403.5H411.174V404.5ZM415.128 404.5H417.105V403.5H415.128V404.5ZM419.081 404.5H421.058V403.5H419.081V404.5ZM423.035 404.5H425.012V403.5H423.035V404.5ZM426.988 404.5H428.965V403.5H426.988V404.5ZM430.942 404.5H432.919V403.5H430.942V404.5ZM434.895 404.5H436.872V403.5H434.895V404.5ZM438.849 404.5H440.826V403.5H438.849V404.5ZM442.802 404.5H444.779V403.5H442.802V404.5ZM446.756 404.5H448.733V403.5H446.756V404.5ZM450.709 404.5H452.686V403.5H450.709V404.5ZM454.663 404.5H456.64V403.5H454.663V404.5ZM458.616 404.5H460.593V403.5H458.616V404.5ZM462.57 404.5H464.547V403.5H462.57V404.5ZM466.523 404.5H468.5V403.5H466.523V404.5ZM470.477 404.5H472.454V403.5H470.477V404.5ZM474.43 404.5H476.407V403.5H474.43V404.5ZM478.384 404.5H480.361V403.5H478.384V404.5ZM482.337 404.5H484.314V403.5H482.337V404.5ZM486.291 404.5H488.268V403.5H486.291V404.5ZM490.244 404.5H492.221V403.5H490.244V404.5ZM494.198 404.5H496.175V403.5H494.198V404.5ZM498.151 404.5H500.128V403.5H498.151V404.5ZM502.105 404.5H504.081V403.5H502.105V404.5ZM506.058 404.5H508.035V403.5H506.058V404.5ZM510.012 404.5H511V403.5H510.012V404.5Z"
     fill="black"
     fill-opacity="0.2"
     id="path836" />
  <path
     d="M1108 359.113L1110.89 362L1108 364.887L1105.11 362L1108 359.113ZM1108 398H1108.5V398.5H1108V398ZM1108.5 362V363H1107.5V362H1108.5ZM1108.5 365V367H1107.5V365H1108.5ZM1108.5 369V371H1107.5V369H1108.5ZM1108.5 373V375H1107.5V373H1108.5ZM1108.5 377V379H1107.5V377H1108.5ZM1108.5 381V383H1107.5V381H1108.5ZM1108.5 385V387H1107.5V385H1108.5ZM1108.5 389V391H1107.5V389H1108.5ZM1108.5 393V395H1107.5V393H1108.5ZM1108.5 397V398H1107.5V397H1108.5ZM1108 398.5H1107.01V397.5H1108V398.5ZM1105.02 398.5H1103.03V397.5H1105.02V398.5ZM1101.04 398.5H1099.05V397.5H1101.04V398.5ZM1097.06 398.5H1095.07V397.5H1097.06V398.5ZM1093.08 398.5H1091.09V397.5H1093.08V398.5ZM1089.11 398.5H1087.12V397.5H1089.11V398.5ZM1085.13 398.5H1083.14V397.5H1085.13V398.5ZM1081.15 398.5H1079.16V397.5H1081.15V398.5ZM1077.17 398.5H1075.18V397.5H1077.17V398.5ZM1073.19 398.5H1071.21V397.5H1073.19V398.5ZM1069.22 398.5H1067.23V397.5H1069.22V398.5ZM1065.24 398.5H1063.25V397.5H1065.24V398.5ZM1061.26 398.5H1059.27V397.5H1061.26V398.5ZM1057.28 398.5H1055.29V397.5H1057.28V398.5ZM1053.31 398.5H1051.32V397.5H1053.31V398.5ZM1049.33 398.5H1047.34V397.5H1049.33V398.5ZM1045.35 398.5H1043.36V397.5H1045.35V398.5ZM1041.37 398.5H1039.38V397.5H1041.37V398.5ZM1037.39 398.5H1035.41V397.5H1037.39V398.5ZM1033.42 398.5H1031.43V397.5H1033.42V398.5ZM1029.44 398.5H1027.45V397.5H1029.44V398.5ZM1025.46 398.5H1023.47V397.5H1025.46V398.5ZM1021.48 398.5H1019.49V397.5H1021.48V398.5ZM1017.51 398.5H1015.52V397.5H1017.51V398.5ZM1013.53 398.5H1011.54V397.5H1013.53V398.5ZM1009.55 398.5H1007.56V397.5H1009.55V398.5ZM1005.57 398.5H1003.58V397.5H1005.57V398.5ZM1001.59 398.5H999.606V397.5H1001.59V398.5ZM997.617 398.5H995.628V397.5H997.617V398.5ZM993.639 398.5H991.65V397.5H993.639V398.5ZM989.661 398.5H987.672V397.5H989.661V398.5ZM985.683 398.5H983.694V397.5H985.683V398.5ZM981.705 398.5H979.717V397.5H981.705V398.5ZM977.728 398.5H975.739V397.5H977.728V398.5ZM973.75 398.5H971.761V397.5H973.75V398.5ZM969.772 398.5H967.783V397.5H969.772V398.5ZM965.794 398.5H963.805V397.5H965.794V398.5ZM961.817 398.5H959.828V397.5H961.817V398.5ZM957.839 398.5H955.85V397.5H957.839V398.5ZM953.861 398.5H951.872V397.5H953.861V398.5ZM949.883 398.5H947.894V397.5H949.883V398.5ZM945.905 398.5H943.917V397.5H945.905V398.5ZM941.928 398.5H939.939V397.5H941.928V398.5ZM937.95 398.5H935.961V397.5H937.95V398.5ZM933.972 398.5H931.983V397.5H933.972V398.5ZM929.994 398.5H929V397.5H929.994V398.5Z"
     fill="black"
     fill-opacity="0.2"
     id="path838" />
  <path
     d="M1047 441.887L1049.89 439L1047 436.113L1044.11 439L1047 441.887ZM1047 415H1047.5V414.5H1047V415ZM1047.5 439V438H1046.5V439H1047.5ZM1047.5 436V434H1046.5V436H1047.5ZM1047.5 432V430H1046.5V432H1047.5ZM1047.5 428V426H1046.5V428H1047.5ZM1047.5 424V422H1046.5V424H1047.5ZM1047.5 420V418H1046.5V420H1047.5ZM1047.5 416V415H1046.5V416H1047.5ZM1047 414.5H1046.02V415.5H1047V414.5ZM1044.05 414.5H1042.08V415.5H1044.05V414.5ZM1040.12 414.5H1038.15V415.5H1040.12V414.5ZM1036.18 414.5H1034.22V415.5H1036.18V414.5ZM1032.25 414.5H1030.28V415.5H1032.25V414.5ZM1028.32 414.5H1026.35V415.5H1028.32V414.5ZM1024.38 414.5H1022.42V415.5H1024.38V414.5ZM1020.45 414.5H1018.48V415.5H1020.45V414.5ZM1016.52 414.5H1014.55V415.5H1016.52V414.5ZM1012.58 414.5H1010.62V415.5H1012.58V414.5ZM1008.65 414.5H1006.68V415.5H1008.65V414.5ZM1004.72 414.5H1002.75V415.5H1004.72V414.5ZM1000.78 414.5H998.817V415.5H1000.78V414.5ZM996.85 414.5H994.883V415.5H996.85V414.5ZM992.917 414.5H990.95V415.5H992.917V414.5ZM988.983 414.5H987.017V415.5H988.983V414.5ZM985.05 414.5H983.083V415.5H985.05V414.5ZM981.117 414.5H979.15V415.5H981.117V414.5ZM977.183 414.5H975.217V415.5H977.183V414.5ZM973.25 414.5H971.283V415.5H973.25V414.5ZM969.317 414.5H967.35V415.5H969.317V414.5ZM965.383 414.5H963.417V415.5H965.383V414.5ZM961.45 414.5H959.483V415.5H961.45V414.5ZM957.517 414.5H955.55V415.5H957.517V414.5ZM953.583 414.5H951.617V415.5H953.583V414.5ZM949.65 414.5H947.683V415.5H949.65V414.5ZM945.717 414.5H943.75V415.5H945.717V414.5ZM941.783 414.5H939.817V415.5H941.783V414.5ZM937.85 414.5H935.883V415.5H937.85V414.5ZM933.917 414.5H931.95V415.5H933.917V414.5ZM929.983 414.5H929V415.5H929.983V414.5Z"
     fill="black"
     fill-opacity="0.2"
     id="path840" />
  <path
     d="M370 457.887L367.113 455L370 452.113L372.887 455L370 457.887ZM370 431H369.5V430.5H370V431ZM369.5 455V454H370.5V455H369.5ZM369.5 452V450H370.5V452H369.5ZM369.5 448V446H370.5V448H369.5ZM369.5 444V442H370.5V444H369.5ZM369.5 440V438H370.5V440H369.5ZM369.5 436V434H370.5V436H369.5ZM369.5 432V431H370.5V432H369.5ZM370 430.5H371.007V431.5H370V430.5ZM373.021 430.5H375.036V431.5H373.021V430.5ZM377.05 430.5H379.064V431.5H377.05V430.5ZM381.079 430.5H383.093V431.5H381.079V430.5ZM385.107 430.5H387.121V431.5H385.107V430.5ZM389.136 430.5H391.15V431.5H389.136V430.5ZM393.164 430.5H395.179V431.5H393.164V430.5ZM397.193 430.5H399.207V431.5H397.193V430.5ZM401.221 430.5H403.236V431.5H401.221V430.5ZM405.25 430.5H407.264V431.5H405.25V430.5ZM409.279 430.5H411.293V431.5H409.279V430.5ZM413.307 430.5H415.321V431.5H413.307V430.5ZM417.336 430.5H419.35V431.5H417.336V430.5ZM421.364 430.5H423.379V431.5H421.364V430.5ZM425.393 430.5H427.407V431.5H425.393V430.5ZM429.421 430.5H431.436V431.5H429.421V430.5ZM433.45 430.5H435.464V431.5H433.45V430.5ZM437.479 430.5H439.493V431.5H437.479V430.5ZM441.507 430.5H443.521V431.5H441.507V430.5ZM445.536 430.5H447.55V431.5H445.536V430.5ZM449.564 430.5H451.579V431.5H449.564V430.5ZM453.593 430.5H455.607V431.5H453.593V430.5ZM457.621 430.5H459.636V431.5H457.621V430.5ZM461.65 430.5H463.664V431.5H461.65V430.5ZM465.679 430.5H467.693V431.5H465.679V430.5ZM469.707 430.5H471.721V431.5H469.707V430.5ZM473.736 430.5H475.75V431.5H473.736V430.5ZM477.764 430.5H479.779V431.5H477.764V430.5ZM481.793 430.5H483.807V431.5H481.793V430.5ZM485.821 430.5H487.836V431.5H485.821V430.5ZM489.85 430.5H491.864V431.5H489.85V430.5ZM493.878 430.5H495.893V431.5H493.878V430.5ZM497.907 430.5H499.921V431.5H497.907V430.5ZM501.936 430.5H503.95V431.5H501.936V430.5ZM505.964 430.5H507.978V431.5H505.964V430.5ZM509.993 430.5H511V431.5H509.993V430.5Z"
     fill="black"
     fill-opacity="0.2"
     id="path842" />
  <g
     filter="url(#filter1_d)"
     id="g846">
    <rect
       x="946"
       y="439"
       width="218"
       height="62"
       rx="6"
       fill="white"
       id="rect844" />
  </g>
  <path
     d="M1019.94 462.88C1018.53 464.416 1016.4 465.44 1013.55 465.984L1014.22 467.04C1015.94 466.656 1017.41 466.096 1018.66 465.36H1023.33C1022.43 466.672 1021.14 467.68 1019.47 468.352C1018.96 467.712 1018.42 467.136 1017.84 466.592L1016.83 467.072C1017.38 467.568 1017.9 468.128 1018.4 468.736C1017.25 469.072 1015.97 469.28 1014.53 469.376L1015.02 470.416C1019.7 470.048 1022.91 468.32 1024.64 465.248V464.336H1020.05C1020.37 464.048 1020.67 463.744 1020.96 463.424L1019.94 462.88ZM1019.33 472.88L1018.3 473.36C1018.9 473.936 1019.46 474.592 1020 475.312C1018.19 475.92 1016.03 476.224 1013.54 476.24L1014 477.344C1020.21 477.2 1024.43 475.248 1026.7 471.472V470.56H1022.32C1022.77 470.224 1023.17 469.856 1023.55 469.472L1022.56 468.928C1020.9 470.688 1018.32 471.76 1014.83 472.112L1015.52 473.136C1017.46 472.8 1019.12 472.288 1020.53 471.616H1025.26C1024.24 473.024 1022.85 474.128 1021.07 474.896C1020.53 474.176 1019.94 473.504 1019.33 472.88ZM1038.42 462.992V465.808H1035.31V473.056H1036.42V472.24H1038.42V477.6H1039.58V472.24H1041.65V473.056H1042.77V465.808H1039.58V462.992H1038.42ZM1036.42 471.168V466.896H1038.42V471.168H1036.42ZM1039.58 471.168V466.896H1041.65V471.168H1039.58ZM1029.1 465.2C1029.87 465.104 1030.59 465.008 1031.3 464.896V467.312H1028.83V468.416H1031.18C1030.66 470.24 1029.78 471.872 1028.53 473.312L1029.01 474.512C1029.97 473.248 1030.72 471.84 1031.3 470.304V477.664H1032.42V470.224C1032.91 470.864 1033.5 471.696 1034.19 472.72L1034.83 471.76C1034.02 470.816 1033.22 469.968 1032.42 469.216V468.416H1034.48V467.312H1032.42V464.672C1033.15 464.512 1033.84 464.32 1034.5 464.112L1034.1 463.04C1032.58 463.584 1030.83 463.936 1028.88 464.128L1029.1 465.2ZM1046.05 463.216L1045.26 463.968C1046.4 464.864 1047.3 465.68 1047.94 466.448L1048.77 465.632C1048.03 464.832 1047.12 464.016 1046.05 463.216ZM1055.34 477.312H1059.01L1059.28 476.16C1058.86 476.192 1058.26 476.208 1057.49 476.224C1056.7 476.24 1055.94 476.256 1055.18 476.256C1053.95 476.256 1052.91 476.24 1052.08 476.224C1051.15 476.192 1050.43 476.064 1049.95 475.84C1049.5 475.632 1049.1 475.296 1048.72 474.832C1048.59 474.688 1048.46 474.56 1048.34 474.464V468.48H1044.98V469.536H1047.26V474.4C1046.61 474.688 1045.86 475.504 1045.01 476.848L1045.87 477.632C1046.75 476.16 1047.38 475.424 1047.76 475.424C1047.95 475.424 1048.16 475.552 1048.37 475.824C1048.86 476.4 1049.42 476.8 1050.05 476.992C1050.69 477.168 1051.5 477.264 1052.53 477.28C1053.54 477.296 1054.48 477.312 1055.34 477.312ZM1050.77 463.68V464.8H1057.9V463.68H1050.77ZM1049.74 467.36V468.464H1052.16C1052.13 469.648 1051.98 470.64 1051.73 471.456C1051.34 472.544 1050.56 473.44 1049.38 474.176L1050.11 475.088C1051.52 474.208 1052.42 473.088 1052.82 471.728C1053.07 470.816 1053.23 469.728 1053.28 468.464H1055.04V473.744C1055.04 474.096 1055.14 474.4 1055.34 474.64C1055.55 474.864 1055.86 474.992 1056.26 474.992H1057.47C1057.98 474.992 1058.35 474.864 1058.54 474.64C1058.77 474.384 1058.94 473.616 1059.04 472.32L1057.98 471.968C1057.94 473.056 1057.82 473.68 1057.66 473.808C1057.55 473.904 1057.41 473.952 1057.22 473.952H1056.61C1056.29 473.952 1056.14 473.792 1056.14 473.504V468.464H1058.75V467.36H1049.74ZM1067.54 463.52V468.144H1074.18V463.52H1067.54ZM1073.06 467.104H1068.67V464.544H1073.06V467.104ZM1066.91 469.632V470.688H1070.19V472.736H1067.28V473.776H1070.19V475.936H1066.27V477.024H1075.25V475.936H1071.38V473.776H1074.37V472.736H1071.38V470.688H1074.86V469.632H1066.91ZM1060.93 467.312V468.416H1063.15C1062.64 470.24 1061.78 471.856 1060.56 473.28L1061.06 474.56C1061.97 473.296 1062.7 471.888 1063.26 470.32V477.536H1064.37V470.32C1064.82 470.912 1065.38 471.712 1066.02 472.704L1066.66 471.744C1065.89 470.832 1065.12 470 1064.37 469.264V468.416H1066.43V467.312H1064.37V464.8C1065.17 464.64 1065.94 464.464 1066.66 464.256L1066.26 463.168C1064.72 463.648 1062.94 463.984 1060.94 464.176L1061.17 465.264C1061.89 465.184 1062.59 465.088 1063.26 464.992V467.312H1060.93ZM1079.57 475.792V476.912H1090.86V475.792H1087.49C1088.48 473.424 1089.3 470.704 1089.97 467.664L1088.83 467.36C1088.1 470.72 1087.23 473.52 1086.24 475.792H1079.57ZM1081.31 468.144L1080.3 468.464C1080.98 470.32 1081.52 472.272 1081.95 474.288L1083.04 474.016C1082.53 471.808 1081.95 469.84 1081.31 468.144ZM1084.4 467.008L1083.39 467.328C1083.97 469.248 1084.43 471.248 1084.78 473.328L1085.89 473.072C1085.44 470.8 1084.94 468.768 1084.4 467.008ZM1084.42 462.8L1083.15 463.024C1083.47 463.472 1083.76 463.952 1084.02 464.464H1078.08V469.152C1078.05 472.4 1077.57 474.928 1076.67 476.752L1077.62 477.6C1078.66 475.488 1079.2 472.672 1079.26 469.152V465.584H1091.12V464.464H1085.26C1085.01 463.856 1084.72 463.296 1084.42 462.8ZM1095.41 468.512H1099.47V471.312H1095.41V468.512ZM1095.34 472.368H1099.47V477.056H1100.66V472.368H1105.01V475.152C1105.01 475.824 1104.7 476.16 1104.13 476.16C1103.58 476.16 1102.99 476.128 1102.35 476.096L1102.66 477.232H1104.5C1105.62 477.232 1106.18 476.672 1106.18 475.552V463.568H1094.26V471.248C1094.22 473.44 1093.7 475.248 1092.67 476.672L1093.55 477.456C1094.58 476.112 1095.17 474.416 1095.34 472.368ZM1105.01 471.312H1100.66V468.512H1105.01V471.312ZM1105.01 467.44H1100.66V464.688H1105.01V467.44ZM1099.47 464.688V467.44H1095.41V464.688H1099.47Z"
     fill="black"
     id="path848" />
  <g
     filter="url(#filter2_d)"
     id="g854">
    <rect
       x="271"
       y="455"
       width="218"
       height="62"
       rx="6"
       fill="white"
       id="rect852" />
  </g>
  <path
     d="M334.376 478.928V481.024H328.152V482.144H334.376V484.592H329.368V485.664H330.6C330.856 486.528 331.272 487.344 331.848 488.08C332.472 488.88 333.208 489.6 334.04 490.224C332.312 491.248 330.232 492.048 327.8 492.624L328.456 493.648C331 492.96 333.176 492.048 335 490.896C335.8 491.408 336.696 491.872 337.672 492.288C338.904 492.8 340.216 493.248 341.592 493.616L342.264 492.608C340.968 492.288 339.752 491.92 338.616 491.488C337.656 491.104 336.776 490.672 335.976 490.224C337.672 488.944 338.968 487.408 339.864 485.616V484.592H335.56V482.144H341.848V481.024H335.56V478.928H334.376ZM334.984 489.6C334.28 489.12 333.64 488.56 333.08 487.92C332.472 487.264 332.024 486.512 331.736 485.664H338.568C337.736 487.2 336.536 488.512 334.984 489.6ZM353.064 478.976V480.64H349.928V481.68H353.064V483.552H349.352V484.64H358.088V483.552H354.2V481.68H357.48V480.64H354.2V478.976H353.064ZM349.096 486.688V487.76H354.984V491.776C354.984 492.208 354.76 492.432 354.312 492.432C353.688 492.432 353.032 492.4 352.344 492.368L352.6 493.488H354.728C355.656 493.488 356.136 493.008 356.136 492.064V487.76H358.104V486.688H356.136V485.456H354.984V486.688H349.096ZM345.672 493.456C346.584 493.456 347.048 492.976 347.048 492.016V487.472C347.624 487.232 348.184 486.976 348.728 486.688V485.504C348.184 485.792 347.624 486.064 347.048 486.32V483.104H348.712V482H347.048V479.136H345.912V482H343.944V483.104H345.912V486.768C345.208 487.024 344.504 487.232 343.768 487.408L344.056 488.56C344.664 488.368 345.288 488.16 345.912 487.936V491.728C345.912 492.192 345.688 492.432 345.272 492.432C344.872 492.432 344.456 492.4 344.024 492.352L344.264 493.456H345.672ZM350.76 488.512L349.832 489.072C350.648 490.048 351.288 490.928 351.768 491.728L352.68 491.088C352.232 490.352 351.592 489.488 350.76 488.512ZM366.936 478.88C365.528 480.416 363.4 481.44 360.552 481.984L361.224 483.04C362.936 482.656 364.408 482.096 365.656 481.36H370.328C369.432 482.672 368.136 483.68 366.472 484.352C365.96 483.712 365.416 483.136 364.84 482.592L363.832 483.072C364.376 483.568 364.904 484.128 365.4 484.736C364.248 485.072 362.968 485.28 361.528 485.376L362.024 486.416C366.696 486.048 369.912 484.32 371.64 481.248V480.336H367.048C367.368 480.048 367.672 479.744 367.96 479.424L366.936 478.88ZM366.328 488.88L365.304 489.36C365.896 489.936 366.456 490.592 367 491.312C365.192 491.92 363.032 492.224 360.536 492.24L361 493.344C367.208 493.2 371.432 491.248 373.704 487.472V486.56H369.32C369.768 486.224 370.168 485.856 370.552 485.472L369.56 484.928C367.896 486.688 365.32 487.76 361.832 488.112L362.52 489.136C364.456 488.8 366.12 488.288 367.528 487.616H372.264C371.24 489.024 369.848 490.128 368.072 490.896C367.528 490.176 366.936 489.504 366.328 488.88ZM385.416 478.992V481.808H382.312V489.056H383.416V488.24H385.416V493.6H386.584V488.24H388.648V489.056H389.768V481.808H386.584V478.992H385.416ZM383.416 487.168V482.896H385.416V487.168H383.416ZM386.584 487.168V482.896H388.648V487.168H386.584ZM376.104 481.2C376.872 481.104 377.592 481.008 378.296 480.896V483.312H375.832V484.416H378.184C377.656 486.24 376.776 487.872 375.528 489.312L376.008 490.512C376.968 489.248 377.72 487.84 378.296 486.304V493.664H379.416V486.224C379.912 486.864 380.504 487.696 381.192 488.72L381.832 487.76C381.016 486.816 380.216 485.968 379.416 485.216V484.416H381.48V483.312H379.416V480.672C380.152 480.512 380.84 480.32 381.496 480.112L381.096 479.04C379.576 479.584 377.832 479.936 375.88 480.128L376.104 481.2ZM393.576 479.232L392.776 479.984C393.864 480.832 394.712 481.632 395.336 482.4L396.12 481.6C395.432 480.816 394.584 480.032 393.576 479.232ZM391.72 483.856V484.96H393.944V491.296C393.944 491.552 393.816 491.792 393.592 492.016L394.04 493.04C395.16 492.304 396.232 491.472 397.24 490.528L396.92 489.312C396.264 489.936 395.64 490.48 395.064 490.96V483.856H391.72ZM397.4 485.728V486.848H398.28C398.728 488.24 399.544 489.488 400.76 490.608C399.56 491.456 398.072 492.144 396.296 492.672L396.936 493.648C398.808 493.072 400.392 492.32 401.672 491.36C402.792 492.224 404.2 492.976 405.864 493.648L406.488 492.656C404.92 492.08 403.592 491.424 402.504 490.672C403.672 489.584 404.504 488.288 405.016 486.784V485.728H397.4ZM399.368 486.848H403.88C403.368 488.032 402.6 489.056 401.576 489.952C400.52 489.04 399.784 488 399.368 486.848ZM398.632 479.552V481.328C398.632 482.592 397.928 483.568 396.536 484.256L397.304 485.136C398.936 484.208 399.768 482.896 399.768 481.2V480.64H402.872V483.248C402.872 484.192 403.352 484.672 404.344 484.672H406.104V483.616H404.632C404.216 483.616 404.008 483.408 404.008 483.008V479.552H398.632ZM420.056 486.624H409.976V493.6H411.08V492.896H418.952V493.6H420.056V486.624ZM411.08 491.904V490.208H414.456V491.904H411.08ZM415.544 491.904V490.208H418.952V491.904H415.544ZM411.08 489.28V487.584H414.456V489.28H411.08ZM415.544 487.584H418.952V489.28H415.544V487.584ZM412.872 478.736C411.704 480.448 410.216 481.824 408.424 482.864L409.16 483.76C409.96 483.248 410.712 482.688 411.416 482.048C412.152 482.8 413 483.472 413.96 484.048C412.168 484.848 410.088 485.424 407.688 485.76L408.184 486.768C410.824 486.336 413.128 485.632 415.08 484.656C416.936 485.584 419.176 486.24 421.8 486.64L422.296 485.616C419.928 485.296 417.896 484.784 416.168 484.048C417.576 483.184 418.776 482.16 419.768 480.944V480.064H413.256C413.512 479.728 413.768 479.376 414.008 478.992L412.872 478.736ZM412.104 481.392L412.424 481.072H418.344C417.416 482 416.312 482.816 415.032 483.52C413.88 482.912 412.904 482.208 412.104 481.392Z"
     fill="black"
     id="path856" />
  <g
     filter="url(#filter3_d)"
     id="g862">
    <rect
       x="196"
       y="306"
       width="260"
       height="62"
       rx="6"
       fill="white"
       id="rect860" />
  </g>
  <path
     d="M224.112 329.832C223.376 332.312 222.192 334.52 220.56 336.44L220.928 337.624C221.536 336.968 222.096 336.28 222.608 335.56V344.632H223.776V333.688C224.336 332.632 224.8 331.528 225.184 330.344L224.112 329.832ZM234.608 344.6L235.392 343.672C233.664 342.536 232.208 341.288 231.056 339.912C232.56 337.736 233.584 335.08 234.128 331.96V330.936H225.856V332.04H226.688C226.944 334.92 227.92 337.528 229.632 339.864C228.416 341.4 226.896 342.664 225.056 343.656L225.84 344.616C227.616 343.608 229.136 342.344 230.384 340.808C231.504 342.152 232.912 343.416 234.608 344.6ZM230.304 338.952C228.832 336.904 228 334.6 227.776 332.04H232.96C232.48 334.712 231.6 337.016 230.304 338.952ZM239.408 335.512H243.472V338.312H239.408V335.512ZM239.344 339.368H243.472V344.056H244.656V339.368H249.008V342.152C249.008 342.824 248.704 343.16 248.128 343.16C247.584 343.16 246.992 343.128 246.352 343.096L246.656 344.232H248.496C249.616 344.232 250.176 343.672 250.176 342.552V330.568H238.256V338.248C238.224 340.44 237.696 342.248 236.672 343.672L237.552 344.456C238.576 343.112 239.168 341.416 239.344 339.368ZM249.008 338.312H244.656V335.512H249.008V338.312ZM249.008 334.44H244.656V331.688H249.008V334.44ZM243.472 331.688V334.44H239.408V331.688H243.472ZM253.776 330.2L252.976 330.968C254.016 331.832 254.832 332.648 255.424 333.416L256.224 332.616C255.568 331.816 254.752 331 253.776 330.2ZM253.536 333.944L252.752 334.712C253.744 335.56 254.544 336.36 255.12 337.112L255.92 336.312C255.28 335.528 254.48 334.744 253.536 333.944ZM255.36 338.44C254.688 340.36 253.872 342.232 252.928 344.088L253.968 344.536C254.864 342.76 255.664 340.856 256.384 338.84L255.36 338.44ZM256.72 332.6V333.72H260.256C260.064 335.24 259.808 336.584 259.488 337.752C258.976 336.904 258.416 336.008 257.808 335.08L256.912 335.64C257.696 336.84 258.416 337.992 259.056 339.112C258.992 339.304 258.912 339.48 258.832 339.672C258.16 341.144 257.136 342.504 255.76 343.736L256.464 344.648C257.904 343.368 258.992 341.912 259.744 340.296C260.304 341.32 260.8 342.312 261.248 343.272L262.16 342.632C261.648 341.544 260.992 340.328 260.224 339C260.672 337.592 261.04 335.832 261.312 333.72H262.048V332.6H260.048C259.792 331.624 259.552 330.744 259.296 329.976L258.112 330.168C258.432 330.92 258.704 331.736 258.96 332.6H256.72ZM262.992 331.32V341.32H264.064V331.32H262.992ZM265.232 344.472C266.176 344.472 266.656 343.976 266.656 342.984V329.976H265.552V342.68C265.552 343.176 265.312 343.432 264.832 343.432C264.208 343.432 263.552 343.4 262.864 343.368L263.12 344.472H265.232ZM280.176 335.8H271.568V341.528H272.72V336.856H279.04V341.496H280.176V335.8ZM275.184 337.88V338.984C275.12 340.2 274.688 341.176 273.856 341.944C272.944 342.664 271.36 343.24 269.088 343.688L269.744 344.712C272.032 344.232 273.68 343.56 274.688 342.712C275.712 341.784 276.256 340.536 276.32 338.984V337.88H275.184ZM281.072 344.344C281.68 344.344 282.112 344.216 282.4 343.96C282.72 343.656 282.944 342.824 283.04 341.448L281.984 341.112C281.92 342.168 281.792 342.792 281.6 343.016C281.44 343.192 281.2 343.288 280.864 343.288H278.304C277.824 343.288 277.584 343.048 277.584 342.584V339.752H276.48V342.824C276.48 343.832 276.976 344.344 277.968 344.344H281.072ZM273.04 329.928V335.128H274.176V329.928H273.04ZM269.904 330.6V334.728H271.008V330.6H269.904ZM277.712 332.184H282.912V331.144H278.192C278.32 330.808 278.448 330.456 278.576 330.088L277.472 329.8C276.944 331.4 276.128 332.744 275.04 333.816L275.904 334.616C276.592 333.976 277.2 333.16 277.712 332.184ZM279.136 332.68L278.416 333.352C279.344 333.944 280.208 334.648 281.024 335.464L281.728 334.648C280.928 333.88 280.064 333.224 279.136 332.68ZM286.24 330.536V334.424H291.12V330.536H286.24ZM290.064 333.448H287.28V331.528H290.064V333.448ZM292.896 330.536V334.424H297.872V330.536H292.896ZM296.832 333.448H293.952V331.528H296.832V333.448ZM284.944 336.024V337.048H289.36C288.24 338.008 286.672 338.792 284.624 339.4L285.152 340.344C285.6 340.2 286.032 340.056 286.464 339.896V344.616H287.472V343.928H290.208V344.616H291.232V339.576H287.216C288.72 338.904 289.92 338.072 290.816 337.048H293.52C294.32 338.024 295.504 338.872 297.04 339.576H292.768V344.616H293.792V343.928H296.784V344.616H297.808V339.912C298.16 340.04 298.528 340.184 298.928 340.312L299.392 339.336C297.328 338.776 295.776 338.008 294.736 337.048H299.056V336.024H296.848C296.592 335.528 296.304 335.064 295.968 334.616L294.992 334.936C295.248 335.256 295.488 335.624 295.712 336.024H291.584C291.808 335.64 292.016 335.256 292.176 334.84L291.072 334.728C290.88 335.176 290.64 335.608 290.336 336.024H284.944ZM287.472 342.936V340.536H290.208V342.936H287.472ZM293.792 342.936V340.536H296.784V342.936H293.792ZM302.976 341.096C302.656 341.096 302.416 341.176 302.224 341.368C302.032 341.544 301.936 341.784 301.936 342.088C301.936 342.36 302.032 342.6 302.224 342.792C302.416 342.984 302.64 343.08 302.912 343.08C303.072 343.08 303.2 343.048 303.264 343.016C303.264 343.4 303.152 343.752 302.912 344.088C302.656 344.408 302.32 344.648 301.904 344.792V345.576C302.576 345.4 303.136 345.048 303.552 344.536C303.968 343.992 304.176 343.368 304.176 342.664C304.176 342.2 304.064 341.832 303.856 341.544C303.632 341.24 303.328 341.096 302.976 341.096ZM318.128 330.792V331.912H322.72V332.984C322.704 333.976 322.64 334.92 322.512 335.784H317.056V336.888H322.32C322.112 337.896 321.824 338.808 321.44 339.608C320.576 341.24 319.056 342.536 316.848 343.528L317.488 344.552C319.712 343.592 321.312 342.232 322.304 340.504C322.848 339.48 323.248 338.28 323.504 336.888H324.8V342.712C324.8 343.8 325.312 344.344 326.368 344.344H328.96C329.632 344.344 330.112 344.2 330.416 343.912C330.768 343.56 331.008 342.616 331.136 341.048L330.048 340.696C329.968 341.944 329.824 342.68 329.6 342.936C329.424 343.144 329.136 343.256 328.752 343.256H326.72C326.208 343.256 325.952 342.984 325.952 342.472V336.888H330.912V335.784H323.68C323.792 334.92 323.856 333.976 323.888 332.984V331.912H329.616V330.792H318.128ZM332.912 337.528V338.52H339.168L338.624 339.672H334.256V344.648H335.344V340.664H337.744V344.456H338.848V340.664H341.216V344.456H342.32V340.664H344.896V342.936C344.896 343.4 344.688 343.64 344.272 343.64L343.2 343.592L343.456 344.584H344.592C345.536 344.584 346.016 344.104 346.016 343.176V339.672H339.792L340.336 338.52H347.088V337.528H332.912ZM333.888 330.472V331.416H339.44V332.424H333.296V335.72H334.4V333.336H339.44V336.872H340.56V333.336H345.6V335.72H346.704V332.424H340.56V331.416H346.128V330.472H333.888ZM335.264 334.232V335H338.592V334.232H335.264ZM335.264 335.832V336.6H338.592V335.832H335.264ZM341.392 334.232V335H344.704V334.232H341.392ZM341.408 335.832V336.6H344.752V335.832H341.408ZM353.264 330.088C352.24 333.144 350.736 335.576 348.736 337.4L349.632 338.184C351.584 336.424 353.136 333.864 354.32 330.504L353.264 330.088ZM358.72 338.568L357.68 338.92C358.352 339.88 358.992 340.936 359.616 342.088C357.328 342.456 354.88 342.728 352.272 342.888C353.648 341.16 355.024 338.776 356.4 335.736L355.28 335.352C353.344 339.736 351.744 342.264 350.464 342.936L350.672 344.056C354.16 343.832 357.312 343.512 360.128 343.064C360.368 343.544 360.608 344.056 360.848 344.6L361.92 344.12C361.024 342.152 359.968 340.296 358.72 338.568ZM358.48 329.976L357.504 330.52C358.432 333.656 360.096 336.232 362.48 338.216L363.296 337.272C361.008 335.384 359.408 332.952 358.48 329.976ZM371.536 340.968L372.304 340.2C371.664 339.208 371.024 338.296 370.416 337.464C370.832 336.104 371.168 334.6 371.424 332.952L370.368 332.76C370.176 334.04 369.92 335.256 369.616 336.376C368.944 335.48 368.304 334.728 367.712 334.104L366.992 334.792C367.728 335.64 368.48 336.568 369.248 337.592C368.704 339.208 368.016 340.616 367.184 341.8L367.92 342.696C368.736 341.576 369.44 340.232 370.016 338.664C370.512 339.384 371.024 340.152 371.536 340.968ZM376.224 341.704L377.008 340.936C376.32 339.784 375.664 338.744 375.056 337.816C375.536 336.376 375.92 334.776 376.208 333L375.12 332.808C374.896 334.184 374.624 335.48 374.272 336.68C373.6 335.72 372.96 334.92 372.384 334.264L371.664 334.952C372.4 335.848 373.12 336.84 373.856 337.928C373.264 339.56 372.512 340.984 371.616 342.2L372.352 343.08C373.216 341.96 373.968 340.616 374.608 339.048C375.136 339.88 375.68 340.76 376.224 341.704ZM376.96 344.504C377.904 344.504 378.384 344.008 378.384 343.032V330.584H365.616V344.568H366.752V331.688H377.248V342.776C377.248 343.208 377.024 343.432 376.576 343.432L375.04 343.384L375.344 344.504H376.96Z"
     fill="black"
     id="path864" />
  <g
     filter="url(#filter4_d)"
     id="g870">
    <rect
       x="989"
       y="300"
       width="218"
       height="62"
       rx="6"
       fill="white"
       id="rect868" />
  </g>
  <path
     d="M1056.15 324.568V325.64H1062.42V327.032H1057.53V333.368H1062.22C1062.06 334.2 1061.77 334.888 1061.38 335.432C1060.49 334.968 1059.66 334.424 1058.9 333.8L1058.02 334.408C1058.81 335.08 1059.67 335.672 1060.6 336.184C1059.58 336.92 1057.94 337.368 1055.72 337.544L1056.22 338.6C1058.76 338.312 1060.6 337.704 1061.72 336.744C1064.1 337.832 1066.9 338.456 1070.12 338.584L1070.41 337.48C1067.34 337.384 1064.68 336.856 1062.44 335.912C1062.89 335.272 1063.19 334.424 1063.38 333.368H1068.54V327.032H1063.58V325.64H1069.86V324.568H1056.15ZM1067.4 332.36H1063.53L1063.58 331.224V330.664H1067.4V332.36ZM1062.38 332.36H1058.66V330.664H1062.42V331.224C1062.42 331.608 1062.41 331.992 1062.38 332.36ZM1058.66 329.704V328.024H1062.42V329.704H1058.66ZM1063.58 328.024H1067.4V329.704H1063.58V328.024ZM1077.43 326.376V327.448H1080.28V328.84C1080.28 329.672 1080.22 330.472 1080.1 331.208H1076.78V332.328H1079.88C1079.27 334.744 1077.93 336.488 1075.88 337.576L1076.58 338.52C1078.71 337.304 1080.14 335.432 1080.86 332.872C1081.86 335.144 1083.46 337.016 1085.64 338.504L1086.42 337.608C1084.26 336.264 1082.68 334.504 1081.69 332.328H1086.06V331.208H1084.81V326.376H1081.4V323.96H1080.28V326.376H1077.43ZM1081.4 327.448H1083.69V331.208H1081.21C1081.34 330.392 1081.4 329.528 1081.4 328.6V327.448ZM1072.22 327.016C1072.17 328.552 1071.96 330.008 1071.61 331.384L1072.55 331.656C1072.89 330.216 1073.08 328.68 1073.13 327.08L1072.22 327.016ZM1076.25 326.664L1075.38 326.936C1075.83 328.056 1076.2 329.208 1076.49 330.408L1077.43 330.184C1077.08 328.856 1076.7 327.688 1076.25 326.664ZM1073.93 323.976V338.536H1075.06V323.976H1073.93ZM1093.46 326.696H1090.89C1091.21 325.896 1091.45 325.016 1091.64 324.072L1090.49 323.912C1090.34 324.872 1090.12 325.8 1089.8 326.696H1088.31V338.072H1089.43V336.696H1092.34V337.608H1093.46V326.696ZM1089.43 335.624V332.12H1092.34V335.624H1089.43ZM1089.43 331.08V327.784H1092.34V331.08H1089.43ZM1096.25 330.408L1095.32 330.984C1096.42 332.296 1097.3 333.48 1097.96 334.536L1098.87 333.896C1098.26 332.904 1097.4 331.736 1096.25 330.408ZM1101.74 326.712H1096.63C1096.92 325.88 1097.14 324.984 1097.34 324.04L1096.2 323.896C1095.78 326.168 1095.03 328.088 1093.91 329.656L1094.6 330.568C1095.22 329.752 1095.75 328.84 1096.2 327.832H1100.6C1100.57 332.44 1100.5 335.208 1100.41 336.104C1100.28 336.92 1099.85 337.336 1099.1 337.336C1098.6 337.336 1098.02 337.32 1097.35 337.288L1097.62 338.344C1098.39 338.376 1098.94 338.408 1099.26 338.408C1100.6 338.408 1101.34 337.784 1101.5 336.568C1101.66 335.32 1101.74 332.024 1101.74 326.712ZM1111.7 328.888V335.16H1115.37V328.888H1111.7ZM1114.38 334.2H1112.7V329.848H1114.38V334.2ZM1112.74 323.832C1112.65 324.584 1112.49 325.32 1112.28 326.024H1109.3V338.536H1110.42V327.112H1116.68V336.392C1116.68 337.048 1116.42 337.384 1115.93 337.384L1114.12 337.352L1114.42 338.472H1116.31C1117.3 338.472 1117.82 337.848 1117.82 336.632V326.024H1113.48C1113.69 325.4 1113.85 324.728 1113.98 324.008L1112.74 323.832ZM1108.26 325.304H1104.26V337.416H1105.38V336.056H1107.14V337.032H1108.26V325.304ZM1105.38 334.984V326.392H1107.14V334.984H1105.38ZM1122.57 336.792V337.912H1133.86V336.792H1130.49C1131.48 334.424 1132.3 331.704 1132.97 328.664L1131.83 328.36C1131.1 331.72 1130.23 334.52 1129.24 336.792H1122.57ZM1124.31 329.144L1123.3 329.464C1123.98 331.32 1124.52 333.272 1124.95 335.288L1126.04 335.016C1125.53 332.808 1124.95 330.84 1124.31 329.144ZM1127.4 328.008L1126.39 328.328C1126.97 330.248 1127.43 332.248 1127.78 334.328L1128.89 334.072C1128.44 331.8 1127.94 329.768 1127.4 328.008ZM1127.42 323.8L1126.15 324.024C1126.47 324.472 1126.76 324.952 1127.02 325.464H1121.08V330.152C1121.05 333.4 1120.57 335.928 1119.67 337.752L1120.62 338.6C1121.66 336.488 1122.2 333.672 1122.26 330.152V326.584H1134.12V325.464H1128.26C1128.01 324.856 1127.72 324.296 1127.42 323.8Z"
     fill="black"
     id="path872" />
  <defs
     id="defs960">
    <filter
       id="filter1_d"
       x="930"
       y="427"
       width="250"
       height="94"
       filterUnits="userSpaceOnUse"
       color-interpolation-filters="sRGB">
      <feFlood
         flood-opacity="0"
         result="BackgroundImageFix"
         id="feFlood876" />
      <feColorMatrix
         in="SourceAlpha"
         type="matrix"
         values="0 0 0 0 0 0 0 0 0 0 0 0 0 0 0 0 0 0 127 0"
         result="hardAlpha"
         id="feColorMatrix878" />
      <feOffset
         dy="4"
         id="feOffset880" />
      <feGaussianBlur
         stdDeviation="8"
         id="feGaussianBlur882" />
      <feComposite
         in2="hardAlpha"
         operator="out"
         id="feComposite884" />
      <feColorMatrix
         type="matrix"
         values="0 0 0 0 0 0 0 0 0 0 0 0 0 0 0 0 0 0 0.08 0"
         id="feColorMatrix886" />
      <feBlend
         mode="normal"
         in2="BackgroundImageFix"
         result="effect1_dropShadow"
         id="feBlend888" />
      <feBlend
         mode="normal"
         in="SourceGraphic"
         in2="effect1_dropShadow"
         result="shape"
         id="feBlend890" />
    </filter>
    <filter
       id="filter2_d"
       x="255"
       y="443"
       width="250"
       height="94"
       filterUnits="userSpaceOnUse"
       color-interpolation-filters="sRGB">
      <feFlood
         flood-opacity="0"
         result="BackgroundImageFix"
         id="feFlood896" />
      <feColorMatrix
         in="SourceAlpha"
         type="matrix"
         values="0 0 0 0 0 0 0 0 0 0 0 0 0 0 0 0 0 0 127 0"
         result="hardAlpha"
         id="feColorMatrix898" />
      <feOffset
         dy="4"
         id="feOffset900" />
      <feGaussianBlur
         stdDeviation="8"
         id="feGaussianBlur902" />
      <feComposite
         in2="hardAlpha"
         operator="out"
         id="feComposite904" />
      <feColorMatrix
         type="matrix"
         values="0 0 0 0 0 0 0 0 0 0 0 0 0 0 0 0 0 0 0.08 0"
         id="feColorMatrix906" />
      <feBlend
         mode="normal"
         in2="BackgroundImageFix"
         result="effect1_dropShadow"
         id="feBlend908" />
      <feBlend
         mode="normal"
         in="SourceGraphic"
         in2="effect1_dropShadow"
         result="shape"
         id="feBlend910" />
    </filter>
    <filter
       id="filter3_d"
       x="180"
       y="294"
       width="292"
       height="94"
       filterUnits="userSpaceOnUse"
       color-interpolation-filters="sRGB">
      <feFlood
         flood-opacity="0"
         result="BackgroundImageFix"
         id="feFlood916" />
      <feColorMatrix
         in="SourceAlpha"
         type="matrix"
         values="0 0 0 0 0 0 0 0 0 0 0 0 0 0 0 0 0 0 127 0"
         result="hardAlpha"
         id="feColorMatrix918" />
      <feOffset
         dy="4"
         id="feOffset920" />
      <feGaussianBlur
         stdDeviation="8"
         id="feGaussianBlur922" />
      <feComposite
         in2="hardAlpha"
         operator="out"
         id="feComposite924" />
      <feColorMatrix
         type="matrix"
         values="0 0 0 0 0 0 0 0 0 0 0 0 0 0 0 0 0 0 0.08 0"
         id="feColorMatrix926" />
      <feBlend
         mode="normal"
         in2="BackgroundImageFix"
         result="effect1_dropShadow"
         id="feBlend928" />
      <feBlend
         mode="normal"
         in="SourceGraphic"
         in2="effect1_dropShadow"
         result="shape"
         id="feBlend930" />
    </filter>
    <filter
       id="filter4_d"
       x="973"
       y="288"
       width="250"
       height="94"
       filterUnits="userSpaceOnUse"
       color-interpolation-filters="sRGB">
      <feFlood
         flood-opacity="0"
         result="BackgroundImageFix"
         id="feFlood936" />
      <feColorMatrix
         in="SourceAlpha"
         type="matrix"
         values="0 0 0 0 0 0 0 0 0 0 0 0 0 0 0 0 0 0 127 0"
         result="hardAlpha"
         id="feColorMatrix938" />
      <feOffset
         dy="4"
         id="feOffset940" />
      <feGaussianBlur
         stdDeviation="8"
         id="feGaussianBlur942" />
      <feComposite
         in2="hardAlpha"
         operator="out"
         id="feComposite944" />
      <feColorMatrix
         type="matrix"
         values="0 0 0 0 0 0 0 0 0 0 0 0 0 0 0 0 0 0 0.08 0"
         id="feColorMatrix946" />
      <feBlend
         mode="normal"
         in2="BackgroundImageFix"
         result="effect1_dropShadow"
         id="feBlend948" />
      <feBlend
         mode="normal"
         in="SourceGraphic"
         in2="effect1_dropShadow"
         result="shape"
         id="feBlend950" />
    </filter>
  </defs>
</svg>
